<?xml version="1.0" standalone="no"?>
<!DOCTYPE svg PUBLIC "-//W3C//DTD SVG 20010904//EN"
 "http://www.w3.org/TR/2001/REC-SVG-20010904/DTD/svg10.dtd">
<svg version="1.0" xmlns="http://www.w3.org/2000/svg"
 width="860.000000pt" height="900.000000pt" viewBox="0 0 860.000000 900.000000"
 preserveAspectRatio="xMidYMid meet">

<g transform="translate(0.000000,900.000000) scale(0.100000,-0.100000)"
fill="#000000" stroke="none">
<path d="M0 4500 l0 -4500 4300 0 4300 0 0 4500 0 4500 -1200 0 -1200 0 -2
-1592 -3 -1593 -1897 -3 -1898 -2 0 1413 c0 1004 -3 1416 -11 1424 -8 8 -8 13
0 17 7 5 11 64 11 172 l0 164 -360 0 c-273 0 -360 -3 -360 -12 0 -9 -3 -9 -12
0 -9 9 -209 12 -840 12 l-828 0 0 -4500z m6920 4480 c0 -13 -11 -13 -30 0 -12
8 -11 10 8 10 12 0 22 -4 22 -10z m-254 -35 c-30 -30 -56 -33 -56 -6 0 22 13
29 53 30 l28 1 -25 -25z m-5599 -7 c-3 -8 -6 -5 -6 6 -1 11 2 17 5 13 3 -3 4
-12 1 -19z m753 2 c0 -13 -11 -13 -30 0 -12 8 -11 10 8 10 12 0 22 -4 22 -10z
m5700 -30 c0 -11 -2 -20 -5 -20 -2 0 -9 9 -15 20 -9 16 -8 20 5 20 8 0 15 -9
15 -20z m-5620 -10 c0 -5 -7 -10 -16 -10 -10 0 -14 -6 -10 -15 4 -11 -1 -15
-19 -15 -20 0 -25 5 -25 25 0 22 4 25 35 25 19 0 35 -4 35 -10z m-880 -14 c0
-11 -19 -15 -25 -6 -3 5 1 10 9 10 9 0 16 -2 16 -4z m26 -36 c16 0 16 -2 8
-24 -6 -15 -8 -15 -20 1 -7 10 -13 25 -13 33 0 10 2 11 6 3 2 -7 11 -13 19
-13z m914 -20 c8 -12 26 -20 42 -20 32 0 34 -5 11 -28 -12 -12 -18 -13 -21 -4
-2 6 -10 12 -19 12 -14 0 -25 9 -52 43 -12 15 -11 17 6 17 10 0 25 -9 33 -20z
m-365 -50 c3 -5 1 -10 -4 -10 -6 0 -11 5 -11 10 0 6 2 10 4 10 3 0 8 -4 11
-10z m-125 -110 c0 -5 -4 -10 -10 -10 -5 0 -10 5 -10 10 0 6 5 10 10 10 6 0
10 -4 10 -10z m883 -17 c-7 -3 -13 -14 -13 -25 0 -11 -10 -29 -22 -39 l-21
-19 24 -21 c16 -15 20 -23 12 -26 -7 -3 -13 -13 -13 -24 0 -23 -6 -24 -26 -5
-8 9 -14 35 -14 65 0 34 -4 51 -12 52 -10 0 -10 2 0 6 6 2 12 13 12 23 0 10 8
20 18 22 22 5 71 -4 55 -9z m-33 -262 c0 -5 -9 -11 -20 -14 -13 -3 -20 0 -20
9 0 8 9 14 20 14 11 0 20 -4 20 -9z m-830 -791 c0 -5 -5 -10 -11 -10 -5 0 -7
5 -4 10 3 6 8 10 11 10 2 0 4 -4 4 -10z m787 -780 c1 -11 -2 -20 -8 -20 -10 0
-12 23 -2 33 9 9 9 10 10 -13z m63 -200 c0 -5 -2 -10 -4 -10 -3 0 -8 5 -11 10
-3 6 -1 10 4 10 6 0 11 -4 11 -10z m-20 -20 c0 -5 -9 -10 -20 -10 -11 0 -20 5
-20 10 0 6 9 10 20 10 11 0 20 -4 20 -10z m-968 -92 c-8 -33 -22 -19 -22 25 1
40 1 41 14 18 7 -13 11 -32 8 -43z m235 -105 c-3 -10 -5 -2 -5 17 0 19 2 27 5
18 2 -10 2 -26 0 -35z m693 -34 c0 -10 -4 -19 -10 -19 -5 0 -10 12 -10 26 0
14 4 23 10 19 6 -3 10 -15 10 -26z m-679 -219 c5 -38 -12 -160 -22 -160 -5 0
-9 -9 -9 -20 0 -11 4 -20 9 -20 5 0 9 -13 9 -29 -1 -26 -3 -28 -15 -15 -11 11
-13 28 -8 67 3 28 9 115 12 192 6 129 7 135 14 75 4 -36 9 -76 10 -90z m699
-64 c0 -8 -7 -17 -16 -20 -22 -9 -23 -8 -21 14 1 23 37 28 37 6z m0 -201 c0
-85 -3 -155 -6 -155 -3 0 -13 8 -22 17 -12 12 -13 18 -4 21 6 2 12 8 12 13 0
6 -4 7 -10 4 -5 -3 -10 -1 -10 4 0 6 5 11 10 11 6 0 10 7 10 15 0 8 -5 15 -12
15 -9 0 -9 3 0 12 14 14 16 68 2 68 -5 0 -10 18 -10 40 0 22 5 40 10 40 6 0
10 11 10 25 0 14 5 25 10 25 6 0 10 -58 10 -155z m-713 -47 c-3 -7 -5 -2 -5
12 0 14 2 19 5 13 2 -7 2 -19 0 -25z m693 -253 c0 -43 -4 -75 -10 -75 -6 0
-10 32 -10 75 0 43 4 75 10 75 6 0 10 -32 10 -75z m520 -39 c0 -41 -4 -78 -10
-81 -6 -4 -10 23 -10 74 0 47 4 81 10 81 6 0 10 -31 10 -74z m100 -6 c0 -47
-4 -80 -10 -80 -6 0 -10 33 -10 80 0 47 4 80 10 80 6 0 10 -33 10 -80z m250 0
c0 -47 -4 -80 -10 -80 -6 0 -10 33 -10 80 0 47 4 80 10 80 6 0 10 -33 10 -80z
m100 -1 c0 -51 -4 -78 -10 -74 -5 3 -10 40 -10 81 0 43 4 74 10 74 6 0 10 -34
10 -81z m920 7 c0 -41 -4 -78 -10 -81 -6 -4 -10 23 -10 74 0 47 4 81 10 81 6
0 10 -31 10 -74z m280 -3 c0 -42 -3 -73 -7 -69 -10 10 -11 146 -1 146 4 0 8
-34 8 -77z m628 5 c1 -34 -2 -70 -8 -78 -7 -11 -10 9 -10 68 0 96 14 104 18
10z m102 -8 c0 -47 -4 -80 -10 -80 -6 0 -10 33 -10 80 0 47 4 80 10 80 6 0 10
-33 10 -80z m250 10 c0 -63 -2 -70 -20 -70 -18 0 -20 7 -20 64 0 60 5 72 33
75 4 1 7 -30 7 -69z m100 60 c0 -5 -7 -10 -16 -10 -8 0 -12 5 -9 10 3 6 10 10
16 10 5 0 9 -4 9 -10z m-990 -41 c0 -16 -4 -29 -10 -29 -5 0 -10 16 -10 36 0
21 4 33 10 29 6 -3 10 -19 10 -36z m-2970 -169 l-6 -175 -2 190 c-1 105 2 183
6 175 4 -8 5 -94 2 -190z m2040 145 c0 -56 -18 -61 -21 -6 -2 29 -2 55 0 57 9
8 21 -21 21 -51z m220 45 c0 -5 -4 -10 -10 -10 -5 0 -10 -18 -10 -41 0 -24 -4
-38 -10 -34 -13 8 -13 38 2 70 11 25 28 34 28 15z m979 -21 c1 -13 6 -26 11
-29 4 -3 10 -22 14 -42 6 -32 4 -37 -9 -32 -8 3 -15 14 -15 23 0 10 -3 21 -7
25 -11 11 -31 75 -25 81 11 11 27 -2 31 -26z m977 17 c8 -8 14 -25 14 -38 0
-13 5 -29 11 -35 6 -6 9 -21 6 -34 l-4 -24 -8 23 c-4 12 -11 22 -16 22 -5 0
-9 14 -9 30 0 17 -4 30 -10 30 -5 0 -10 9 -10 20 0 24 6 25 26 6z m-2306 -46
c0 -27 -4 -50 -10 -50 -11 0 -14 83 -3 93 12 12 13 8 13 -43z m2030 -46 c0
-19 -2 -34 -4 -34 -9 0 -36 63 -31 71 12 19 35 -5 35 -37z m-4134 -607 c-8
-42 -21 -61 -35 -53 -8 5 -8 13 -1 26 5 10 10 38 10 62 0 42 0 42 16 20 11
-16 14 -34 10 -55z m904 -7 c0 -5 -4 -10 -10 -10 -5 0 -10 5 -10 10 0 6 5 10
10 10 6 0 10 -4 10 -10z m2017 -66 c14 -13 14 -17 2 -24 -7 -5 -10 -12 -6 -17
5 -4 12 -1 17 7 7 11 15 7 39 -20 24 -28 33 -32 40 -21 7 11 12 10 28 -5 11
-11 23 -27 26 -37 4 -9 17 -22 29 -28 13 -5 34 -16 48 -24 14 -8 33 -12 43 -9
14 4 17 -1 17 -35 0 -23 5 -41 10 -41 6 0 10 18 10 40 0 22 3 40 6 40 11 0 34
-29 34 -42 0 -7 15 -26 34 -42 20 -16 32 -34 29 -42 -3 -9 2 -14 15 -14 11 0
22 6 24 12 3 9 9 8 21 -4 39 -39 15 -62 -105 -102 -95 -32 -98 -32 -98 0 0 24
-12 54 -31 78 -41 53 -78 94 -98 111 -13 11 -39 35 -57 53 -18 17 -41 32 -51
32 -13 0 -8 -7 15 -21 24 -16 32 -28 32 -49 0 -22 7 -31 30 -42 43 -19 37 -28
-20 -28 -27 0 -50 -4 -50 -10 0 -5 8 -10 18 -10 10 0 24 -9 32 -20 8 -11 20
-20 27 -20 7 0 13 -6 14 -12 0 -10 2 -10 6 0 9 24 39 12 56 -23 19 -39 23 -95
7 -95 -5 0 -10 -5 -10 -11 0 -5 10 -3 22 5 39 27 58 21 58 -19 0 -19 -4 -35
-9 -35 -5 0 -11 -13 -14 -29 -3 -16 -13 -36 -22 -45 -9 -9 -21 -32 -27 -52 -9
-33 -12 -36 -39 -30 -34 7 -39 -12 -10 -38 16 -15 18 -23 9 -46 -6 -20 -6 -35
2 -49 14 -27 16 -27 57 9 18 17 41 30 49 30 20 0 44 -24 44 -44 0 -9 6 -16 13
-16 8 0 11 -14 9 -45 -6 -67 4 -95 31 -95 13 0 33 9 45 20 12 11 26 20 32 20
5 0 10 5 10 10 0 6 44 10 113 10 101 0 116 -2 132 -20 10 -11 26 -22 36 -25
23 -8 26 -53 4 -62 -9 -3 -23 1 -33 8 -39 32 -64 38 -144 37 -91 0 -113 -8
-172 -62 -22 -21 -49 -36 -63 -36 -25 0 -53 -20 -53 -38 0 -6 -6 -12 -12 -15
-10 -3 -10 -11 0 -39 6 -19 12 -42 12 -51 0 -14 6 -16 26 -11 17 4 29 2 34 -6
7 -11 11 -10 24 3 9 8 16 22 16 30 0 8 10 17 23 21 16 4 19 8 9 14 -19 13 -3
42 23 42 15 0 26 -8 30 -20 4 -13 15 -20 30 -20 26 0 40 -28 30 -60 -6 -20
-35 -28 -35 -10 0 6 -9 10 -20 10 -11 0 -20 5 -20 10 0 6 -7 10 -15 10 -20 0
-18 -10 4 -37 15 -18 30 -23 65 -23 25 0 46 -4 46 -10 0 -15 29 -12 46 4 20
21 17 44 -6 51 -11 3 -20 13 -20 21 0 8 9 14 20 14 11 0 20 -4 20 -10 0 -5 7
-10 16 -10 20 0 44 -24 44 -44 0 -22 9 -20 29 6 17 20 48 18 35 -3 -3 -6 2
-16 11 -23 15 -11 14 -14 -11 -39 -15 -15 -33 -27 -40 -27 -8 0 -14 -4 -14
-10 0 -5 -7 -10 -15 -10 -8 0 -15 9 -15 20 0 22 -1 23 -24 14 -10 -4 -16 -18
-16 -35 0 -27 2 -29 28 -23 15 3 51 20 80 36 52 28 54 29 59 9 3 -13 14 -21
25 -21 18 0 19 -2 7 -17 -11 -13 -11 -17 -1 -20 18 -7 16 -63 -3 -63 -8 0 -15
-4 -15 -10 0 -5 7 -10 15 -10 8 0 15 -2 15 -5 0 -10 -65 -71 -81 -77 -11 -4
-15 -15 -12 -30 4 -22 2 -23 -59 -26 -43 -2 -58 0 -48 7 25 17 1 26 -33 13
-54 -20 -77 -16 -77 12 0 14 -3 27 -8 30 -12 7 -37 -18 -37 -38 0 -10 -7 -23
-16 -29 -21 -13 -82 16 -99 48 -7 14 -21 27 -32 31 -10 3 -18 14 -18 25 0 10
-4 19 -10 19 -5 0 -10 23 -10 50 0 28 -4 50 -10 50 -5 0 -10 17 -10 38 -1 34
-18 72 -34 72 -3 0 -6 -20 -6 -45 0 -25 4 -45 8 -45 5 0 9 -30 10 -67 1 -38 6
-69 12 -71 5 -2 10 -9 10 -16 0 -6 9 -18 20 -26 33 -24 25 -55 -17 -72 -87
-35 -102 -37 -201 -27 -131 14 -204 48 -161 75 26 15 37 68 28 129 -5 33 -11
96 -13 140 -4 91 -20 157 -42 180 -14 13 -14 18 0 46 16 32 13 54 -13 81 -31
34 -41 47 -42 60 0 7 -5 1 -10 -14 -9 -23 -14 -26 -40 -21 -29 5 -29 5 -29
-41 0 -40 -3 -46 -25 -52 -13 -3 -30 -4 -37 -1 -7 3 -1 6 15 6 21 1 27 6 27
22 0 17 -4 20 -22 15 -13 -4 -35 -9 -50 -12 -16 -4 -28 -9 -28 -13 0 -3 -45
-4 -99 -3 -58 2 -107 -1 -118 -7 -16 -9 -14 -11 15 -17 49 -10 42 -37 -13 -53
-25 -7 -49 -10 -53 -6 -4 4 -1 10 6 12 21 8 13 23 -13 23 -29 0 -51 33 -32 48
15 12 102 42 122 42 8 0 15 5 15 10 0 6 14 10 30 10 17 0 30 4 30 8 0 18 -53
54 -72 49 -19 -5 -25 1 -30 38 -6 38 -78 89 -78 55 0 -5 -7 -10 -15 -10 -10 0
-15 -10 -15 -30 0 -23 -4 -30 -20 -30 -13 0 -20 -7 -20 -20 0 -11 -6 -20 -14
-20 -15 0 -46 -52 -46 -77 0 -7 -4 -13 -10 -13 -5 0 -10 -11 -10 -25 0 -14 -4
-25 -10 -25 -5 0 -10 -25 -10 -55 0 -30 -4 -55 -10 -55 -5 0 -10 -14 -10 -30
0 -35 -27 -53 -42 -27 -5 10 -18 17 -28 17 -11 0 -20 7 -20 15 0 9 -16 31 -35
51 -19 19 -35 39 -35 44 0 6 -5 10 -10 10 -6 0 -21 10 -34 23 -13 12 -33 29
-46 37 -12 8 -29 22 -38 30 -8 8 -25 13 -37 12 -15 -2 -25 5 -33 23 -15 33
-15 62 -1 67 9 3 9 9 0 25 -6 12 -11 42 -11 67 0 53 17 60 60 26 30 -24 40
-25 40 -5 0 8 5 15 10 15 6 0 10 -9 10 -19 0 -11 5 -23 10 -26 6 -3 10 -15 10
-25 0 -10 6 -21 13 -24 10 -5 10 -7 0 -12 -7 -3 -13 -14 -13 -25 0 -10 -4 -19
-10 -19 -5 0 -10 -7 -10 -15 0 -8 5 -15 10 -15 6 0 10 -11 10 -24 0 -22 14
-38 89 -98 21 -18 61 -25 61 -10 0 8 48 32 63 32 18 0 36 35 37 67 0 17 5 33
12 35 6 2 11 18 10 36 0 26 3 32 19 32 20 0 24 28 5 42 -6 4 -5 12 2 20 7 9 8
19 2 28 -15 23 -12 30 10 30 13 0 20 7 20 19 0 11 -9 23 -20 26 -20 6 -28 35
-10 35 6 0 10 7 10 15 0 8 -9 15 -20 15 -15 0 -20 -7 -20 -25 0 -14 -4 -25
-10 -25 -5 0 -10 16 -10 35 0 19 -4 35 -10 35 -5 0 -10 14 -10 30 0 17 -4 30
-10 30 -5 0 -10 9 -10 20 0 11 -4 20 -10 20 -5 0 -10 6 -10 13 0 18 -24 67
-32 67 -5 0 -8 7 -8 15 0 23 12 18 49 -20 19 -19 38 -35 42 -35 5 0 9 -8 9
-18 0 -10 9 -24 20 -32 11 -8 20 -22 20 -32 0 -20 19 -59 35 -70 19 -14 24 -8
20 25 -3 17 -2 25 1 17 4 -8 15 -23 25 -34 18 -19 19 -19 25 0 4 10 12 22 18
27 7 4 2 9 -11 13 -13 4 -23 14 -23 24 0 22 -45 70 -82 89 -16 8 -28 18 -28
23 0 4 -9 8 -20 8 -11 0 -20 4 -20 9 0 5 -9 12 -19 16 -41 13 17 65 72 65 12
0 28 5 35 12 9 9 18 8 39 -3 36 -18 63 -46 63 -63 0 -8 8 -13 17 -12 14 1 20
-13 30 -67 7 -37 19 -74 27 -82 17 -17 46 -20 46 -5 0 6 -4 10 -10 10 -5 0
-10 11 -10 25 0 14 -4 25 -10 25 -5 0 -10 7 -10 15 0 8 9 15 20 15 15 0 20 -7
20 -26 0 -14 7 -32 15 -41 17 -17 17 -17 33 12 6 11 12 14 12 8 0 -7 11 -13
25 -13 14 0 25 -4 25 -10 0 -5 6 -10 14 -10 8 0 18 -9 21 -20 3 -11 11 -20 16
-20 5 0 9 -7 9 -15 0 -11 -7 -14 -24 -9 -13 3 -27 1 -30 -5 -4 -6 -27 -11 -52
-11 l-44 0 0 -45 c0 -25 5 -45 10 -45 6 0 10 -9 10 -19 0 -11 6 -21 13 -24 6
-2 8 -8 4 -13 -4 -5 -11 -4 -15 2 -4 6 -20 14 -37 19 -16 4 -24 10 -17 12 17
6 15 31 -3 49 -17 17 -28 10 -53 -34 -11 -20 -9 -25 12 -47 14 -14 32 -25 40
-25 8 0 17 -6 20 -12 5 -10 7 -10 12 0 7 14 64 17 64 2 0 -5 14 -10 30 -10 23
0 30 4 30 20 0 11 5 20 11 20 7 0 9 -11 5 -31 -5 -26 -1 -36 25 -60 45 -42 63
-39 54 9 -4 20 -11 39 -16 40 -5 2 -9 16 -9 30 0 27 27 53 61 59 15 2 62 -32
116 -85 22 -22 23 -22 23 -2 0 11 -4 20 -10 20 -5 0 -10 9 -10 20 0 11 -4 20
-10 20 -5 0 -10 9 -10 20 0 11 -4 20 -10 20 -5 0 -10 9 -10 20 0 11 -4 20 -10
20 -5 0 -10 5 -10 10 0 17 -47 60 -65 60 -8 0 -15 -4 -15 -10 0 -5 -16 -10
-35 -10 -19 0 -35 5 -35 11 0 7 9 9 23 6 25 -7 61 11 40 20 -20 8 -15 23 7 23
11 0 20 -4 20 -10 0 -5 9 -10 20 -10 11 0 20 5 20 10 0 6 -9 10 -20 10 -11 0
-20 5 -20 10 0 6 -6 10 -14 10 -8 0 -17 8 -20 18 -3 9 -18 26 -33 37 -74 54
-83 67 -90 133 -5 53 -4 62 11 62 9 0 16 -8 16 -18 0 -9 12 -35 26 -56 23 -33
29 -37 38 -24 10 13 15 12 41 -4 17 -10 39 -18 50 -17 19 0 18 1 -2 11 -16 8
-23 20 -23 39 0 18 -6 30 -19 34 -10 3 -29 14 -41 25 -20 17 -21 21 -7 35 9 8
23 15 31 15 12 0 16 11 16 50 0 28 -4 50 -10 50 -5 0 -10 7 -10 15 0 8 -11 17
-25 21 -14 3 -25 12 -25 20 0 8 -5 14 -12 14 -6 0 -9 3 -5 6 10 10 47 -7 47
-22 0 -20 20 -17 20 4 1 16 1 16 14 -1 8 -10 20 -15 30 -11 16 6 76 -13 76
-25 0 -3 4 -13 10 -21 7 -12 12 -12 29 4 17 15 23 16 36 6 13 -11 13 -15 0
-33 -26 -38 -19 -57 20 -57 19 0 35 -2 35 -4 0 -2 3 -11 6 -20 4 -11 1 -16
-10 -16 -9 0 -16 -4 -16 -10 0 -5 -8 -10 -18 -10 -26 0 -72 -23 -72 -36 0 -17
31 -26 46 -13 7 6 36 9 63 8 54 -3 80 8 43 18 -12 3 -22 12 -22 19 0 11 7 13
27 8 36 -9 53 -27 53 -54 0 -12 5 -18 10 -15 18 11 11 57 -12 77 -18 15 -20
21 -9 28 12 7 12 11 -2 24 -8 9 -23 16 -31 16 -9 0 -16 5 -16 10 0 6 9 10 20
10 21 0 29 29 8 31 -10 0 -10 2 0 6 6 2 12 15 12 28 0 17 -7 24 -28 28 -39 8
-72 40 -72 71 0 14 5 26 10 26 6 0 10 7 10 16 0 8 6 22 14 30 8 8 22 14 30 14
9 0 16 5 16 10 0 14 9 12 27 -6z m613 -154 c0 -13 -7 -20 -20 -20 -13 0 -20
-7 -20 -19 0 -11 -6 -21 -12 -24 -18 -6 -9 -13 27 -21 20 -4 25 -4 16 3 -12 8
-12 12 2 25 20 20 47 21 47 0 0 -8 6 -22 14 -30 8 -8 22 -14 30 -14 20 0 21
-36 1 -44 -8 -3 -20 -17 -25 -31 -10 -27 -40 -34 -40 -9 0 18 23 44 39 44 6 0
11 5 11 10 0 6 -11 10 -25 10 -14 0 -25 -4 -25 -10 0 -5 -9 -10 -20 -10 -17 0
-20 -7 -20 -40 0 -22 -4 -40 -10 -40 -5 0 -10 23 -10 50 0 46 -12 67 -23 38
-3 -8 -14 -2 -31 17 -20 23 -26 26 -26 13 0 -10 -4 -18 -10 -18 -5 0 -10 9
-10 20 0 13 7 20 20 20 13 0 20 7 20 20 0 23 -29 27 -48 8 -9 -9 -12 -8 -12 8
1 28 26 58 45 51 8 -4 25 -2 37 3 13 5 35 9 51 9 21 1 27 -4 27 -19z m-3343
-123 c-2 -23 -3 -1 -3 48 0 50 1 68 3 42 2 -26 2 -67 0 -90z m2331 103 c42
-35 33 -120 -12 -120 -9 0 -16 -4 -16 -10 0 -5 -11 -10 -25 -10 -38 0 -75 -42
-75 -84 0 -19 -4 -38 -10 -41 -6 -4 -10 17 -10 55 0 51 -4 65 -25 85 -13 14
-31 25 -40 25 -8 0 -15 4 -15 8 0 36 143 87 180 64 25 -15 33 -3 15 25 -19 29
-1 31 33 3z m779 -42 c-3 -8 -6 -5 -6 6 -1 11 2 17 5 13 3 -3 4 -12 1 -19z
m-3187 -34 c0 -8 -5 -12 -10 -9 -6 4 -8 11 -5 16 9 14 15 11 15 -7z m2173 -71
c3 -16 1 -29 -4 -31 -5 -2 -9 -19 -9 -37 0 -49 -15 -51 -29 -5 -6 22 -16 40
-21 40 -14 0 -12 28 3 45 21 25 54 18 60 -12z m1420 -27 c20 -18 37 -43 37
-54 0 -11 6 -23 13 -25 6 -3 3 -6 -9 -6 -22 -1 -44 -37 -44 -71 0 -10 -6 -21
-12 -23 -10 -4 -10 -7 0 -15 16 -11 5 -42 -14 -42 -10 0 -13 -7 -8 -25 4 -14
1 -32 -6 -40 -10 -12 -9 -16 4 -21 9 -3 16 -14 16 -23 0 -10 6 -5 15 12 8 15
12 34 8 42 -3 8 0 15 6 15 6 0 11 -5 11 -12 0 -7 8 -2 18 11 9 13 26 33 37 44
11 12 27 35 35 52 21 41 50 70 50 50 0 -8 -4 -15 -10 -15 -5 0 -10 -20 -10
-45 0 -25 -4 -45 -10 -45 -6 0 -10 -30 -10 -70 l0 -70 -40 0 c-38 0 -54 13
-27 23 6 3 7 6 1 6 -6 1 -21 -10 -34 -24 -13 -14 -19 -25 -12 -25 6 0 12 -12
14 -27 3 -26 6 -28 43 -25 l40 3 -23 -19 c-27 -24 -28 -42 -2 -42 13 0 20 -7
20 -20 0 -11 5 -20 10 -20 6 0 10 -13 10 -29 0 -17 5 -33 10 -36 10 -6 14 -55
4 -55 -11 0 -34 29 -34 44 0 9 -4 16 -10 16 -5 0 -10 7 -10 16 0 11 -6 14 -20
9 -17 -5 -20 -2 -20 24 0 24 -4 31 -20 31 -13 0 -20 7 -20 20 0 11 5 20 10 20
6 0 10 5 10 11 0 6 -9 9 -20 6 -12 -3 -23 1 -29 10 -6 11 -10 12 -15 4 -7 -11
-66 -16 -66 -6 0 3 7 17 16 30 15 23 15 25 0 25 -9 0 -16 -4 -16 -10 0 -5 -11
-10 -25 -10 -22 0 -24 -2 -15 -26 13 -33 13 -34 -5 -34 -8 0 -15 -4 -15 -10 0
-6 -31 -10 -73 -10 -61 0 -75 -3 -87 -20 -8 -11 -20 -20 -27 -20 -7 0 -13 -4
-13 -10 0 -5 -16 -10 -35 -10 -34 0 -35 1 -35 40 0 22 4 40 9 40 5 0 11 13 14
29 10 48 65 74 152 74 93 -1 106 7 72 41 -14 14 -31 26 -37 26 -5 0 -10 5 -10
10 0 6 -18 10 -39 10 -22 0 -43 5 -46 10 -3 6 -19 10 -36 10 -16 0 -29 5 -29
10 0 6 9 10 20 10 11 0 20 5 20 10 0 6 18 10 41 10 36 0 40 -2 34 -20 -5 -16
-2 -20 16 -20 12 0 20 3 16 6 -9 9 19 34 37 34 9 0 16 5 16 10 0 6 7 10 16 10
36 0 113 71 114 105 0 11 7 29 15 39 20 26 19 66 0 66 -8 0 -15 9 -15 20 0 29
21 25 63 -14z m-70 -39 c3 -8 1 -20 -4 -28 -6 -10 -9 -7 -9 14 0 29 5 35 13
14z m517 -15 c0 -15 -5 -33 -12 -40 -9 -9 -9 -12 0 -12 7 0 12 -10 12 -22 0
-35 -24 -128 -32 -128 -5 0 -8 -9 -8 -20 0 -11 -4 -20 -10 -20 -5 0 -10 5 -10
10 0 6 -4 10 -10 10 -14 0 -12 -37 3 -44 10 -5 10 -7 0 -12 -15 -7 -17 -44 -3
-44 6 0 10 5 10 10 0 6 5 10 10 10 6 0 10 -9 10 -20 0 -11 -4 -20 -10 -20 -5
0 -10 -9 -10 -20 0 -11 -4 -20 -10 -20 -5 0 -10 -6 -10 -13 0 -7 -21 -23 -47
-35 -45 -21 -49 -21 -64 -4 -21 22 -49 95 -49 127 0 13 9 39 20 57 11 18 20
39 20 46 0 16 24 42 40 42 17 0 40 -26 40 -44 0 -25 -30 -19 -31 7 -1 18 -2
19 -6 3 -3 -10 0 -23 6 -29 6 -6 11 -21 11 -34 0 -21 2 -22 20 -11 14 9 20 24
20 47 0 22 7 40 21 52 16 14 18 22 10 36 -10 17 -10 17 -11 0 0 -22 -28 -52
-38 -42 -4 4 -1 10 6 12 6 3 12 18 12 34 0 16 5 29 10 29 6 0 10 16 10 35 0
24 9 45 27 65 33 38 53 39 53 2z m-3943 -49 c-2 -16 -4 -5 -4 22 0 28 2 40 4
28 2 -13 2 -35 0 -50z m3243 38 c0 -11 -9 -23 -20 -26 -11 -3 -20 -12 -20 -20
0 -8 -9 -17 -21 -20 -11 -4 -18 -13 -15 -20 5 -14 -55 -85 -73 -85 -6 0 -11
-4 -11 -10 0 -5 -7 -10 -15 -10 -8 0 -15 -4 -15 -10 0 -5 -9 -10 -20 -10 -17
0 -20 7 -20 45 0 25 -5 45 -10 45 -14 0 30 44 60 60 18 10 24 9 31 -1 5 -8 9
-18 9 -23 0 -4 24 17 54 48 56 58 86 70 86 37z m160 -37 c0 -8 -5 -12 -10 -9
-6 4 -8 11 -5 16 9 14 15 11 15 -7z m-2710 -124 c0 -5 -4 -10 -10 -10 -5 0
-10 5 -10 10 0 6 5 10 10 10 6 0 10 -4 10 -10z m876 -4 c8 -8 14 -22 14 -30 0
-9 5 -16 10 -16 6 0 10 5 10 10 0 6 5 10 10 10 6 0 10 -9 10 -19 0 -11 4 -21
9 -23 9 -3 14 -48 12 -92 -1 -16 -4 -17 -13 -8 -18 18 -28 15 -28 -8 0 -11 -3
-20 -7 -20 -22 1 -35 21 -35 54 0 20 -4 36 -9 36 -5 0 -9 9 -9 20 0 11 5 20
10 20 6 0 10 14 10 30 0 17 -4 30 -10 30 -5 0 -10 5 -10 10 0 14 9 12 26 -4z
m231 -142 c5 -14 -14 -71 -21 -63 -2 2 -6 21 -9 42 -4 28 -2 37 9 37 8 0 17
-7 21 -16z m-277 -64 c0 -5 -4 -10 -10 -10 -5 0 -10 5 -10 10 0 6 5 10 10 10
6 0 10 -4 10 -10z m118 -50 c13 0 20 -4 17 -10 -12 -19 -52 -11 -58 11 -4 17
-3 19 6 10 6 -6 22 -11 35 -11z m-242 -24 c3 -14 3 -30 -1 -36 -4 -6 -11 -61
-16 -122 -8 -100 -7 -115 11 -155 11 -25 20 -51 20 -59 0 -7 14 -36 32 -64 34
-55 103 -100 152 -100 13 0 26 -5 28 -12 3 -7 28 -11 71 -10 63 1 69 3 102 37
39 41 46 75 15 75 -11 0 -20 5 -20 11 0 7 7 8 18 4 9 -4 31 -13 47 -19 17 -6
37 -19 46 -28 9 -10 22 -18 28 -18 13 0 41 -24 41 -34 0 -3 -9 -6 -20 -6 -11
0 -20 5 -20 10 0 6 -9 10 -20 10 -21 0 -28 -20 -7 -21 6 0 2 -5 -10 -11 -13
-6 -23 -19 -23 -30 0 -20 -16 -24 -23 -5 -4 9 -8 8 -16 -3 -10 -13 -12 -13
-20 0 -6 8 -14 11 -18 6 -4 -5 -2 -11 5 -13 7 -3 12 -21 12 -43 0 -21 6 -41
13 -44 10 -5 10 -7 0 -12 -26 -12 -13 -41 27 -59 22 -10 40 -25 40 -33 0 -8
10 -23 22 -33 25 -22 16 -39 -12 -21 -11 7 -39 12 -63 12 -24 0 -62 9 -85 20
-22 11 -48 20 -56 20 -21 0 -29 17 -11 24 8 3 15 11 15 19 0 13 -7 13 -155 -8
l-50 -6 24 20 c13 12 32 21 43 21 11 0 18 5 15 13 -2 7 -17 11 -38 9 -42 -5
-52 -10 -45 -28 4 -10 -6 -13 -42 -11 -66 3 -98 45 -76 101 7 17 34 22 34 6 0
-6 38 -10 95 -10 57 0 95 -4 95 -10 0 -5 14 -10 30 -10 17 0 30 5 30 10 0 6 9
10 20 10 13 0 20 7 20 20 0 11 -4 20 -10 20 -5 0 -10 -4 -10 -10 0 -6 -27 -10
-60 -10 -33 0 -60 4 -60 10 0 6 -16 10 -35 10 -22 0 -44 8 -57 20 -12 11 -27
20 -33 20 -18 0 -86 113 -75 124 15 15 12 46 -5 46 -8 0 -17 12 -20 28 -14 64
-30 112 -37 112 -4 0 -8 9 -8 20 0 11 5 20 10 20 6 0 10 7 10 15 0 8 9 15 20
15 19 0 20 7 20 100 0 93 1 100 20 100 12 0 22 -9 26 -24z m2484 18 c0 -3 -7
-12 -15 -21 -20 -19 -32 -10 -14 11 14 15 29 21 29 10z m-3883 -26 c-3 -8 -6
-5 -6 6 -1 11 2 17 5 13 3 -3 4 -12 1 -19z m4033 -20 c0 -5 -9 -8 -20 -8 -11
0 -20 -4 -20 -10 0 -5 -6 -10 -13 -10 -28 0 -38 -47 -25 -116 9 -51 9 -67 0
-73 -9 -5 -11 -29 -9 -75 l4 -68 -45 -29 c-25 -16 -52 -29 -59 -29 -27 0 -92
-40 -98 -60 -7 -22 17 -54 31 -41 15 13 86 30 154 36 130 13 127 12 144 50 3
6 9 4 15 -5 7 -10 6 -19 -5 -31 -7 -8 -14 -19 -14 -23 0 -4 -11 -18 -25 -31
-22 -22 -32 -25 -105 -25 -47 0 -80 -4 -80 -10 0 -5 18 -10 40 -10 44 0 50 -8
20 -30 -28 -20 -25 -30 10 -30 17 0 30 5 30 10 0 6 9 10 20 10 11 0 20 5 20
10 0 6 10 10 23 10 12 0 29 9 37 20 23 31 50 26 50 -10 0 -16 -4 -30 -10 -30
-5 0 -10 -7 -10 -15 0 -9 -8 -19 -17 -22 -10 -4 -21 -11 -25 -17 -9 -14 -81
-13 -86 2 -5 17 -70 15 -88 -2 -20 -20 -18 -23 19 -31 78 -16 116 -16 161 -1
59 20 56 21 56 -12 0 -20 -7 -32 -22 -39 -38 -18 -103 -33 -141 -33 -20 0 -39
-4 -42 -10 -3 -6 -52 -10 -111 -10 -70 0 -104 -4 -104 -11 0 -8 -19 -10 -58
-7 -63 4 -82 -5 -82 -42 0 -11 -4 -20 -9 -20 -5 0 -13 -9 -16 -20 -4 -13 -15
-20 -31 -20 -13 0 -24 -4 -24 -10 0 -5 13 -10 29 -10 33 0 38 -12 32 -73 -3
-32 -6 -38 -22 -34 -14 4 -19 0 -19 -15 0 -16 3 -18 13 -9 16 13 27 5 27 -21
0 -13 -8 -18 -30 -18 -16 0 -30 -4 -30 -10 0 -5 -9 -10 -20 -10 -11 0 -20 5
-20 10 0 6 -5 10 -10 10 -6 0 -20 9 -32 20 -17 16 -18 20 -6 20 19 0 30 34 15
49 -7 7 -8 11 -1 11 6 0 21 9 33 19 l22 19 -26 20 c-33 26 -32 32 5 32 17 0
30 2 30 4 0 2 3 11 6 20 4 11 1 16 -10 16 -9 0 -16 5 -16 10 0 6 9 10 20 10
28 0 97 69 80 80 -17 11 26 54 63 64 20 5 29 15 37 48 7 23 9 56 6 73 -8 42 1
65 26 65 14 0 18 -5 14 -16 -3 -8 0 -22 8 -30 13 -12 15 -11 21 6 3 11 13 20
21 20 8 0 14 5 14 10 0 6 -6 10 -14 10 -9 0 -16 12 -18 33 -3 37 -35 49 -61
22 -14 -14 -17 -14 -25 1 -6 11 -11 13 -16 5 -4 -6 -22 -10 -39 -10 -24 1 -26
3 -9 6 30 6 28 20 -8 53 -29 27 -40 60 -20 60 6 0 10 -4 10 -8 0 -4 9 -8 20
-9 11 -1 20 3 20 9 0 5 7 7 15 4 8 -3 22 -9 30 -12 10 -4 15 0 15 14 0 11 -6
23 -12 25 -9 4 -10 8 -2 14 6 4 10 21 10 36 -1 16 4 36 11 45 11 16 12 16 13
0 0 -19 40 -26 40 -8 0 6 10 10 23 10 21 0 87 60 87 80 0 6 5 10 10 10 6 0 10
7 10 15 0 18 -8 18 -40 0 -14 -8 -28 -14 -32 -15 -14 0 -9 31 7 46 8 9 15 19
15 24 0 5 -7 7 -15 4 -18 -7 -19 9 -3 39 24 45 59 62 72 35 5 -10 7 -10 12 0
4 8 30 12 80 12 52 0 74 4 74 13 0 13 20 -12 20 -25z m120 13 c0 -11 -5 -21
-12 -23 -6 -2 -11 -20 -10 -39 1 -25 -5 -39 -20 -50 -11 -8 -27 -20 -34 -27
-20 -19 -40 -9 -47 24 -6 35 8 74 28 74 19 0 19 7 0 26 -26 26 -17 34 40 34
48 0 55 -3 55 -19z m-4153 -83 c-3 -7 -5 -2 -5 12 0 14 2 19 5 13 2 -7 2 -19
0 -25z m2047 -3 c-7 -16 -24 -21 -24 -6 0 8 7 13 27 20 1 1 0 -6 -3 -14z
m-2060 -74 c-16 -15 -16 -15 -9 4 4 11 10 29 13 40 6 18 7 18 10 -4 2 -13 -4
-31 -14 -40z m1810 50 c3 -5 -1 -11 -9 -15 -9 -3 -15 0 -15 9 0 16 16 20 24 6z
m-344 -44 c0 -20 0 -20 -15 -1 -19 25 -19 35 0 28 8 -4 15 -16 15 -27z m270 4
c60 -36 59 -55 -2 -59 -29 -2 -48 1 -48 7 0 6 -7 11 -15 11 -18 0 -20 35 -2
55 15 18 14 18 67 -14z m1627 12 c71 -30 63 -48 -12 -29 -16 4 -51 12 -78 19
-30 7 -42 14 -35 19 22 13 81 9 125 -9z m663 -41 c0 -23 -4 -32 -12 -30 -16 6
-22 32 -13 66 5 20 8 23 16 11 5 -7 9 -29 9 -47z m120 8 c0 -16 -4 -30 -10
-30 -5 0 -10 -7 -10 -15 0 -8 -4 -15 -10 -15 -5 0 -10 -11 -10 -25 0 -28 -20
-75 -32 -75 -4 0 -8 -7 -8 -16 0 -18 -17 -37 -42 -47 -23 -8 -23 -10 12 54 16
30 30 62 30 72 0 9 5 17 10 17 6 0 10 15 10 33 0 32 29 77 50 77 6 0 10 -13
10 -30z m-460 -45 c0 -10 -7 -15 -17 -13 -9 2 -16 6 -15 11 1 4 2 16 2 28 0
18 2 19 15 5 8 -8 15 -22 15 -31z m-2162 18 c15 -10 34 -25 43 -35 9 -10 22
-18 29 -18 6 0 25 -13 40 -30 16 -17 38 -30 52 -30 29 0 51 -33 55 -82 2 -35
0 -38 -23 -38 -29 0 -124 39 -124 51 0 4 -9 11 -20 14 -33 10 -90 74 -97 106
-3 16 -9 32 -13 34 -13 8 1 45 17 45 7 0 26 -8 41 -17z m1033 -41 c8 -17 14
-72 16 -142 2 -63 4 -148 5 -187 2 -40 0 -73 -4 -73 -4 0 -8 -15 -10 -32 -3
-28 -10 -37 -56 -60 -29 -15 -60 -34 -68 -43 -9 -8 -25 -15 -36 -15 -16 0 -18
-3 -9 -13 15 -19 4 -27 -35 -27 -25 0 -38 7 -50 25 -9 13 -47 39 -85 56 -38
18 -69 36 -69 40 0 5 -9 9 -20 9 -11 0 -20 3 -20 8 0 4 -13 13 -30 20 -44 20
-38 38 10 34 25 -3 40 0 40 7 0 6 -9 11 -20 11 -11 0 -20 5 -20 10 0 6 -9 10
-20 10 -11 0 -20 5 -20 10 0 6 13 10 29 10 16 0 31 5 33 10 2 6 28 11 58 11
30 1 58 3 61 5 9 5 -23 74 -33 74 -13 0 -9 47 6 59 7 6 21 9 30 5 17 -6 21
-19 9 -27 -5 -2 -1 -2 7 0 8 3 30 7 48 10 17 3 32 9 32 14 0 4 6 10 13 12 6 2
-1 3 -17 1 -28 -4 -56 10 -56 27 0 5 7 9 15 9 8 0 19 17 26 43 6 23 14 36 16
30 3 -8 22 -13 44 -13 22 0 38 -4 35 -8 -3 -5 3 -9 12 -9 21 0 51 33 59 65 8
33 33 61 48 56 7 -3 18 -17 26 -32z m839 -42 c0 -5 9 -10 20 -10 11 0 20 -4
20 -10 0 -15 -49 -12 -66 4 -19 20 -18 26 6 26 11 0 20 -4 20 -10z m-2670 -90
c0 -11 -4 -20 -10 -20 -5 0 -10 9 -10 20 0 11 5 20 10 20 6 0 10 -9 10 -20z
m1317 -36 c-3 -3 -12 -4 -19 -1 -8 3 -5 6 6 6 11 1 17 -2 13 -5z m99 -48 c18
-19 18 -36 -1 -36 -25 0 -44 22 -31 37 14 16 15 16 32 -1z m-421 -16 c-3 -5
-12 -7 -20 -3 -21 7 -19 13 6 13 11 0 18 -4 14 -10z m455 -60 c0 -13 -11 -13
-30 0 -12 8 -11 10 8 10 12 0 22 -4 22 -10z m3887 -172 c-2 -13 -4 -5 -4 17
-1 22 1 32 4 23 2 -10 2 -28 0 -40z m-3837 -88 c8 -11 20 -20 27 -20 7 0 13
-4 13 -10 0 -5 9 -10 20 -10 13 0 20 -7 20 -20 0 -16 -7 -20 -32 -20 -17 0
-29 3 -25 6 6 6 4 10 -38 57 -28 32 -30 37 -12 37 7 0 19 -9 27 -20z m915 -20
c24 0 24 -28 -1 -46 -34 -26 -30 -34 16 -34 22 0 40 -4 40 -10 0 -5 -9 -10
-20 -10 -29 0 -25 -17 8 -28 23 -9 24 -11 6 -11 -29 -1 -40 -32 -18 -48 15
-11 14 -13 -10 -19 -14 -3 -32 -4 -40 -1 -26 10 -25 -5 2 -30 l27 -25 -30 8
c-17 4 -38 11 -47 15 -9 5 -25 9 -35 9 -16 -1 -16 -2 2 -12 23 -13 45 -34 45
-42 0 -3 -9 -6 -20 -6 -11 0 -20 5 -20 10 0 6 -9 10 -20 10 -11 0 -20 5 -20
10 0 6 -9 10 -20 10 -22 0 -27 -15 -7 -24 6 -3 -1 -3 -17 1 -25 5 -28 4 -21
-16 10 -33 -38 -28 -77 9 -32 31 -47 27 -48 -12 0 -10 -4 -18 -10 -18 -5 0
-10 9 -10 20 0 13 -7 20 -20 20 -11 0 -20 -4 -20 -10 0 -5 -9 -10 -20 -10 -11
0 -20 5 -20 10 0 6 5 10 10 10 6 0 10 7 10 15 0 8 6 15 13 15 6 1 0 8 -15 16
-25 13 -31 13 -59 -1 -17 -9 -33 -14 -37 -11 -3 3 0 6 6 6 7 0 12 4 12 9 0 6
-32 10 -71 9 -45 0 -67 -4 -61 -10 24 -24 0 -44 -64 -56 -71 -13 -104 -6 -58
13 l29 11 -50 19 c-28 11 -52 22 -55 26 -3 4 -16 9 -30 12 -14 2 1 5 32 6 59
1 87 18 47 28 -22 6 -22 7 -3 14 10 4 36 8 57 8 35 1 50 15 25 23 -17 6 14 38
36 38 9 0 16 8 16 20 0 16 7 20 34 20 19 0 37 -6 39 -12 3 -7 6 -3 6 10 1 18
7 22 30 22 17 0 33 -4 36 -10 3 -5 13 -10 21 -10 20 0 44 -24 44 -44 0 -12 10
-16 40 -16 22 0 40 -4 40 -10 0 -18 35 -11 50 10 8 11 22 20 32 20 10 0 18 5
18 10 0 6 7 10 15 10 8 0 15 3 15 8 0 8 49 32 67 32 7 0 13 5 13 10 0 15 90
13 91 -2 0 -7 5 -2 12 11 6 13 13 18 15 12 2 -6 10 -11 17 -11z m-635 -10 c0
-5 -2 -10 -4 -10 -3 0 -8 5 -11 10 -3 6 -1 10 4 10 6 0 11 -4 11 -10z m-428
-22 c-18 -18 -15 -28 8 -28 11 0 20 -4 20 -10 0 -5 -7 -10 -15 -10 -8 0 -15
-8 -15 -18 0 -9 -11 -26 -25 -36 -19 -14 -22 -22 -15 -36 14 -25 1 -82 -17
-78 -8 2 -14 6 -14 11 1 4 1 50 1 102 0 95 0 95 25 95 14 0 25 5 25 10 0 6 8
10 17 10 13 0 14 -3 5 -12z m1353 -12 c-8 -13 -13 -31 -9 -40 5 -13 -1 -16
-31 -16 -29 0 -36 3 -32 15 4 8 2 17 -3 20 -15 9 -12 25 5 25 8 0 15 5 15 10
0 6 16 10 35 10 35 0 35 0 20 -24z m342 -80 c121 0 140 -2 154 -18 21 -23 25
-23 32 2 8 29 41 25 58 -7 8 -16 18 -31 23 -34 5 -4 8 -20 8 -35 0 -16 4 -34
8 -39 5 -6 5 -35 0 -65 -4 -30 -8 -45 -9 -32 -1 15 -7 22 -20 22 -11 0 -23 5
-26 10 -10 17 -55 11 -62 -7 -4 -10 -15 -25 -25 -34 -10 -9 -18 -24 -18 -33 0
-9 -4 -16 -10 -16 -5 0 -10 -11 -10 -25 0 -14 -4 -25 -10 -25 -6 0 -10 -27
-10 -60 0 -33 4 -60 10 -60 6 0 10 -22 10 -50 0 -27 5 -50 10 -50 6 0 10 -20
10 -44 0 -25 5 -48 10 -51 6 -3 10 -17 10 -30 0 -13 5 -27 10 -30 6 -3 10 -17
10 -31 0 -13 16 -73 35 -132 20 -59 45 -143 56 -187 11 -44 27 -100 36 -125
42 -124 57 -308 32 -404 -43 -164 -87 -253 -163 -329 -20 -20 -36 -43 -36 -52
0 -8 -7 -15 -16 -15 -9 0 -24 -8 -33 -18 -9 -10 -32 -29 -51 -42 -19 -13 -37
-27 -40 -30 -18 -19 -81 -60 -94 -60 -9 0 -16 -3 -16 -8 0 -9 -72 -32 -99 -32
-11 0 -23 -4 -26 -10 -3 -5 -28 -10 -56 -10 -27 0 -49 -5 -49 -10 0 -7 -30
-10 -82 -8 l-83 3 -31 65 c-23 47 -29 71 -23 86 4 12 5 31 2 43 -8 32 16 46
87 48 36 1 66 7 68 13 2 5 19 10 38 10 19 0 34 5 34 10 0 6 9 10 20 10 11 0
20 5 20 10 0 6 6 10 13 10 7 0 32 9 55 20 22 11 49 20 59 20 22 0 59 29 126
97 95 97 117 122 117 138 0 8 5 15 10 15 6 0 10 9 10 20 0 11 5 20 10 20 6 0
10 16 10 35 0 19 5 35 10 35 6 0 10 48 10 125 0 77 -4 125 -10 125 -5 0 -10
18 -10 40 0 22 -4 40 -10 40 -5 0 -10 14 -10 30 0 17 -4 30 -10 30 -5 0 -10
11 -10 25 0 13 -5 37 -11 52 -6 15 -15 37 -19 48 -4 11 -15 38 -24 60 -9 22
-23 69 -30 105 -8 36 -21 85 -29 110 -8 25 -20 70 -27 100 -6 30 -16 69 -21
86 -5 17 -9 92 -9 167 0 126 -1 137 -18 137 -24 0 -42 40 -42 90 0 22 -4 40
-10 40 -5 0 -10 16 -10 35 0 19 5 35 10 35 6 0 10 8 10 18 0 25 12 35 21 20 6
-10 45 -13 146 -12z m-2228 -14 c9 -11 28 -22 43 -26 22 -5 32 -1 49 18 23 27
26 27 179 11 135 -13 169 -33 158 -92 -3 -20 -46 -26 -240 -39 -54 -3 -98 -10
-98 -15 0 -5 16 -9 36 -9 38 0 64 -18 64 -44 0 -11 9 -16 30 -16 17 0 30 5 30
10 0 6 16 10 35 10 19 0 35 -4 35 -10 0 -5 9 -10 20 -10 16 0 20 -7 20 -33 0
-18 5 -38 12 -45 9 -9 9 -17 0 -34 -6 -13 -13 -48 -17 -78 -14 -124 -17 -140
-26 -140 -5 0 -9 -16 -9 -35 0 -19 -4 -35 -10 -35 -5 0 -10 -14 -10 -30 0 -17
-4 -39 -10 -50 -5 -11 -14 -29 -20 -40 -5 -11 -10 -29 -10 -40 0 -11 -4 -20
-10 -20 -5 0 -10 -8 -10 -19 0 -19 -32 -108 -56 -153 -8 -14 -14 -33 -14 -42
0 -9 -5 -16 -11 -16 -5 0 -8 -4 -5 -8 3 -5 -11 -39 -29 -76 -19 -37 -35 -76
-35 -87 0 -10 -4 -19 -10 -19 -5 0 -10 -9 -10 -20 0 -11 -4 -20 -10 -20 -5 0
-10 -22 -10 -49 0 -30 -5 -52 -12 -55 -10 -5 -10 -7 0 -12 8 -4 12 -30 12 -80
0 -48 4 -73 10 -69 6 4 10 -13 10 -44 0 -27 5 -53 10 -56 6 -4 8 -11 5 -16 -4
-5 1 -9 9 -9 9 0 16 -8 16 -17 0 -41 121 -179 179 -203 17 -7 31 -16 31 -21 0
-5 9 -9 20 -9 11 0 20 -4 20 -10 0 -5 11 -10 25 -10 14 0 25 -4 25 -10 0 -5
16 -10 36 -10 21 0 33 -4 29 -10 -4 -6 13 -10 44 -10 28 0 51 -4 51 -10 0 -5
21 -10 46 -10 55 0 69 -13 79 -69 5 -33 3 -53 -11 -82 -11 -21 -22 -39 -26
-39 -5 0 -8 -9 -8 -20 0 -19 -7 -20 -135 -20 -83 0 -135 4 -135 10 0 6 -13 10
-30 10 -16 0 -30 5 -30 10 0 6 -10 10 -22 10 -55 1 -112 31 -188 99 -25 23
-53 43 -62 47 -10 3 -18 12 -18 20 0 9 -18 33 -40 54 -22 21 -40 45 -40 53 0
9 -4 17 -8 19 -18 7 -70 118 -87 183 -30 121 -21 361 15 440 10 21 34 87 53
145 6 19 14 37 17 40 3 3 12 25 20 50 7 25 17 49 22 55 4 5 8 17 8 27 0 10 5
18 10 18 6 0 10 11 10 25 0 14 5 25 10 25 6 0 10 11 10 25 0 14 5 25 10 25 6
0 10 14 10 30 0 17 5 30 10 30 6 0 10 8 10 18 0 10 8 36 19 58 28 58 49 157
56 260 l6 91 -29 -5 c-25 -3 -31 1 -42 27 -7 17 -19 31 -27 31 -24 0 -43 27
-43 60 0 28 18 60 34 60 3 0 6 -21 6 -46 0 -25 6 -51 13 -58 11 -11 87 -21 87
-12 0 16 -15 36 -26 36 -8 0 -14 4 -14 9 0 5 -9 11 -20 14 -16 4 -20 14 -20
51 0 25 -4 46 -9 46 -5 0 -23 3 -40 6 -24 5 -31 3 -31 -10 0 -9 -4 -16 -10
-16 -5 0 -14 -15 -19 -32 -5 -18 -10 -25 -10 -15 -1 9 -10 26 -22 38 -18 18
-20 28 -14 72 4 29 11 60 17 70 12 22 46 22 67 -1z m46 8 c3 -5 1 -10 -4 -10
-6 0 -11 5 -11 10 0 6 2 10 4 10 3 0 8 -4 11 -10z m1025 -124 c0 -11 -19 -15
-25 -6 -3 5 1 10 9 10 9 0 16 -2 16 -4z m60 -6 c0 -5 -4 -10 -10 -10 -5 0 -10
5 -10 10 0 6 5 10 10 10 6 0 10 -4 10 -10z m-95 -20 c-3 -5 -13 -10 -21 -10
-8 0 -14 -4 -14 -10 0 -5 -13 -10 -30 -10 -16 0 -30 5 -30 10 0 6 9 10 19 10
11 0 23 5 26 10 3 6 17 10 31 10 14 0 22 -4 19 -10z m-499 -27 c-3 -8 -6 -17
-6 -19 0 -2 -4 -4 -9 -4 -11 0 -23 29 -16 40 9 15 37 -1 31 -17z m374 -13
c-19 -13 -30 -13 -30 0 0 6 10 10 23 10 18 0 19 -2 7 -10z m-360 -40 c0 -5 -9
-10 -20 -10 -11 0 -20 5 -20 10 0 6 9 10 20 10 11 0 20 -4 20 -10z m800 -10
c10 0 22 -4 25 -10 3 -5 20 -10 36 -10 24 0 30 -4 27 -17 -6 -32 -54 -28 -88
7 -16 17 -30 36 -29 43 0 9 2 9 6 0 2 -7 13 -13 23 -13z m-122 -11 c2 6 17 11
33 11 23 0 28 -4 26 -21 -1 -12 5 -25 13 -29 15 -8 50 -21 60 -22 32 -2 52
-41 26 -51 -8 -3 -12 -15 -9 -31 6 -31 -19 -45 -43 -25 -13 10 -17 10 -24 0
-5 -9 -10 -10 -14 -2 -5 7 -12 7 -26 -1 -14 -9 -25 -9 -46 1 -20 9 -30 9 -32
2 -6 -19 -22 -12 -22 9 0 11 -4 20 -10 20 -5 0 -10 -11 -10 -24 0 -31 -28 -42
-46 -19 -8 11 -13 13 -14 5 0 -13 -46 -7 -63 8 -10 9 31 60 49 60 8 0 14 4 14
9 0 5 14 14 30 20 17 5 30 15 30 20 0 19 -30 12 -58 -14 -34 -31 -54 -32 -50
-3 2 17 13 25 43 32 22 5 43 13 46 18 14 21 54 35 74 25 13 -7 20 -6 23 2z
m662 1 c0 -5 -9 -10 -21 -10 -11 0 -17 5 -14 10 3 6 13 10 21 10 8 0 14 -4 14
-10z m-1320 -21 c0 -5 -4 -9 -10 -9 -5 0 -10 7 -10 16 0 8 5 12 10 9 6 -3 10
-10 10 -16z m1285 -19 c3 -5 -1 -10 -9 -10 -9 0 -16 5 -16 10 0 6 4 10 9 10 6
0 13 -4 16 -10z m77 -70 c11 0 28 4 38 10 14 8 21 5 34 -15 9 -13 16 -38 16
-56 0 -26 -3 -31 -20 -26 -12 3 -20 0 -20 -7 0 -6 9 -18 20 -26 21 -15 28 -50
10 -50 -5 0 -10 5 -10 10 0 6 -11 10 -25 10 -14 0 -25 5 -25 10 0 6 -6 10 -14
10 -8 0 -16 5 -18 12 -2 6 -9 9 -15 5 -10 -6 6 -100 21 -126 4 -5 1 -13 -6
-17 -8 -5 -4 -10 10 -15 27 -10 28 -30 2 -60 l-19 -24 -24 28 c-13 15 -30 27
-36 27 -11 0 -22 7 -56 38 -18 16 -25 15 -25 -3 0 -27 -27 -15 -47 22 -25 45
-11 72 17 33 22 -30 30 -24 30 20 0 45 9 50 30 19 48 -70 49 -70 52 1 1 36 1
80 0 98 -1 29 1 33 21 30 18 -2 23 2 25 30 2 24 -1 32 -12 32 -16 0 -22 21 -9
34 4 4 14 -7 22 -23 9 -19 22 -31 33 -31z m-432 0 c0 -13 -7 -20 -20 -20 -11
0 -20 5 -20 10 0 6 -10 10 -22 10 -19 0 -20 2 -8 10 8 5 27 10 43 10 20 0 27
-5 27 -20z m-810 -16 c0 -20 -37 -54 -59 -54 -9 0 -23 -9 -31 -20 -8 -11 -22
-20 -32 -20 -11 0 -18 -7 -18 -20 0 -15 7 -20 29 -20 16 0 31 6 34 13 2 6 8 9
12 5 10 -9 -22 -41 -34 -34 -5 3 -7 -3 -4 -13 3 -12 -4 -29 -16 -42 -12 -13
-21 -26 -21 -31 0 -4 -4 -8 -10 -8 -13 0 -13 33 1 47 8 8 8 13 0 17 -6 4 -11
2 -11 -3 0 -6 -6 -11 -14 -11 -8 0 -17 -6 -19 -12 -3 -7 -6 -4 -6 7 -1 11 8
27 19 35 11 8 20 18 20 22 0 4 -9 8 -20 8 -11 0 -20 5 -20 10 0 6 5 10 10 10
6 0 10 8 10 18 0 22 69 61 113 64 21 2 27 7 27 25 0 16 6 23 20 23 12 0 20 -7
20 -16z m910 -29 c0 -12 -5 -13 -17 -7 -10 5 -25 12 -33 15 -8 3 0 6 18 6 22
1 32 -4 32 -14z m-903 -300 c-9 -8 -13 -24 -10 -37 5 -19 3 -21 -8 -10 -16 14
-49 16 -49 2 0 -5 -4 -10 -10 -10 -15 0 -12 69 4 85 8 8 26 16 41 19 15 3 30
8 34 12 3 3 7 -6 9 -20 2 -14 -3 -33 -11 -41z m-1382 24 c5 -5 -6 -9 -32 -9
-31 0 -47 -7 -72 -30 -17 -17 -31 -37 -31 -45 0 -8 -4 -15 -10 -15 -14 0 -12
69 3 84 27 28 53 36 92 31 22 -3 44 -10 50 -16z m1895 11 c0 -5 9 -10 19 -10
19 0 35 -23 24 -34 -12 -12 -43 -6 -43 9 0 8 -4 15 -10 15 -5 0 -10 7 -10 15
0 8 5 15 10 15 6 0 10 -4 10 -10z m-378 -52 c-9 -9 -12 -7 -12 12 0 19 3 21
12 12 9 -9 9 -15 0 -24z m2006 15 c-10 -2 -26 -2 -35 0 -10 3 -2 5 17 5 19 0
27 -2 18 -5z m-1872 -27 c8 -8 14 -22 14 -30 0 -10 9 -16 21 -16 16 0 19 -4
14 -17 -4 -10 -11 -32 -16 -50 -6 -18 -21 -41 -34 -51 -14 -11 -25 -27 -25
-37 0 -16 -22 -45 -34 -45 -3 0 -6 14 -6 31 0 30 -1 31 -32 24 -44 -10 -87
-16 -65 -9 9 3 17 9 17 14 0 4 14 13 30 20 17 7 30 18 30 26 0 7 8 15 18 18
19 6 55 93 41 102 -13 7 -11 34 2 34 6 0 17 -6 25 -14z m-86 -27 c0 -10 -4
-19 -10 -19 -5 0 -10 12 -10 26 0 14 4 23 10 19 6 -3 10 -15 10 -26z m-54 -46
c-1 -27 -7 -48 -14 -51 -6 -2 -12 -9 -12 -15 0 -7 -9 -18 -21 -25 -16 -10 -18
-16 -9 -27 9 -11 4 -12 -26 -10 -20 2 -41 8 -45 12 -11 11 8 83 21 83 6 0 10
9 10 20 0 15 7 20 25 20 18 0 25 5 25 19 0 20 17 31 36 24 7 -2 11 -24 10 -50z
m689 26 c4 -10 11 -19 16 -19 5 0 9 -17 10 -37 0 -21 4 -47 8 -58 9 -22 -7
-67 -20 -59 -5 3 -9 32 -9 64 0 58 -15 110 -32 110 -4 0 -8 7 -8 15 0 20 28 8
35 -16z m-194 -135 c-8 -41 -8 -61 0 -70 8 -10 7 -17 -4 -29 -18 -17 -37 -20
-37 -5 0 6 -7 10 -15 10 -8 0 -15 -4 -15 -10 0 -5 -4 -10 -10 -10 -17 0 -11
39 8 60 10 11 26 52 37 92 10 40 23 78 29 84 16 17 20 -53 7 -122z m-54 84
c-3 -7 -5 -2 -5 12 0 14 2 19 5 13 2 -7 2 -19 0 -25z m-387 2 c0 -5 -5 -10
-11 -10 -5 0 -7 5 -4 10 3 6 8 10 11 10 2 0 4 -4 4 -10z m237 -22 c-3 -8 -6
-5 -6 6 -1 11 2 17 5 13 3 -3 4 -12 1 -19z m553 3 c0 -6 -4 -13 -10 -16 -5 -3
-10 1 -10 9 0 9 5 16 10 16 6 0 10 -4 10 -9z m-480 -31 c0 -11 -4 -20 -10 -20
-5 0 -10 9 -10 20 0 11 5 20 10 20 6 0 10 -9 10 -20z m177 -17 c-3 -10 -5 -4
-5 12 0 17 2 24 5 18 2 -7 2 -21 0 -30z m-260 -40 c-1 -43 3 -68 11 -71 14 -4
16 -62 2 -62 -5 0 -10 5 -10 10 0 6 -6 10 -14 10 -7 0 -25 11 -39 26 -22 21
-24 30 -16 56 9 32 49 98 60 98 4 0 6 -30 6 -67z m333 45 c0 -9 3 -9 12 0 19
19 28 14 28 -17 0 -21 -6 -32 -20 -36 -11 -3 -20 -11 -20 -16 0 -5 -9 -9 -20
-9 -13 0 -20 7 -20 20 0 11 5 20 10 20 6 0 10 11 10 25 0 14 5 25 10 25 6 0
10 -5 10 -12z m-210 -38 c0 -11 -4 -20 -10 -20 -5 0 -10 9 -10 20 0 11 5 20
10 20 6 0 10 -9 10 -20z m-350 -58 c0 -15 -6 -18 -30 -14 -17 2 -30 10 -30 18
0 9 11 14 30 14 22 0 30 -5 30 -18z m370 -92 c0 -5 -9 -10 -20 -10 -11 0 -20
5 -20 10 0 6 9 10 20 10 11 0 20 -4 20 -10z m157 -246 c-12 -9 -77 -13 -77 -4
0 5 7 10 15 10 8 0 15 4 15 9 0 5 11 4 24 -2 14 -7 24 -12 23 -13z m-321 -515
c8 -13 -21 -33 -53 -36 -13 -1 -25 2 -28 8 -4 5 -1 9 5 9 6 0 18 7 26 15 18
18 40 19 50 4z m209 -19 c3 -11 11 -20 16 -20 6 0 17 -7 26 -16 14 -14 14 -16
-6 -21 -16 -4 -20 -11 -15 -27 3 -11 10 -36 15 -53 5 -18 14 -49 20 -69 7 -22
8 -54 3 -82 -5 -31 -9 -39 -12 -24 -2 12 -10 22 -18 22 -8 0 -14 9 -14 19 0
10 -6 21 -14 24 -11 5 -16 -7 -21 -51 -3 -31 -12 -92 -18 -135 l-13 -78 -21
21 c-26 23 -73 27 -73 5 0 -17 -32 -36 -46 -27 -6 4 -16 50 -23 102 -21 160
-21 162 -38 149 -10 -9 -12 -23 -8 -49 8 -47 -15 -61 -39 -24 -18 26 -51 32
-60 12 -5 -10 -7 -10 -12 0 -3 6 -19 12 -35 12 -16 0 -29 5 -29 10 0 6 -16 10
-35 10 -31 0 -35 -3 -44 -37 -6 -21 -11 -54 -11 -73 -1 -38 -24 -80 -32 -58
-3 7 -6 66 -7 132 -2 133 16 206 50 206 11 0 19 -7 19 -16 0 -8 7 -22 15 -30
13 -13 14 -11 9 18 -3 18 -2 28 3 22 9 -13 73 -15 73 -2 0 4 9 8 20 8 11 0 20
-4 20 -10 0 -5 9 -10 20 -10 11 0 20 -4 20 -10 0 -5 5 -10 10 -10 6 0 10 14
10 30 0 17 5 30 10 30 6 0 10 7 10 16 0 30 50 61 50 32 0 -7 6 -4 12 7 7 11
17 26 24 33 15 14 84 16 84 2 0 -5 7 -10 16 -10 20 0 44 -24 44 -44 0 -9 6
-16 14 -16 24 0 27 31 7 66 -20 33 -20 34 -1 34 10 0 22 -9 25 -20z m-348 -27
c-15 -15 -108 -42 -104 -30 2 7 16 13 30 15 15 2 27 8 27 13 0 5 12 9 27 9 14
0 23 -3 20 -7z m657 -89 c3 -9 6 -26 6 -39 0 -13 5 -27 11 -30 10 -7 11 -118
1 -204 -6 -53 -16 -38 -32 49 -6 36 -15 70 -20 75 -9 11 -15 78 -12 133 2 24
7 32 21 32 10 0 22 -7 25 -16z m-83 -97 c3 -51 -14 -77 -51 -77 -12 0 -31 -5
-42 -11 -23 -12 -33 -3 -44 38 -8 28 28 80 59 85 37 6 77 -12 78 -35z m-174
-184 c-3 -10 -5 -2 -5 17 0 19 2 27 5 18 2 -10 2 -26 0 -35z m-671 -137 c8 -8
14 -20 14 -26 0 -14 46 -60 61 -60 12 0 69 59 69 73 0 4 13 7 30 7 38 0 90
-52 90 -89 0 -26 20 -69 20 -43 0 6 7 12 15 12 9 0 25 9 37 19 17 16 24 18 39
8 11 -7 22 -19 24 -28 12 -37 42 -58 93 -65 41 -5 57 -3 79 11 40 27 73 62 73
80 0 9 9 15 25 15 15 0 31 9 41 25 18 28 34 33 34 10 0 -8 5 -15 10 -15 18 0
11 -65 -10 -88 -11 -12 -20 -28 -20 -35 0 -8 -13 -20 -30 -27 -16 -7 -30 -16
-30 -20 0 -11 -123 -11 -130 -1 -3 4 -22 11 -42 14 -29 4 -38 2 -38 -9 0 -15
-35 -20 -44 -5 -6 9 -96 -33 -107 -50 -4 -8 -15 -6 -35 4 -16 8 -50 20 -76 28
-27 7 -48 17 -48 21 0 4 -8 8 -18 8 -30 0 -112 95 -112 130 0 17 -4 30 -8 30
-7 0 -32 57 -32 73 0 11 10 8 26 -7z m-1516 -102 c0 -8 -4 -12 -10 -9 -5 3
-10 10 -10 16 0 5 5 9 10 9 6 0 10 -7 10 -16z m0 -154 c0 -27 -4 -50 -10 -50
-5 0 -10 23 -10 50 0 28 5 50 10 50 6 0 10 -22 10 -50z m0 -110 c0 -16 -4 -30
-10 -30 -5 0 -10 14 -10 30 0 17 5 30 10 30 6 0 10 -13 10 -30z m0 -90 c0 -11
-4 -20 -10 -20 -5 0 -10 9 -10 20 0 11 5 20 10 20 6 0 10 -9 10 -20z m-20
-119 c0 -6 -4 -13 -10 -16 -5 -3 -10 1 -10 9 0 9 5 16 10 16 6 0 10 -4 10 -9z"/>
<path d="M4270 4700 c0 -5 10 -10 23 -10 18 0 19 2 7 10 -19 13 -30 13 -30 0z"/>
<path d="M4330 4386 c0 -8 8 -17 18 -20 26 -9 48 -64 34 -87 -14 -22 -6 -49
14 -49 21 0 41 47 26 62 -7 7 -12 24 -12 39 0 21 -6 28 -30 33 -18 3 -30 12
-30 21 0 8 -4 15 -10 15 -5 0 -10 -6 -10 -14z"/>
<path d="M4060 4350 c0 -13 7 -20 20 -20 23 0 26 10 8 28 -18 18 -28 15 -28
-8z"/>
<path d="M3630 4204 c0 -3 6 -12 14 -20 20 -19 26 -18 26 6 0 13 -7 20 -20 20
-11 0 -20 -3 -20 -6z"/>
<path d="M4560 3950 c0 -5 5 -10 10 -10 6 0 10 -9 10 -20 0 -13 -7 -20 -20
-20 -11 0 -20 -4 -20 -10 0 -5 7 -10 16 -10 18 0 44 23 44 40 0 12 -24 40 -34
40 -3 0 -6 -4 -6 -10z"/>
<path d="M3770 3915 c0 -12 50 -55 64 -55 8 0 18 -4 21 -10 3 -5 13 -10 21
-10 12 0 12 3 2 20 -7 11 -18 20 -25 20 -7 0 -13 5 -13 10 0 6 -7 10 -15 10
-8 0 -15 5 -15 10 0 6 -9 10 -20 10 -11 0 -20 -2 -20 -5z"/>
<path d="M4481 3604 c0 -11 3 -14 6 -6 3 7 2 16 -1 19 -3 4 -6 -2 -5 -13z"/>
<path d="M4783 3513 c9 -2 23 -2 30 0 6 3 -1 5 -18 5 -16 0 -22 -2 -12 -5z"/>
<path d="M4600 3410 c0 -5 5 -10 10 -10 6 0 10 5 10 10 0 6 -4 10 -10 10 -5 0
-10 -4 -10 -10z"/>
<path d="M4970 3310 c0 -5 5 -10 10 -10 6 0 10 5 10 10 0 6 -4 10 -10 10 -5 0
-10 -4 -10 -10z"/>
<path d="M4900 3290 c-11 -7 -7 -10 18 -10 17 0 32 5 32 10 0 13 -30 13 -50 0z"/>
<path d="M4780 4020 c-8 -11 -21 -20 -29 -20 -14 0 -51 -37 -51 -52 0 -4 7 -8
15 -8 8 0 15 4 15 10 0 13 52 60 67 60 7 0 13 7 13 15 0 21 -13 19 -30 -5z"/>
<path d="M5430 4140 c0 -5 5 -10 10 -10 6 0 10 5 10 10 0 6 -4 10 -10 10 -5 0
-10 -4 -10 -10z"/>
<path d="M5390 4045 c0 -8 5 -15 10 -15 6 0 10 7 10 15 0 8 -4 15 -10 15 -5 0
-10 -7 -10 -15z"/>
<path d="M5370 3660 c0 -5 5 -10 10 -10 6 0 10 5 10 10 0 6 -4 10 -10 10 -5 0
-10 -4 -10 -10z"/>
<path d="M5320 3600 c0 -5 -13 -22 -29 -38 -21 -20 -27 -32 -21 -42 13 -21 40
-3 62 41 21 43 22 49 3 49 -8 0 -15 -4 -15 -10z"/>
<path d="M5421 3284 c-18 -21 -6 -30 14 -11 8 9 15 18 15 21 0 11 -15 5 -29
-10z"/>
<path d="M4025 3600 c-3 -5 -1 -10 4 -10 6 0 11 5 11 10 0 6 -2 10 -4 10 -3 0
-8 -4 -11 -10z"/>
<path d="M5298 2879 c-19 -12 9 -19 71 -17 33 1 61 5 61 9 0 9 -119 16 -132 8z"/>
<path d="M5527 2869 c-10 -11 -12 -21 -7 -24 6 -4 10 -1 10 4 0 6 11 11 25 11
14 0 25 -5 25 -11 0 -5 5 -7 10 -4 8 5 8 11 0 20 -18 22 -47 24 -63 4z"/>
<path d="M5600 2830 c0 -5 5 -10 10 -10 6 0 10 5 10 10 0 6 -4 10 -10 10 -5 0
-10 -4 -10 -10z"/>
<path d="M5253 958 c-32 -19 -43 -38 -23 -38 6 0 10 3 10 8 0 4 14 13 30 20
17 8 30 18 30 23 0 13 -11 10 -47 -13z"/>
<path d="M5095 895 c-16 -8 -39 -14 -50 -15 -11 0 -33 -7 -49 -15 -15 -8 -39
-15 -53 -15 -26 0 -59 -15 -80 -36 -10 -10 -4 -11 30 -7 23 4 44 10 45 14 2 5
18 9 35 9 34 0 88 15 129 36 14 8 34 14 43 14 15 0 15 2 1 15 -8 8 -16 15 -18
14 -2 0 -16 -7 -33 -14z"/>
<path d="M5168 903 c6 -2 18 -2 25 0 6 3 1 5 -13 5 -14 0 -19 -2 -12 -5z"/>
<path d="M3472 875 c-10 -12 -8 -16 15 -21 16 -3 34 -8 41 -10 17 -5 62 6 62
15 0 9 -61 31 -86 31 -10 -1 -25 -7 -32 -15z"/>
<path d="M5000 2539 c0 -5 5 -7 10 -4 6 3 10 8 10 11 0 2 -4 4 -10 4 -5 0 -10
-5 -10 -11z"/>
<path d="M3670 2460 c0 -5 5 -10 11 -10 5 0 7 5 4 10 -3 6 -8 10 -11 10 -2 0
-4 -4 -4 -10z"/>
<path d="M4310 790 c0 -11 -4 -20 -10 -20 -5 0 -10 5 -10 10 0 6 -13 10 -30
10 -28 0 -30 -2 -30 -40 0 -44 13 -51 32 -20 7 11 23 20 36 20 13 0 20 -4 17
-10 -3 -5 -1 -10 4 -10 6 0 11 9 11 20 0 11 5 20 10 20 6 0 10 5 10 10 0 6 -7
10 -16 10 -8 0 -12 5 -9 10 3 6 1 10 -4 10 -6 0 -11 -9 -11 -20z"/>
<path d="M4500 510 c0 -5 5 -10 10 -10 6 0 10 5 10 10 0 6 -4 10 -10 10 -5 0
-10 -4 -10 -10z"/>
<path d="M2530 8980 c0 -17 7 -20 50 -20 43 0 50 3 50 20 0 17 -7 20 -50 20
-43 0 -50 -3 -50 -20z"/>
<path d="M2690 8955 l0 -45 -50 0 -50 0 0 -1405 0 -1405 50 0 50 0 2 -47 c1
-27 1 -65 0 -85 l-2 -38 1604 0 c1472 0 1604 1 1610 16 4 10 -1 22 -11 30 -10
7 -13 14 -6 14 7 0 13 20 15 53 l3 52 53 3 52 3 0 1399 0 1400 -25 6 c-14 3
-37 4 -50 1 -27 -5 -36 13 -32 63 l2 25 -1607 3 -1608 2 0 -45z m1082 -540
c-3 -141 -2 -145 17 -145 19 0 21 -6 21 -52 -1 -52 -1 -52 -18 -32 -9 12 -24
31 -32 43 -13 19 -24 21 -100 21 -76 0 -87 -2 -100 -21 -25 -35 -41 -49 -51
-44 -22 14 4 85 32 85 10 0 23 8 28 18 10 16 10 16 11 0 0 -15 10 -18 65 -18
l65 0 0 135 0 135 -45 0 c-25 0 -45 -4 -45 -10 0 -5 -7 -10 -15 -10 -8 0 -15
5 -15 10 0 6 -7 10 -15 10 -8 0 -15 5 -15 10 0 6 43 10 108 10 l107 0 -3 -145z
m696 133 c13 -16 4 -68 -13 -68 -20 0 -37 48 -22 65 15 18 22 18 35 3z m92
-14 c0 -22 -20 -54 -33 -54 -8 0 -15 53 -10 67 3 7 14 13 24 13 14 0 19 -7 19
-26z m-963 -136 c-2 -13 -4 -3 -4 22 0 25 2 35 4 23 2 -13 2 -33 0 -45z m307
46 c10 -26 7 -34 -16 -43 -24 -9 -58 3 -58 20 0 33 62 53 74 23z m116 -29 c0
-44 1 -45 25 -39 31 8 73 -32 82 -77 3 -16 10 -29 15 -29 5 0 6 -4 3 -10 -3
-5 -19 -10 -36 -10 -22 0 -29 5 -29 20 0 11 -4 20 -10 20 -5 0 -10 9 -10 21 0
19 -21 49 -34 49 -13 0 -6 -90 7 -90 6 0 4 -5 -6 -11 -10 -6 -30 -9 -45 -7
-25 3 -26 6 -24 45 2 23 0 47 -3 53 -9 15 -34 -18 -35 -45 -1 -31 -24 -55 -54
-55 -31 0 -31 0 -10 48 17 41 70 96 79 81 14 -22 25 -6 25 36 0 43 1 45 30 45
29 0 30 -2 30 -45z m126 23 c10 -33 -21 -52 -51 -30 -30 23 -21 52 15 52 21 0
31 -6 36 -22z m111 14 c9 -6 7 -12 -7 -22 -23 -16 -26 -40 -8 -58 9 -9 9 -12
0 -12 -16 0 -15 -29 1 -63 9 -20 19 -27 40 -27 15 0 27 -4 27 -10 0 -5 -18
-10 -40 -10 -22 0 -40 5 -40 10 0 6 -6 10 -14 10 -8 0 -22 19 -31 43 -18 49
-10 86 28 124 25 25 27 26 44 15z m53 -1 c0 -5 8 -11 19 -14 18 -4 31 -41 23
-65 -2 -7 -12 -12 -23 -12 -15 0 -19 7 -19 35 0 19 -4 35 -10 35 -5 0 -10 7
-10 15 0 8 5 15 10 15 6 0 10 -4 10 -9z m153 -96 l2 -100 -30 -3 -30 -3 2 103
c1 57 3 104 3 106 0 2 12 2 26 0 26 -3 26 -3 27 -103z m127 95 c10 -6 11 -10
3 -10 -10 0 -13 -24 -13 -85 0 -50 4 -85 10 -85 6 0 10 -4 10 -10 0 -5 -17
-10 -37 -10 l-38 0 -2 97 c-2 99 3 113 37 113 8 0 22 -5 30 -10z m122 -7 c9
-10 21 -35 29 -55 7 -21 18 -38 25 -38 7 0 11 -8 9 -17 -2 -10 -4 -28 -4 -40
-2 -38 -35 -28 -54 15 -9 21 -17 42 -17 46 0 4 -9 16 -20 28 -11 12 -20 30
-20 40 0 10 -5 18 -11 18 -5 0 -7 5 -4 10 10 16 51 12 67 -7z m158 -78 c0 -69
3 -95 13 -95 25 0 -18 -20 -45 -20 -28 0 -28 1 -28 65 0 36 -4 65 -10 65 -6 0
-6 8 -1 23 5 12 12 30 15 40 3 10 15 17 31 17 25 0 25 0 25 -95z m197 79 c26
-24 19 -66 -9 -62 -17 2 -24 11 -26 31 -3 21 -9 27 -26 27 -33 0 -46 -59 -30
-139 6 -27 11 -31 38 -32 l31 -1 -28 -10 c-34 -12 -87 8 -87 34 0 10 -4 18
-10 18 -5 0 -10 18 -10 40 0 56 49 105 105 105 22 0 45 -5 52 -11z m-384 -168
c7 -18 -1 -26 -25 -26 -21 0 -23 6 -5 25 16 18 24 18 30 1z m-905 -135 c10 -6
9 -10 -7 -14 -16 -4 -21 -13 -21 -41 0 -20 -4 -36 -10 -36 -5 0 -10 16 -10 35
0 19 -4 35 -10 35 -5 0 -10 7 -10 15 0 17 46 21 68 6z m123 -138 c-2 -138 -1
-143 19 -143 17 0 20 -6 20 -45 0 -53 -8 -56 -32 -15 -11 19 -28 33 -46 36
l-30 6 -1 155 -1 154 36 -3 36 -3 -1 -142z m721 130 c7 -30 -3 -53 -23 -53
-15 0 -19 7 -19 35 0 28 4 35 19 35 11 0 21 -8 23 -17z m94 -9 c6 -24 -6 -43
-27 -44 -11 0 -31 48 -25 59 14 21 45 12 52 -15z m-692 -80 c9 -3 16 -15 16
-26 0 -10 -4 -16 -10 -13 -5 3 -10 -1 -10 -9 0 -9 -9 -16 -20 -16 -16 0 -20 7
-20 35 0 36 10 42 44 29z m128 -37 c-3 -27 1 -39 13 -43 9 -4 20 -2 24 4 5 8
12 5 21 -8 8 -11 20 -20 27 -20 7 0 13 -9 13 -20 0 -11 5 -20 10 -20 6 0 10
-13 10 -30 0 -23 -4 -30 -20 -30 -22 0 -44 30 -54 73 -4 19 -13 27 -27 27 -20
0 -21 -4 -15 -50 l7 -50 -31 0 c-29 0 -30 1 -30 50 0 41 -3 50 -17 50 -19 0
-43 -41 -43 -72 0 -23 -48 -37 -61 -17 -6 9 -3 18 6 25 8 6 15 23 15 38 0 19
5 26 19 26 12 0 22 11 29 33 8 25 10 27 11 10 1 -16 7 -23 21 -23 17 0 20 7
20 38 0 45 6 54 35 50 17 -3 19 -9 17 -41z m118 29 c0 -8 6 -16 12 -18 9 -3 8
-9 -4 -21 -23 -23 -35 -21 -54 9 -15 22 -15 27 -3 35 21 13 49 11 49 -5z m334
8 c13 -5 16 -24 16 -99 0 -75 -3 -94 -16 -99 -41 -16 -44 -10 -44 99 0 109 3
115 44 99z m131 -99 l0 -100 -27 -3 -28 -3 0 68 c0 40 -5 74 -12 81 -9 9 -9
12 0 12 7 0 12 8 12 18 0 25 10 33 34 30 19 -3 20 -11 21 -103z m-345 86 c0
-6 -4 -13 -10 -16 -5 -3 -10 -35 -10 -70 0 -35 5 -67 10 -70 6 -3 10 -12 10
-20 0 -11 -6 -11 -30 3 -16 9 -30 23 -30 30 0 6 -4 12 -10 12 -5 0 -10 20 -10
45 0 34 6 52 23 70 22 24 57 33 57 16z m96 -5 c8 -8 14 -22 14 -30 0 -9 5 -16
10 -16 6 0 10 -14 10 -31 0 -34 -34 -89 -55 -89 -7 0 -15 -6 -18 -12 -2 -7 -2
26 1 74 3 62 1 92 -8 103 -10 13 -9 15 9 15 13 0 29 -6 37 -14z m359 -13 c-14
-56 -17 -113 -6 -113 6 0 11 -9 11 -20 0 -11 5 -20 10 -20 6 0 10 -4 10 -10 0
-18 -30 -10 -57 15 -23 20 -27 33 -27 80 -1 48 3 60 23 76 33 27 45 24 36 -8z
m103 -1 c2 -12 -4 -29 -12 -38 -14 -14 -18 -14 -31 0 -8 8 -15 26 -15 41 0 23
4 26 28 23 19 -2 28 -9 30 -26z m-1218 -62 c0 -16 -4 -30 -10 -30 -5 0 -10 14
-10 30 0 17 5 30 10 30 6 0 10 -13 10 -30z m-20 -80 c0 -5 15 -14 33 -19 l32
-9 -32 -1 c-33 -1 -73 -33 -73 -58 0 -7 -4 -13 -10 -13 -5 0 -10 20 -10 45 0
38 3 45 20 45 11 0 20 5 20 10 0 6 5 10 10 10 6 0 10 -4 10 -10z m107 -26 c-3
-3 -12 -4 -19 -1 -8 3 -5 6 6 6 11 1 17 -2 13 -5z m-6 -350 c56 -17 201 -91
207 -106 2 -4 12 -8 23 -8 10 0 19 -4 19 -10 0 -5 11 -10 25 -10 14 0 25 -4
25 -10 0 -5 -16 -10 -35 -10 -19 0 -35 5 -35 10 0 6 -9 10 -20 10 -11 0 -20 5
-20 10 0 6 -11 10 -25 10 -14 0 -25 5 -25 10 0 6 -9 10 -19 10 -11 0 -21 4
-23 8 -6 15 -141 74 -182 80 l-41 6 35 7 c19 3 35 7 36 8 0 0 25 -6 55 -15z
m395 1 c37 -15 70 -43 61 -51 -2 -3 -21 4 -41 15 -20 12 -62 24 -94 28 -46 5
-52 8 -32 14 40 11 68 10 106 -6z m284 5 c23 -7 22 -8 -10 -9 -56 -2 -108 -20
-136 -48 -14 -14 -28 -22 -32 -18 -4 4 -1 10 6 12 6 3 12 10 12 16 0 19 72 56
105 56 17 -1 41 -5 55 -9z m370 -15 c-61 -13 -140 -45 -140 -57 0 -5 -9 -8
-20 -8 -11 0 -20 -4 -20 -10 0 -5 -9 -10 -20 -10 -11 0 -20 -4 -20 -10 0 -5
-9 -10 -20 -10 -11 0 -20 -4 -20 -10 0 -5 -11 -10 -25 -10 -14 0 -25 -4 -25
-10 0 -5 -13 -10 -30 -10 -16 0 -30 -4 -30 -10 0 -5 -14 -10 -31 -10 -17 0
-28 4 -24 10 3 6 15 10 26 10 10 0 19 5 19 10 0 6 11 10 25 10 14 0 25 5 25
10 0 6 10 10 23 10 12 0 29 9 37 20 8 11 22 20 32 20 10 0 18 3 18 8 0 8 53
34 124 59 31 12 67 17 100 14 l51 -4 -55 -12z m-1111 -57 c63 -20 91 -33 91
-40 0 -5 9 -8 20 -8 11 0 20 -4 20 -10 0 -5 9 -10 20 -10 11 0 20 -4 20 -10 0
-5 9 -10 20 -10 11 0 20 -4 20 -10 0 -5 9 -10 20 -10 11 0 20 -4 20 -10 0 -5
9 -10 20 -10 11 0 20 -4 20 -9 0 -5 15 -12 33 -16 l32 -8 -30 -5 c-16 -2 -31
1 -33 7 -2 6 -17 11 -33 11 -16 0 -29 5 -29 10 0 6 -13 10 -30 10 -16 0 -30 5
-30 10 0 6 -6 10 -13 10 -18 0 -67 24 -67 33 0 4 -9 7 -20 7 -11 0 -20 5 -20
10 0 6 -11 10 -25 10 -14 0 -25 5 -25 10 0 6 -9 10 -20 10 -11 0 -20 5 -20 10
0 6 -8 10 -17 10 -10 0 -25 5 -33 10 -22 14 44 13 89 -2z m1141 -11 c-25 -12
-46 -25 -48 -29 -2 -5 -12 -8 -23 -8 -10 0 -19 -4 -19 -10 0 -5 -6 -10 -13
-10 -18 0 -67 -24 -67 -32 0 -5 -7 -8 -15 -8 -8 0 -23 -4 -33 -9 -9 -5 -28
-13 -42 -19 -14 -5 -38 -15 -53 -21 -15 -6 -42 -10 -60 -10 l-32 2 38 10 c20
6 37 14 37 19 0 4 9 8 20 8 11 0 20 5 20 10 0 6 9 10 20 10 11 0 20 5 20 10 0
6 9 10 20 10 11 0 20 5 20 10 0 6 9 10 20 10 11 0 20 5 20 10 0 6 9 10 20 10
11 0 20 3 20 8 0 13 104 50 145 50 29 1 28 0 -15 -21z m-715 -87 c4 -6 -7 -10
-24 -10 -17 0 -31 5 -31 10 0 6 11 10 24 10 14 0 28 -4 31 -10z m-660 -482
c14 -6 25 -17 25 -23 0 -7 17 -49 38 -94 29 -64 41 -79 55 -75 25 8 22 -17 -9
-73 -15 -26 -28 -50 -30 -52 -2 -2 -8 9 -14 25 -6 16 -18 42 -26 58 -8 16 -14
35 -14 43 0 7 -4 13 -10 13 -5 0 -10 9 -10 19 0 11 -4 23 -10 26 -5 3 -10 15
-10 26 0 10 -4 19 -10 19 -5 0 -10 9 -10 20 0 11 -4 20 -10 20 -5 0 -10 7 -10
15 0 8 -6 15 -12 15 -7 1 -2 7 12 15 31 18 24 17 55 3z m398 -2 c18 -14 18
-15 0 -24 -12 -7 -19 -27 -24 -69 l-6 -58 -2 52 c0 34 -7 57 -18 69 -16 15
-16 17 2 30 23 17 25 17 48 0z m548 4 c18 -10 19 -23 19 -175 l0 -165 -37 0
-38 0 3 125 c3 85 0 125 -7 125 -6 0 -11 -4 -11 -10 0 -5 -4 -10 -10 -10 -5 0
0 16 11 35 12 19 19 42 15 50 -3 8 3 19 12 24 21 13 20 13 43 1z m264 -2 c-10
-6 -31 -23 -45 -37 -24 -24 -25 -31 -25 -136 0 -91 3 -115 17 -128 9 -9 21
-17 27 -17 6 0 11 -4 11 -10 0 -5 -14 -10 -30 -10 -33 0 -80 38 -80 65 0 8 -4
15 -10 15 -6 0 -10 35 -10 85 0 50 4 85 10 85 6 0 10 7 10 15 0 25 46 65 75
65 14 0 25 5 25 10 0 6 10 10 23 10 21 -1 21 -1 2 -12z m345 7 c0 -2 -15 -11
-34 -20 -45 -22 -61 -62 -61 -160 0 -91 17 -145 46 -145 21 0 23 -8 9 -30 -6
-10 -10 -11 -10 -2 0 6 -9 12 -20 12 -12 0 -36 16 -55 35 -27 26 -35 43 -35
70 0 19 -4 35 -10 35 -5 0 -10 13 -10 29 0 17 5 33 10 36 6 3 10 17 10 31 0
30 61 94 90 94 11 0 20 5 20 10 0 6 11 10 25 10 14 0 25 -2 25 -5z m90 -45 c0
-27 -4 -50 -10 -50 -5 0 -10 8 -10 18 0 10 -9 24 -20 32 -11 8 -20 18 -20 22
0 4 9 8 20 8 11 0 20 5 20 10 0 6 5 10 10 10 6 0 10 -22 10 -50z m-1421 31
c11 -7 9 -10 -8 -16 -12 -3 -21 -15 -21 -26 0 -10 -4 -19 -10 -19 -5 0 -10 -9
-10 -19 0 -11 -4 -23 -10 -26 -6 -4 -10 5 -10 19 0 14 5 26 10 26 14 0 13 37
-1 46 -8 4 -7 9 2 15 18 11 40 11 58 0z m324 -164 l2 -167 -32 0 -33 0 0 171
0 170 31 -3 31 -3 1 -168z m205 51 c2 -105 11 -143 25 -105 2 7 8 8 13 3 5 -5
4 -11 -3 -13 -7 -3 -13 -13 -13 -24 0 -10 -4 -19 -10 -19 -5 0 -10 -13 -10
-30 0 -29 -2 -30 -45 -30 -25 0 -45 5 -45 10 0 6 4 10 10 10 14 0 12 287 -2
296 -16 10 19 24 52 21 25 -2 25 -2 28 -119z m562 77 c0 -25 -4 -45 -10 -45
-5 0 -10 7 -10 16 0 8 -7 22 -15 30 -25 25 -18 36 28 43 4 0 7 -19 7 -44z
m-460 -86 c0 -10 -24 -39 -33 -39 -3 0 0 11 6 25 12 25 27 33 27 14z m-707
-24 c-7 -21 -13 -19 -13 6 0 11 4 18 10 14 5 -3 7 -12 3 -20z m667 -40 c0 -8
-4 -15 -10 -15 -5 0 -10 7 -10 15 0 8 5 15 10 15 6 0 10 -7 10 -15z m-804 -59
c16 -17 19 -46 4 -46 -5 0 -10 -9 -10 -20 0 -23 -25 -27 -46 -6 -17 18 -18 52
-1 71 16 18 35 19 53 1z m1324 -36 l0 -50 -40 0 c-22 0 -40 5 -40 10 0 6 4 10
8 10 5 0 15 12 23 28 34 66 49 67 49 2z m330 25 c0 -14 -4 -25 -10 -25 -5 0
-10 -11 -10 -25 0 -15 -6 -25 -14 -25 -19 0 -31 39 -17 53 6 6 11 19 11 29 0
11 7 18 20 18 15 0 20 -7 20 -25z m-1343 -25 c3 -16 12 -30 19 -30 8 0 14 -4
14 -10 0 -5 -9 -10 -20 -10 -11 0 -20 -4 -20 -10 0 -5 -5 -10 -11 -10 -5 0 -7
5 -4 10 4 6 -5 10 -19 10 -23 0 -26 4 -26 33 0 40 6 47 37 47 18 0 25 -7 30
-30z m-257 -40 c0 -5 -4 -10 -10 -10 -5 0 -10 5 -10 10 0 6 5 10 10 10 6 0 10
-4 10 -10z m1540 0 c0 -5 -7 -10 -15 -10 -8 0 -15 5 -15 10 0 6 7 10 15 10 8
0 15 -4 15 -10z m-2363 -536 c-3 -3 -12 -4 -19 -1 -8 3 -5 6 6 6 11 1 17 -2
13 -5z m2270 0 c-3 -3 -12 -4 -19 -1 -8 3 -5 6 6 6 11 1 17 -2 13 -5z m840 0
c-3 -3 -12 -4 -19 -1 -8 3 -5 6 6 6 11 1 17 -2 13 -5z"/>
<path d="M5964 8984 c3 -9 6 -18 6 -20 0 -2 23 -4 50 -4 43 0 50 3 50 20 0 18
-7 20 -56 20 -47 0 -55 -3 -50 -16z"/>
<path d="M2529 8898 c-1 -7 -1 -44 -1 -83 1 -38 1 -665 2 -1392 0 -1315 0
-1323 20 -1323 20 0 20 9 22 1396 3 1300 2 1397 -14 1405 -22 12 -28 11 -29
-3z"/>
<path d="M6030 7505 c0 -1398 0 -1405 20 -1405 20 0 20 7 20 1399 0 1266 -1
1399 -16 1405 -9 3 -18 6 -20 6 -2 0 -4 -632 -4 -1405z"/>
<path d="M2530 5990 l0 -60 50 0 50 0 0 60 0 60 -50 0 -50 0 0 -60z"/>
<path d="M5964 6037 c-11 -14 -12 -51 0 -84 6 -20 14 -23 57 -23 l49 0 0 60 0
60 -47 0 c-27 -1 -53 -6 -59 -13z"/>
</g>
</svg>
