<?xml version="1.0" standalone="no"?>
<!DOCTYPE svg PUBLIC "-//W3C//DTD SVG 20010904//EN"
 "http://www.w3.org/TR/2001/REC-SVG-20010904/DTD/svg10.dtd">
<svg version="1.0" xmlns="http://www.w3.org/2000/svg"
 width="860.000000pt" height="900.000000pt" viewBox="0 0 860.000000 900.000000"
 preserveAspectRatio="xMidYMid meet">

<g transform="translate(0.000000,900.000000) scale(0.100000,-0.100000)"
fill="#000000" stroke="none">
<path d="M116 8982 c-3 -10 -20 -26 -38 -36 -17 -11 -42 -28 -55 -39 l-23 -20
0 -2329 c0 -1645 3 -2327 11 -2323 5 4 19 -1 30 -11 12 -11 23 -14 27 -9 14
19 49 33 62 25 8 -5 18 -6 22 -4 4 3 8 0 8 -7 0 -8 5 -7 17 2 15 12 16 12 8
-1 -8 -13 -7 -13 8 -1 15 12 17 11 17 -3 0 -10 4 -15 9 -12 5 3 11 -3 14 -14
5 -19 7 -19 37 -3 27 13 34 13 41 2 11 -18 11 -29 1 -29 -4 0 -8 -12 -8 -27 1
-29 17 -53 35 -53 6 0 8 -8 4 -17 -6 -16 -4 -16 15 1 12 11 22 29 22 42 0 12
6 25 13 27 6 3 3 6 -8 6 -17 1 -17 3 -5 11 13 8 13 10 -1 10 -21 0 -30 22 -15
35 6 6 22 11 36 12 109 9 130 9 130 -1 0 -6 5 -3 11 7 8 13 14 15 30 7 15 -8
19 -7 19 4 0 11 8 15 30 12 25 -3 28 -1 19 10 -9 11 -6 14 20 14 18 0 31 5 31
13 0 6 5 4 11 -6 6 -9 15 -15 21 -11 6 4 5 9 -3 15 -9 6 -3 8 18 6 17 -1 29
-5 26 -9 -2 -5 1 -8 6 -8 6 0 11 -7 11 -15 0 -8 6 -15 13 -15 7 0 6 -4 -4 -10
-12 -7 -15 -23 -13 -66 2 -49 7 -59 35 -85 35 -31 49 -36 49 -16 0 8 4 7 10
-3 8 -13 10 -13 10 1 0 29 24 41 39 20 12 -16 17 -17 40 -5 14 8 31 14 38 14
17 0 31 30 37 76 2 21 5 41 6 44 1 3 3 19 4 35 0 18 6 29 14 28 6 -2 12 1 12
6 0 13 152 4 160 -10 5 -8 13 -7 29 2 22 15 28 29 11 29 -7 0 -7 6 -2 18 5 9
7 64 6 122 -2 58 -4 115 -4 128 0 48 -43 64 -131 50 -33 -6 -95 13 -109 33 -6
8 -165 3 -179 -5 -14 -9 -31 18 -40 69 -10 55 2 110 27 124 9 6 12 11 6 11
-19 0 -36 53 -41 130 -6 95 -8 101 -35 96 -26 -3 -34 -26 -19 -54 8 -15 7 -23
-4 -32 -8 -7 -13 -16 -10 -20 7 -12 -24 -19 -58 -15 -29 3 -72 34 -62 43 3 3
-3 14 -12 25 -10 11 -12 17 -5 13 6 -4 12 -2 12 3 0 6 -5 11 -11 11 -5 0 -8 4
-5 9 10 15 -117 24 -147 10 -15 -7 -27 -15 -28 -18 0 -3 -2 -15 -5 -26 -2 -11
1 -42 7 -68 16 -70 -2 -80 -31 -17 -24 51 -24 51 -5 86 10 20 31 44 46 55 32
23 29 46 -11 89 -38 41 -30 63 31 89 58 24 66 39 48 93 -12 36 -11 44 7 76 20
37 27 42 83 63 55 20 91 57 91 91 0 59 -71 177 -172 286 -39 42 -79 94 -89
117 -22 47 -25 90 -6 78 6 -4 59 -6 117 -4 242 6 408 10 830 16 245 3 460 8
478 11 27 4 34 11 39 35 11 56 29 60 252 57 110 -2 201 -1 201 2 0 3 64 5 142
5 132 0 141 -1 148 -20 4 -11 6 -31 4 -45 -1 -14 -5 -74 -8 -135 -4 -60 -13
-215 -21 -343 -13 -207 -13 -237 0 -269 23 -55 19 -85 -18 -125 -18 -19 -43
-60 -56 -89 -13 -30 -41 -92 -62 -139 -21 -47 -52 -119 -68 -161 -37 -95 -102
-229 -111 -229 -4 0 -15 10 -26 22 -13 14 -14 19 -4 14 8 -4 6 0 -4 8 -23 19
-28 16 -32 -21 -2 -19 4 -34 19 -46 12 -10 15 -15 7 -11 -8 4 -25 16 -37 27
l-22 19 5 -23 c3 -20 1 -18 -10 6 -9 17 -15 26 -16 20 0 -5 -5 -4 -12 3 -16
16 -31 15 -22 0 5 -8 0 -7 -11 2 -10 8 -20 14 -22 12 -2 -2 -19 1 -38 7 -34 9
-110 -2 -129 -20 -6 -5 -24 -9 -41 -9 -17 0 -40 -7 -51 -15 -12 -8 -25 -11
-29 -7 -5 4 -5 1 -1 -5 5 -9 1 -13 -12 -13 -15 0 -19 -6 -17 -25 2 -13 -3 -29
-11 -36 -12 -9 -13 -9 -9 4 4 8 1 18 -6 23 -7 4 -10 3 -5 -4 3 -6 -1 -17 -9
-25 -8 -9 -15 -23 -15 -31 0 -9 -5 -16 -11 -16 -5 0 -7 5 -3 12 4 7 3 8 -5 4
-6 -4 -23 -1 -36 8 -13 9 -32 16 -41 16 -10 0 -26 8 -36 17 -13 11 -38 17 -80
18 -39 1 -65 7 -72 16 -22 27 -48 36 -73 25 -28 -13 -29 -25 -19 -206 5 -86 7
-97 24 -125 7 -12 12 -15 12 -6 0 10 9 12 35 8 23 -4 35 -2 35 6 0 7 5 4 11
-5 13 -24 40 -24 32 0 -5 15 -4 16 11 1 10 -9 28 -14 45 -11 26 3 28 7 24 33
-2 18 0 29 7 29 8 0 10 9 6 24 -4 18 -1 28 11 35 17 10 17 10 1 11 -18 0 -24
15 -10 24 16 10 33 -11 31 -40 -3 -47 11 -98 29 -112 20 -15 145 -7 150 9 3 6
8 6 16 0 6 -5 37 -6 74 -2 37 4 62 4 62 -2 0 -5 7 -4 15 3 8 7 44 13 81 15
l66 3 -7 -31 c-3 -18 -11 -61 -16 -96 -5 -35 -11 -67 -14 -71 -2 -4 -11 -64
-20 -133 -15 -120 -32 -184 -59 -217 -11 -13 -76 -175 -121 -302 -9 -26 -21
-50 -26 -53 -5 -4 -9 -16 -9 -27 0 -12 -9 -32 -21 -44 -11 -12 -21 -29 -23
-38 -1 -8 -20 -27 -42 -42 -46 -33 -138 -41 -158 -14 -6 9 -26 15 -46 14 -21
0 -49 9 -69 22 l-35 23 -38 -21 c-21 -12 -41 -32 -44 -44 -8 -32 -44 -38 -72
-11 -19 18 -25 19 -32 7 -7 -12 -15 -12 -42 -3 -18 7 -51 10 -73 7 -22 -4 -54
-7 -72 -8 -18 -1 -38 -7 -45 -14 -18 -18 -88 -16 -88 2 0 8 4 18 10 21 5 3 10
19 10 36 0 16 4 29 9 29 5 0 11 6 14 13 8 20 -52 8 -66 -13 -8 -14 -16 -16
-33 -10 -19 8 -24 5 -33 -20 -21 -62 -100 -43 -86 20 5 23 3 22 -25 -10 -22
-24 -30 -29 -30 -17 0 44 -47 -3 -52 -52 -4 -40 -19 -49 -42 -25 -26 25 -63 5
-64 -35 -1 -30 0 -31 41 -29 41 3 42 2 39 -25 -2 -16 4 -40 12 -53 9 -13 16
-30 16 -38 0 -12 -5 -12 -37 1 -45 18 -97 85 -88 114 4 12 1 21 -8 25 -17 6
-57 93 -57 123 0 12 6 21 13 21 6 0 23 9 36 19 l25 19 -33 -2 c-17 -1 -35 -7
-40 -14 -8 -14 -29 25 -67 126 -30 81 -94 205 -111 215 -7 4 -13 15 -13 23 0
8 -16 40 -36 71 -19 30 -33 57 -30 60 2 3 -13 33 -33 67 -21 34 -42 73 -46 87
-7 21 -6 22 9 10 27 -22 18 1 -22 59 -49 70 -56 89 -37 96 21 8 19 30 -6 55
l-20 20 -6 -20 c-7 -26 -21 -18 -39 23 -11 27 -13 -13 -14 -306 0 -259 3 -339
12 -345 7 -4 20 -17 28 -28 10 -15 7 -13 -13 4 l-27 25 0 -330 c1 -310 2 -332
20 -359 11 -17 20 -26 20 -21 0 6 6 1 14 -10 10 -13 11 -23 4 -31 -7 -9 -7
-13 1 -13 6 0 11 -7 11 -15 0 -9 6 -12 17 -8 13 5 15 2 10 -11 -5 -12 -2 -16
10 -14 9 2 18 -3 21 -11 3 -8 0 -11 -7 -7 -15 10 -14 -2 2 -18 9 -9 16 -8 29
5 14 15 14 20 2 44 -7 14 -13 29 -13 33 3 21 -2 32 -12 26 -8 -4 -8 -1 -1 12
5 11 7 26 5 34 -14 44 34 -44 87 -161 86 -186 105 -241 114 -320 7 -59 39
-131 98 -219 9 -14 24 -43 33 -65 l16 -40 -20 25 c-11 14 -28 39 -36 55 -17
34 -28 52 -66 110 -15 22 -38 63 -52 91 -37 73 -77 129 -142 199 -30 33 -55
63 -55 67 0 5 -13 8 -29 8 -16 0 -34 7 -41 15 -11 13 -10 18 6 31 13 10 15 17
7 20 -7 3 -9 12 -6 20 3 8 -1 14 -11 14 -9 0 -15 3 -15 8 3 18 -2 32 -11 32
-14 0 -12 -84 2 -98 9 -9 9 -12 0 -12 -9 0 -12 -299 -12 -1315 l0 -1315 356 0
c217 0 353 4 349 9 -3 5 0 13 6 17 8 4 7 9 -2 15 -11 7 -10 9 4 9 11 0 21 -9
24 -20 6 -24 37 -35 60 -21 15 10 14 11 -7 7 -22 -3 -25 0 -27 28 -2 27 -1 29
11 14 7 -10 16 -15 19 -11 11 10 8 25 -3 18 -15 -9 -12 4 5 21 12 12 15 12 15
2 0 -10 3 -9 10 2 15 23 12 29 -10 23 -11 -3 -20 0 -20 6 0 5 6 8 14 5 19 -7
29 12 22 42 -5 17 -12 24 -21 20 -20 -7 -19 4 2 21 16 13 16 13 -4 3 -19 -9
-23 -8 -23 5 0 9 -5 13 -10 10 -6 -4 -8 -10 -5 -14 2 -5 -7 -6 -20 -3 -29 5
-36 13 -40 47 -1 13 -10 35 -19 49 -16 25 -17 25 -45 8 -16 -9 -28 -19 -26
-22 2 -3 -7 -7 -20 -8 -13 -1 -27 3 -30 8 -4 7 -13 7 -24 0 -10 -5 -21 -6 -25
-2 -4 3 -5 0 -2 -8 4 -10 -3 -19 -19 -27 -14 -6 -25 -7 -25 -2 0 5 7 12 15 15
14 6 13 8 -2 19 -20 15 -15 25 14 29 10 2 18 11 18 22 0 10 6 18 13 16 6 -1
12 4 12 10 0 10 3 9 9 -1 7 -11 12 -10 28 6 11 11 24 18 30 16 6 -2 14 1 18 6
3 7 0 8 -10 5 -12 -5 -14 -1 -12 17 2 13 11 25 20 27 13 3 17 -4 17 -27 0 -36
10 -39 36 -10 13 15 15 23 7 26 -7 2 -10 10 -7 17 3 8 -1 16 -9 19 -9 3 -15
19 -15 39 0 18 -2 50 -5 70 -4 26 -1 38 9 42 19 7 30 -14 13 -26 -10 -7 -8 -8
8 -5 21 5 28 -3 24 -26 -4 -24 18 8 24 33 4 17 10 28 14 26 13 -9 31 10 40 42
9 29 7 32 -11 32 -17 0 -19 2 -7 16 7 8 21 13 30 11 10 -3 20 0 22 7 3 6 31
20 63 30 65 20 101 42 156 94 20 19 41 31 47 28 13 -9 31 -72 31 -114 0 -18 6
-45 14 -60 7 -15 17 -49 20 -77 4 -27 25 -95 46 -150 21 -55 44 -129 50 -165
6 -36 23 -120 38 -187 l26 -123 3648 0 3648 0 0 135 0 134 -28 -5 c-21 -4 -36
1 -60 21 -48 40 -57 63 -36 86 16 18 16 22 -1 80 -10 33 -27 66 -38 74 -24 17
-9 27 48 32 40 3 43 2 49 -27 6 -32 31 -49 47 -33 6 6 4 21 -8 41 -17 30 -17
31 5 61 27 37 31 111 6 111 -12 0 -15 -6 -10 -24 8 -32 -5 -39 -32 -20 -30 20
-29 54 1 54 12 0 30 12 40 25 15 21 16 30 6 63 -8 29 -8 44 0 60 17 31 15 549
-2 555 -9 4 -9 6 1 6 17 1 18 5361 1 5361 -6 0 -8 7 -5 16 3 8 2 12 -3 9 -5
-3 -12 -1 -15 4 -4 5 -2 12 4 16 6 4 7 11 4 17 -5 7 -1 9 9 5 16 -6 17 31 17
494 0 354 -3 498 -11 494 -14 -9 -59 34 -53 50 10 24 -14 53 -40 50 -22 -3
-24 -1 -16 20 7 19 6 23 -5 18 -12 -4 -15 3 -15 31 0 26 -6 38 -22 47 -29 15
-38 28 -38 55 0 11 -6 29 -14 39 -14 19 -15 19 -27 -7 -6 -15 -19 -30 -28 -33
-9 -3 -21 -15 -26 -27 -11 -25 -51 -36 -68 -19 -6 6 -17 11 -25 11 -19 0 -51
-79 -46 -116 3 -28 0 -33 -24 -39 -15 -3 -40 -18 -56 -33 -19 -18 -30 -23 -33
-14 -3 6 -13 12 -24 12 -19 0 -21 6 -23 60 -1 23 -7 26 -35 22 -5 -1 -12 -11
-16 -21 -6 -20 -12 -20 -82 -5 -16 3 -39 5 -52 5 -14 -1 -32 7 -42 16 -47 47
-64 52 -114 33 -25 -10 -25 -11 -20 -87 3 -43 8 -91 10 -107 6 -45 -10 -73
-48 -85 -30 -10 -36 -17 -40 -49 -2 -20 -1 -41 4 -46 4 -5 3 -20 -2 -34 -5
-14 -7 -33 -3 -41 4 -9 6 -36 4 -61 l-2 -45 24 23 c46 42 87 19 88 -50 0 -28
-5 -38 -19 -43 -11 -3 -22 -14 -25 -23 -4 -12 -16 -18 -34 -17 -21 0 -28 -5
-30 -23 -2 -12 -13 -27 -25 -34 -12 -6 -26 -17 -32 -25 -5 -7 -29 -14 -53 -17
-23 -2 -45 -6 -49 -10 -24 -23 -54 36 -41 82 5 17 13 32 18 32 14 0 2 46 -26
100 -27 51 -31 92 -9 110 8 7 15 18 15 25 0 6 11 18 25 25 31 16 32 31 4 48
-26 16 -36 8 -54 -44 -10 -29 -19 -39 -35 -39 -11 0 -25 -6 -29 -13 -4 -7 -14
-10 -23 -7 -13 5 -14 -1 -8 -42 9 -54 -4 -83 -35 -83 -31 0 -45 -19 -45 -60 0
-25 -7 -42 -22 -55 -27 -23 -58 -27 -64 -8 -2 7 -7 21 -11 31 -3 9 -5 21 -4
25 3 14 -20 48 -29 42 -4 -3 -21 0 -36 5 -23 9 -29 8 -38 -7 -25 -42 -23 -57
15 -95 20 -21 42 -51 49 -68 15 -35 30 -38 55 -10 17 18 45 28 45 15 0 -16
-38 -60 -69 -80 -20 -12 -85 -64 -145 -114 -112 -93 -146 -108 -165 -73 -6 10
-30 35 -55 56 l-45 36 -20 -21 c-10 -11 -42 -32 -70 -45 -28 -12 -51 -28 -51
-34 0 -6 -4 -9 -9 -5 -19 11 -93 -8 -121 -31 -16 -14 -31 -39 -34 -59 l-7 -35
-65 0 -65 0 7 35 c4 22 2 41 -5 49 -13 16 -5 86 10 86 5 0 9 17 9 38 0 55 9
78 34 90 18 8 30 6 54 -10 l31 -19 15 33 c21 47 40 68 67 73 13 3 26 10 27 15
3 8 8 8 17 0 14 -12 48 -3 39 11 -3 5 -16 9 -29 9 -29 0 -32 5 -41 57 -5 33
-2 44 21 71 38 46 79 45 95 -3 8 -25 8 -39 0 -55 -6 -12 -9 -26 -7 -33 2 -7
-3 -17 -12 -24 -9 -6 -13 -14 -9 -18 10 -10 69 37 79 63 5 13 9 47 9 76 0 37
6 61 19 78 31 39 44 103 32 160 -8 34 -8 55 -1 69 7 12 7 19 1 19 -6 0 -8 7
-5 15 8 20 -20 20 -40 -1 -9 -8 -16 -21 -16 -27 0 -7 -7 -4 -14 5 -7 10 -16
15 -19 11 -4 -3 -7 0 -7 7 0 7 -3 11 -6 7 -9 -8 -30 14 -38 41 -12 37 -63 72
-105 72 -24 0 -52 9 -75 25 -20 14 -43 25 -50 25 -34 0 -66 73 -44 102 16 23
108 41 126 26 9 -8 9 -13 2 -18 -6 -4 -1 -15 13 -28 19 -18 37 -22 104 -24 76
-3 84 -1 110 23 15 15 38 32 50 38 12 6 42 54 73 117 50 105 51 108 44 173 -3
36 -13 78 -20 93 -8 15 -14 45 -14 68 0 25 -5 40 -12 40 -18 1 -49 25 -53 42
-10 42 -20 55 -54 71 -34 17 -90 89 -84 108 1 4 -11 9 -27 12 -29 6 -31 10
-30 80 0 77 -1 86 -12 93 -7 5 -8 2 -3 -6 6 -10 4 -11 -6 -4 -23 14 -39 13
-39 -2 0 -8 -6 -11 -15 -8 -8 4 -13 10 -10 14 11 18 -22 16 -48 -2 -21 -15
-37 -18 -62 -14 -42 8 -58 35 -53 87 l4 40 -298 -1 c-164 -1 -298 -5 -298 -10
0 -5 5 -12 12 -16 7 -5 8 -3 3 6 -5 8 -4 11 3 6 6 -4 9 -13 6 -20 -7 -18 -46
-28 -58 -16 -7 7 -6 10 2 10 7 0 3 9 -8 20 -19 19 -31 20 -168 18 l-147 -3 -7
-25 c-4 -14 -10 -42 -13 -63 -5 -30 -13 -41 -43 -56 -20 -10 -47 -33 -60 -50
-43 -59 -112 -31 -112 46 0 18 -5 43 -11 57 -7 14 -9 31 -7 38 3 7 5 18 4 23
-1 12 -96 7 -112 -6 -14 -11 -25 -61 -13 -53 5 3 9 0 9 -6 0 -6 6 -10 13 -9
25 3 33 -1 33 -19 0 -14 -6 -17 -26 -14 -20 3 -22 1 -10 -7 8 -6 10 -11 4 -11
-12 0 -30 18 -36 35 -1 5 -7 8 -13 7 -44 -16 -71 -11 -88 13 -27 37 -16 69 30
88 35 14 16 15 -282 13 -176 -2 -335 -6 -354 -11 -22 -5 -32 -4 -28 2 4 6 -22
11 -67 12 -66 2 -76 0 -92 -21 -14 -18 -28 -23 -57 -22 -32 1 -40 -3 -52 -27
-9 -15 -25 -39 -38 -52 -26 -27 -43 -53 -57 -85 -8 -18 -6 -27 5 -38 8 -9 15
-19 15 -24 0 -4 15 -25 33 -45 30 -34 37 -37 68 -31 19 3 46 13 62 20 24 13
27 13 27 -2 0 -15 2 -15 11 -2 9 12 10 12 5 -4 -4 -10 -1 -24 4 -32 9 -9 5
-17 -14 -29 -23 -15 -36 -36 -36 -58 0 -4 -7 -21 -15 -37 -13 -24 -22 -30 -50
-30 -36 0 -38 -3 -51 -73 -8 -47 -26 -56 -69 -33 -40 22 -61 62 -44 82 6 8 8
14 3 14 -4 0 -3 5 4 12 18 18 15 74 -5 93 -14 14 -15 22 -6 46 13 33 11 35
-11 13 -10 -9 -16 -11 -16 -4 0 7 -6 6 -15 -4 -8 -8 -15 -22 -15 -30 0 -9 -5
-16 -10 -16 -11 0 -3 -47 10 -65 14 -19 16 -90 5 -153 l-8 -42 31 6 c24 5 34
1 49 -17 10 -12 30 -34 44 -48 15 -14 29 -40 32 -56 5 -26 1 -34 -28 -54 -42
-28 -81 -33 -102 -12 -24 24 -55 100 -50 122 3 12 0 19 -9 19 -7 0 -18 9 -24
20 -6 11 -21 20 -35 20 -13 0 -27 4 -30 10 -3 5 -24 9 -45 8 -51 -2 -80 23
-80 68 0 41 23 64 64 64 48 0 69 20 69 67 0 51 -8 64 -36 59 -12 -3 -25 -5
-29 -5 -5 -1 -8 -6 -8 -11 0 -6 -9 -20 -20 -32 -10 -12 -18 -24 -16 -27 2 -3
-12 -7 -32 -9 -21 -1 -42 -9 -48 -17 -6 -8 -18 -15 -26 -15 -20 0 -138 -115
-138 -134 0 -9 -4 -16 -10 -16 -5 0 -10 -9 -10 -21 0 -11 -4 -17 -10 -14 -5 3
-15 -5 -22 -19 -12 -27 -23 -33 -32 -17 -6 9 -53 7 -118 -5 -24 -4 -38 -3 -38
4 0 5 -9 12 -20 15 -17 4 -20 12 -18 45 l3 40 70 -3 c77 -3 108 -12 98 -28 -3
-5 -1 -7 5 -3 6 3 13 2 17 -4 10 -17 25 -11 18 7 -4 10 -2 14 4 10 18 -11 32
16 28 55 -3 31 -1 36 13 31 15 -6 15 -5 3 10 -7 9 -9 17 -3 17 19 0 21 31 5
72 -15 37 -17 39 -30 22 -7 -10 -13 -13 -13 -7 0 6 -11 8 -26 5 -14 -2 -21 -8
-15 -11 12 -8 8 -44 -5 -48 -14 -5 -13 90 0 99 7 5 6 8 -3 8 -11 0 -9 4 5 14
18 14 18 15 2 21 -10 4 -25 5 -33 1 -13 -5 -19 5 -16 26 0 4 -7 9 -17 12 -15
5 -18 17 -16 79 1 39 7 85 13 100 14 35 14 77 1 77 -5 0 -10 6 -10 14 0 8 -9
17 -19 21 -13 4 -17 12 -14 25 5 20 -8 20 -1440 20 -1376 0 -1446 -1 -1451
-18z m4484 -52 c-8 -5 -10 -10 -5 -10 14 0 12 -57 -2 -71 -17 -17 -16 -29 1
-43 28 -21 30 -62 5 -85 -24 -22 -55 -29 -43 -9 5 8 2 9 -12 4 -10 -5 -25 -9
-32 -9 -7 0 -27 -20 -44 -44 -41 -56 -70 -64 -103 -29 -14 15 -25 31 -25 35 0
5 -8 11 -19 14 -16 4 -19 15 -20 84 -2 96 15 124 74 118 21 -2 35 1 35 8 0 9
2 9 8 1 4 -6 32 -16 63 -21 44 -7 56 -7 56 4 0 7 -4 13 -9 13 -12 0 23 36 42
43 8 3 22 6 30 6 13 1 13 0 0 -9z m-1638 -63 c4 -6 -9 -26 -27 -44 -37 -36
-85 -42 -108 -14 -9 12 -9 13 0 8 8 -5 15 0 18 15 11 43 95 68 117 35z m2412
-52 c15 -14 26 -31 24 -37 -7 -19 -51 -47 -84 -54 -27 -5 -33 -3 -40 17 -14
44 -11 70 10 84 30 22 60 18 90 -10z m562 -233 c19 -13 31 -43 26 -68 -5 -29
-92 -78 -121 -69 -21 6 -41 46 -41 81 0 43 97 83 136 56z m-960 -37 c-23 -18
-36 -19 -36 -4 0 5 5 7 10 4 6 -3 10 -1 10 4 0 6 8 11 18 11 15 -1 15 -2 -2
-15z m-26 -105 c0 -5 -4 -10 -10 -10 -5 0 -10 5 -10 10 0 6 5 10 10 10 6 0 10
-4 10 -10z m1256 -7 c21 -28 17 -80 -5 -93 -35 -18 -60 -12 -76 20 -20 40 -19
56 7 74 29 21 58 20 74 -1z m-388 -9 c18 -8 32 -19 32 -24 0 -5 3 -15 6 -24 4
-10 -5 -20 -25 -30 -34 -18 -91 -21 -91 -5 0 5 -4 8 -9 4 -5 -3 -12 -1 -15 4
-3 5 0 11 8 14 8 3 12 15 9 29 -3 18 1 27 19 35 31 15 30 15 66 -3z m-1722
-55 c25 -24 43 -32 85 -36 64 -6 99 -33 99 -75 0 -21 6 -31 25 -38 14 -5 25
-15 26 -22 0 -7 2 -28 3 -46 1 -18 -3 -41 -10 -50 -12 -16 -14 -16 -41 4 -15
12 -30 34 -33 50 -4 20 -16 35 -42 49 -32 17 -39 18 -62 5 -36 -19 -33 -42 12
-87 33 -35 42 -39 91 -41 29 0 55 -3 57 -5 3 -2 5 -20 6 -40 1 -25 -8 -49 -27
-76 -25 -37 -27 -44 -17 -81 5 -22 6 -37 1 -35 -4 3 -15 -7 -23 -23 -13 -26
-13 -30 2 -46 11 -10 13 -19 7 -24 -21 -15 -16 -58 10 -84 14 -14 30 -40 37
-58 10 -31 9 -35 -16 -56 -34 -30 -51 -22 -78 37 -13 27 -28 49 -34 49 -20 0
-104 92 -112 123 -10 38 1 59 51 92 51 36 84 113 54 132 -7 4 -21 21 -31 37
-17 26 -22 28 -61 23 l-43 -6 -6 43 c-4 23 -4 50 -1 58 4 11 0 18 -13 22 -20
7 -40 37 -46 71 -2 11 -11 33 -19 49 -22 40 -6 77 41 98 54 24 72 22 108 -13z
m1954 -39 c6 -11 22 -31 35 -46 25 -27 33 -76 17 -100 -9 -14 -68 -29 -100
-25 -14 2 -34 -7 -47 -19 -29 -28 -66 -23 -82 10 -17 36 -6 67 28 79 20 7 29
17 29 32 0 12 9 37 21 55 17 28 27 34 54 34 24 0 38 -6 45 -20z m-3164 -35
c19 -18 29 -111 14 -120 -6 -4 -8 -15 -5 -25 14 -44 14 -59 -1 -53 -13 5 -19
29 -15 60 1 6 -3 14 -9 18 -23 14 -39 74 -29 105 12 33 23 37 45 15z m1513 -1
c7 4 9 1 5 -8 -10 -27 -31 -26 -31 1 0 16 2 20 7 13 4 -7 13 -10 19 -6z m-787
-194 c24 -30 23 -69 -4 -91 -11 -11 -24 -19 -27 -19 -15 1 -51 39 -70 75 -18
34 -19 40 -6 48 9 4 13 12 10 16 -11 19 81 -9 97 -29z m-666 -56 c40 -43 44
-79 13 -118 -47 -60 -98 -12 -85 82 3 26 11 49 16 50 6 2 8 8 4 13 -14 24 21
5 52 -27z m2994 1 c14 -44 5 -75 -22 -75 -27 0 -58 28 -58 52 0 33 19 58 45
58 18 0 26 -8 35 -35z m-2182 -85 c23 -27 38 -37 42 -29 5 7 14 -4 25 -27 22
-50 92 -105 123 -97 16 4 31 -2 48 -18 20 -18 24 -30 20 -61 -5 -48 -24 -103
-48 -145 -25 -42 -18 -78 17 -87 13 -3 41 -17 61 -31 20 -14 40 -25 44 -25 12
0 0 -140 -15 -170 -12 -23 -22 -30 -45 -30 -38 0 -38 -12 1 -42 67 -50 79 -66
79 -102 0 -19 4 -46 10 -60 15 -41 -25 -112 -57 -101 -6 2 -14 -3 -17 -11 -3
-9 -1 -12 4 -9 6 3 10 1 10 -4 0 -6 -4 -11 -10 -11 -5 0 -1 -9 10 -20 11 -11
25 -20 32 -20 6 0 9 -2 6 -6 -3 -3 -2 -19 2 -37 10 -47 -16 -89 -64 -102 -32
-7 -40 -6 -51 8 -14 20 -41 14 -54 -12 -5 -9 -20 -17 -34 -19 -34 -2 -60 49
-44 87 21 50 31 193 26 351 -2 60 -7 82 -27 112 -13 20 -26 55 -29 77 -4 29
-10 41 -22 41 -14 0 -14 -2 -1 -11 13 -9 13 -10 0 -6 -24 6 -52 65 -52 107 1
55 22 120 40 120 9 0 12 -6 8 -15 -3 -10 1 -19 12 -23 9 -4 18 -16 19 -27 1
-11 4 -29 7 -40 2 -11 5 -30 5 -43 1 -12 4 -21 9 -21 19 3 33 -2 27 -11 -3 -5
3 -10 13 -10 16 0 20 7 20 34 0 19 3 39 6 45 4 5 0 13 -7 18 -8 4 -24 27 -36
50 -55 109 -120 174 -105 106 l6 -28 -19 23 c-16 20 -25 22 -60 16 -35 -5 -43
-3 -52 14 -22 41 -4 87 40 105 12 5 11 7 -1 16 -12 9 -11 11 7 11 12 0 23 -6
26 -12 2 -7 8 -10 12 -6 5 4 1 25 -7 45 -36 90 -45 134 -32 167 10 26 34 18
72 -24z m711 -61 c16 -17 27 -20 55 -15 20 4 44 2 55 -4 13 -7 22 -7 26 0 7
12 55 13 71 2 24 -15 26 -51 5 -78 -27 -34 -26 -38 4 -52 26 -12 34 -52 16
-81 -8 -12 -13 -12 -35 3 -15 9 -24 21 -22 25 10 16 -48 -2 -83 -26 -19 -13
-45 -26 -59 -30 -30 -7 -92 21 -92 42 0 8 -4 15 -8 15 -11 0 -42 99 -42 134 0
29 16 66 34 78 21 14 55 8 75 -13z m-799 -34 c0 -8 -7 -15 -15 -15 -26 0 -18
20 13 29 1 1 2 -6 2 -14z m-222 -76 c13 -5 35 -9 50 -9 71 0 117 -68 92 -135
-6 -17 -14 -46 -16 -65 -2 -19 -11 -41 -19 -49 -12 -13 -12 -16 3 -27 21 -15
25 -135 4 -142 -7 -2 -18 -9 -25 -16 -7 -7 -17 -11 -23 -9 -6 2 -14 -6 -17
-18 -4 -14 -10 -18 -19 -13 -7 5 -23 10 -36 12 -20 2 -22 0 -16 -25 4 -22 3
-25 -5 -13 -8 12 -11 7 -11 -22 0 -44 -3 -45 -31 -17 l-21 21 21 -7 c12 -3 21
-2 21 3 0 9 -6 11 -54 15 -47 3 -61 39 -81 202 -2 17 -7 49 -10 72 -9 62 34
202 72 235 33 28 58 30 121 7z m4375 -9 c3 -13 0 -20 -8 -20 -18 0 -26 15 -19
34 7 20 20 13 27 -14z m455 -18 c47 13 65 -6 66 -69 l1 -48 -42 0 c-28 0 -50
-7 -69 -22 -16 -13 -34 -23 -41 -23 -14 0 -53 35 -53 48 0 5 -7 9 -15 9 -12 0
-14 -7 -10 -26 5 -27 -9 -60 -21 -48 -4 4 -12 3 -18 -2 -27 -21 -57 -19 -72 4
-20 31 -9 70 27 95 15 11 31 29 34 40 7 23 25 27 25 6 0 -7 7 -19 15 -26 12
-10 15 -10 15 1 0 8 5 6 14 -6 13 -18 14 -18 20 2 3 11 18 25 31 31 14 6 25
19 25 27 0 12 4 14 17 7 10 -6 29 -6 51 0z m-5553 -69 c2 -7 2 -26 -1 -42 -5
-22 -10 -27 -25 -24 -10 3 -16 9 -13 14 2 5 -4 16 -15 25 -18 16 -19 18 -3 39
13 18 20 20 34 11 10 -6 20 -16 23 -23z m5119 29 c2 -4 -4 -8 -14 -8 -10 0
-16 4 -14 8 3 4 9 8 14 8 5 0 11 -4 14 -8z m-9 -32 c3 -5 1 -10 -4 -10 -6 0
-11 5 -11 10 0 6 2 10 4 10 3 0 8 -4 11 -10z m-1630 -21 c12 -13 20 -39 22
-72 2 -29 4 -58 5 -65 1 -8 13 -19 27 -25 14 -6 29 -16 33 -22 12 -16 9 -80
-4 -93 -17 -17 -88 -16 -88 2 0 10 -11 13 -34 12 -26 -1 -36 3 -40 16 -2 10
-13 18 -24 18 -47 0 -67 82 -37 153 36 88 99 122 140 76z m-3009 -154 c33 -71
38 -111 22 -160 -24 -74 -106 -87 -128 -20 -14 42 -23 43 -62 10 -36 -30 -48
-31 -81 -5 -33 26 -51 81 -42 128 14 79 64 87 117 21 35 -43 40 -42 58 13 6
21 21 45 33 53 39 27 56 19 83 -40z m1456 -90 c24 -28 33 -86 11 -78 -7 3 -13
10 -13 16 0 6 -11 0 -24 -12 -21 -19 -22 -27 -15 -67 5 -26 5 -55 -1 -70 -16
-42 -11 -261 7 -272 16 -11 30 -44 48 -112 20 -79 28 -89 53 -67 11 10 26 15
35 11 20 -7 46 -46 50 -74 2 -12 16 -31 30 -43 18 -15 32 -41 42 -80 25 -96
20 -129 -22 -180 -36 -43 -40 -45 -78 -39 -22 3 -52 6 -67 6 -16 1 -28 5 -28
9 0 18 -29 37 -47 30 -32 -11 -44 -25 -33 -38 5 -6 11 -21 13 -33 2 -12 6 -24
9 -28 7 -6 -30 -51 -38 -46 -2 1 -20 -4 -39 -12 -32 -14 -36 -13 -45 4 -5 10
-12 41 -14 69 -5 62 9 77 77 80 10 1 15 6 12 11 -3 6 0 13 8 16 8 3 17 19 21
36 4 21 10 29 21 24 9 -3 15 0 15 9 0 8 7 15 17 15 9 0 13 3 10 6 -3 4 -2 15
3 25 8 14 5 21 -10 32 -11 7 -17 17 -13 20 3 4 2 7 -4 7 -7 0 -8 15 -2 43 4
23 4 46 -1 51 -5 5 -28 10 -51 11 -58 3 -66 19 -61 109 l4 75 -41 -5 c-22 -3
-49 0 -59 5 -36 19 -56 179 -27 217 8 10 15 33 15 49 1 34 20 62 67 93 30 21
31 24 26 80 -7 79 19 109 110 121 4 1 17 -10 29 -24z m1188 6 c15 -2 4 -48
-14 -61 -27 -19 -66 -31 -66 -19 0 5 -9 9 -20 9 -11 0 -20 5 -20 10 0 6 -9 10
-19 10 -11 0 -23 5 -27 11 -7 11 13 29 31 28 6 0 4 -3 -2 -6 -15 -5 -17 -23
-4 -23 5 0 12 9 16 19 8 25 38 30 125 22z m-970 -64 c0 -4 4 -6 9 -3 5 3 11
-8 13 -24 9 -58 -45 -76 -88 -29 -18 20 -18 21 -1 30 10 6 14 15 11 21 -4 7
-2 8 4 4 7 -4 12 -3 12 1 0 5 9 9 20 9 11 0 20 -4 20 -9z m1213 -5 c21 -23 20
-92 -1 -92 -17 0 -62 38 -62 52 0 11 33 57 41 58 3 0 13 -8 22 -18z m-1370
-28 c-9 -23 -23 -16 -21 10 2 19 5 22 15 15 6 -6 9 -17 6 -25z m-1884 -41 c1
23 17 22 24 -3 6 -24 -29 -68 -43 -54 -6 6 -7 25 -3 44 5 29 8 31 14 15 7 -17
8 -18 8 -2z m5151 -49 c0 4 10 1 23 -6 12 -7 33 -14 47 -16 50 -7 32 -13 -33
-10 -65 2 -87 14 -71 39 3 6 -6 7 -23 4 -27 -6 -27 -6 -9 9 18 15 22 14 43 -6
13 -12 23 -18 23 -14z m-4450 -70 c0 -49 -39 -94 -60 -69 -7 8 -10 15 -6 15 4
0 0 12 -7 27 -15 27 -7 83 15 110 17 21 58 -38 58 -83z m4177 70 c-3 -3 -12
-4 -19 -1 -8 3 -5 6 6 6 11 1 17 -2 13 -5z m-4840 -10 c-3 -3 -12 -4 -19 -1
-8 3 -5 6 6 6 11 1 17 -2 13 -5z m4303 -18 c0 -3 -4 -8 -10 -11 -5 -3 -10 -1
-10 4 0 6 5 11 10 11 6 0 10 -2 10 -4z m948 -17 c-2 -6 -8 -10 -13 -10 -5 0
-11 4 -13 10 -2 6 4 11 13 11 9 0 15 -5 13 -11z m-5198 -18 c0 -5 8 -11 18
-14 9 -4 40 -15 69 -26 28 -10 54 -17 57 -13 3 3 15 -3 26 -13 41 -37 12 -135
-40 -135 -12 0 -35 11 -52 25 -33 28 -53 32 -61 11 -3 -8 -16 -14 -28 -13 -28
2 -50 50 -39 86 4 14 6 40 5 56 -1 17 0 33 2 38 6 10 43 9 43 -2z m4440 -10
c0 -5 -10 -11 -22 -14 -22 -6 -22 -6 -4 8 23 17 26 18 26 6z m-170 -11 c0 -5
-4 -10 -10 -10 -5 0 -10 5 -10 10 0 6 5 10 10 10 6 0 10 -4 10 -10z m-3943
-21 c11 -11 5 -59 -8 -59 -5 0 -9 6 -10 13 0 6 -2 22 -3 35 -3 24 4 28 21 11z
m465 -6 c41 -48 60 -140 33 -163 -8 -7 -15 -9 -15 -4 0 4 -7 -1 -15 -12 -8
-10 -15 -15 -15 -10 0 5 -7 3 -15 -4 -12 -10 -20 -9 -40 4 -31 20 -45 54 -45
106 0 32 6 43 38 69 43 35 53 37 74 14z m4511 -12 c-3 -14 3 -20 24 -26 15 -5
34 -7 41 -6 7 1 16 -7 20 -19 4 -11 23 -28 42 -39 19 -10 36 -27 38 -37 2 -11
0 -15 -5 -8 -13 17 -106 70 -135 77 -16 4 -27 13 -25 19 1 7 -2 13 -8 13 -26
4 -65 18 -65 24 0 4 14 5 31 3 22 -3 30 -1 25 7 -4 6 -1 11 7 11 10 0 13 -7
10 -19z m-1023 -15 c0 -2 -11 -6 -25 -8 -13 -3 -22 -1 -19 3 5 9 44 13 44 5z
m-3745 -86 c3 -5 1 -10 -4 -10 -6 0 -11 5 -11 10 0 6 2 10 4 10 3 0 8 -4 11
-10z m1512 -2 c6 -7 10 -20 10 -28 0 -9 11 -41 26 -72 14 -32 24 -65 22 -75
-2 -10 -9 -47 -15 -83 -17 -95 -29 -127 -45 -127 -8 0 -20 16 -26 36 -14 45
-46 81 -71 81 -28 0 -58 18 -58 35 0 21 -19 28 -35 15 -11 -10 -18 -10 -29 -1
-21 18 -26 49 -9 63 12 10 17 9 28 -5 13 -18 25 -13 25 12 0 28 81 101 112
101 24 0 28 4 28 30 0 31 19 40 37 18z m-1406 -19 c4 -34 1 -48 -13 -63 -16
-16 -18 -15 -31 11 -14 28 -12 53 6 65 12 7 37 -1 38 -13z m4959 -94 c0 -8 6
-15 14 -15 8 0 18 -4 21 -10 3 -5 -3 -10 -14 -10 -11 0 -22 9 -26 19 -3 11
-14 22 -23 24 -12 3 -11 5 6 6 13 1 22 -5 22 -14z m-5177 -90 c11 -4 23 -3 30
4 29 29 139 -7 192 -64 69 -75 80 -96 63 -121 -4 -6 -9 -21 -11 -33 -5 -35
-27 -42 -58 -20 -24 17 -29 18 -36 4 -14 -24 -53 18 -53 56 0 38 -79 125 -105
115 -9 -3 -13 -2 -10 4 10 16 -7 11 -19 -5 -6 -9 -27 -18 -47 -21 -37 -6 -37
-6 -44 36 -5 31 -4 45 6 51 16 10 64 7 92 -6z m797 -5 c0 -5 -2 -10 -4 -10 -3
0 -8 5 -11 10 -3 6 -1 10 4 10 6 0 11 -4 11 -10z m137 -32 c-3 -8 -6 -5 -6 6
-1 11 2 17 5 13 3 -3 4 -12 1 -19z m-527 -93 c6 -3 7 -11 4 -17 -4 -7 -2 -8 5
-4 15 10 41 -17 41 -43 0 -11 -8 -25 -19 -30 -14 -8 -23 -6 -37 10 -11 12 -30
25 -43 30 -15 6 -21 15 -17 24 4 12 2 13 -13 6 -10 -6 -21 -8 -24 -5 -9 10 4
34 19 34 8 0 14 4 14 9 0 9 48 0 70 -14z m-3519 -6 c34 -18 117 -157 143 -238
22 -68 27 -100 42 -233 2 -20 0 -39 -5 -42 -9 -6 -58 119 -64 164 -8 54 -39
142 -53 147 -8 3 -14 15 -14 28 0 21 -39 102 -65 135 -33 41 -24 61 16 39z
m2539 -44 c7 -8 12 -35 12 -60 -1 -25 3 -45 8 -45 5 0 8 -19 5 -42 -6 -70 -18
-297 -15 -305 1 -5 20 -13 41 -19 21 -7 52 -23 69 -38 18 -14 39 -26 48 -27
46 -3 89 4 110 17 19 12 29 13 56 3 43 -15 86 -5 86 21 0 10 -4 21 -9 24 -5 3
-12 18 -16 33 -3 15 -10 30 -15 33 -5 3 -10 18 -12 34 -2 20 3 32 19 43 20 13
23 13 45 -12 31 -37 58 -45 85 -28 28 19 93 9 113 -16 36 -45 97 -47 102 -3 1
9 2 24 4 32 4 28 4 30 3 36 -1 13 36 31 54 26 19 -5 19 -11 1 -84 -5 -22 -3
-28 10 -28 9 0 19 -7 22 -15 10 -25 62 -32 231 -31 90 1 163 -1 163 -4 0 -4
55 -4 288 -1 20 1 31 5 27 11 -3 5 -1 10 6 10 8 0 9 15 5 53 -9 69 7 107 44
107 43 0 67 -36 69 -105 3 -92 3 -93 69 -93 31 0 91 -3 132 -6 157 -12 670
-13 720 -2 65 15 79 29 49 50 -19 13 -21 20 -13 42 5 15 17 32 26 38 14 8 22
4 42 -19 15 -17 26 -25 26 -20 0 6 4 5 8 -2 6 -10 14 -9 36 2 32 17 50 19 42
6 -3 -5 1 -14 9 -21 9 -7 13 -21 10 -31 -5 -16 -1 -19 27 -21 55 -3 72 -5 110
-12 46 -10 68 -3 117 37 21 18 53 43 70 57 18 14 48 40 68 58 37 33 63 41 63
20 0 -13 -130 -122 -222 -187 -62 -44 -103 -98 -111 -143 -7 -47 1 -54 32 -25
50 46 187 145 228 166 l42 21 12 -22 c6 -12 18 -48 25 -81 8 -32 36 -107 63
-165 59 -127 64 -146 91 -322 11 -74 22 -144 24 -155 2 -11 7 -54 11 -95 4
-41 15 -111 26 -155 18 -80 47 -253 74 -460 9 -60 19 -119 25 -130 22 -47 40
-99 40 -115 0 -9 -9 -25 -20 -35 -24 -22 -29 -55 -5 -35 33 28 54 -1 111 -154
14 -37 13 -41 -8 -64 l-23 -25 29 6 c32 5 53 -12 82 -70 9 -18 26 -44 39 -58
13 -14 22 -25 20 -25 -7 0 73 -152 97 -185 32 -43 99 -105 114 -105 7 0 14 -4
16 -9 2 -5 12 -11 23 -13 11 -1 23 -7 26 -11 9 -13 57 -18 64 -7 3 5 -1 10
-10 10 -9 0 -13 5 -9 11 4 7 -1 7 -16 -1 -20 -11 -22 -10 -17 4 4 10 1 16 -8
16 -8 0 -15 4 -15 10 0 5 -6 9 -12 7 -7 -1 -12 4 -11 11 2 6 -1 12 -6 12 -16
0 -63 48 -52 52 18 6 -4 28 -31 30 -15 1 -24 6 -21 11 3 5 -1 14 -8 19 -11 8
-10 9 4 4 18 -6 24 9 7 19 -6 4 -8 16 -4 27 5 18 3 20 -17 15 -14 -3 -31 -2
-39 3 -13 9 -13 10 0 10 8 1 4 6 -10 12 -16 6 -20 12 -12 15 9 4 8 10 -7 22
-27 23 -33 73 -8 68 7 -1 12 8 12 23 0 16 6 25 15 25 8 0 14 -7 14 -16 -1 -15
2 -15 25 -3 14 8 37 14 51 14 20 0 22 2 10 10 -12 7 -10 9 7 7 12 0 19 -5 16
-11 -4 -5 1 -7 12 -2 15 5 16 4 5 -9 -10 -12 -10 -15 1 -15 9 0 10 -3 2 -11
-17 -17 -4 -51 18 -44 22 7 22 5 9 -30 -9 -24 -8 -25 10 -15 17 9 20 8 20 -10
0 -11 6 -23 14 -26 9 -3 12 -12 9 -21 -4 -10 -2 -14 5 -9 6 3 14 1 18 -5 4 -8
3 -9 -4 -5 -7 4 -12 2 -12 -3 0 -6 -8 -12 -17 -12 -17 -1 -17 -2 0 -6 9 -2 17
-10 17 -16 0 -7 8 -3 16 8 15 19 15 19 8 -9 -6 -27 -5 -29 20 -24 25 5 27 2
30 -29 1 -7 5 -13 9 -13 4 0 12 0 18 0 5 0 7 6 3 13 -5 7 0 6 11 -3 10 -8 16
-10 12 -4 -4 7 0 15 9 18 12 4 15 2 10 -9 -3 -9 0 -15 10 -15 9 0 12 5 8 12
-5 7 -3 8 7 2 24 -15 38 -13 32 4 -5 14 -3 15 8 5 14 -14 30 -17 27 -5 0 4 2
15 7 25 6 15 9 15 19 3 18 -23 67 -51 64 -36 -2 7 3 15 11 18 9 3 11 0 6 -8
-5 -9 -4 -11 4 -6 9 6 9 11 0 22 -9 10 -9 17 0 28 6 7 8 21 5 31 -6 15 -5 16
15 4 11 -8 21 -18 21 -23 0 -4 7 -3 15 4 12 10 13 16 3 29 -9 12 -7 11 9 -2
16 -14 22 -15 27 -5 4 10 8 9 18 -4 11 -15 13 -14 23 15 15 47 42 45 114 -8
80 -59 165 -105 264 -144 94 -37 101 -38 143 -6 37 28 54 31 87 13 12 -7 24
-14 26 -15 2 -1 -9 -13 -25 -26 l-27 -24 64 -16 c35 -9 75 -18 89 -19 16 -2
26 -11 30 -28 10 -42 48 -33 88 20 19 25 40 46 48 48 14 4 54 -117 58 -177 1
-20 11 -54 20 -76 32 -69 34 -64 -55 -122 -19 -13 -49 -23 -68 -23 -35 0 -131
-30 -131 -41 0 -4 -23 5 -50 19 -47 24 -54 25 -96 14 -35 -10 -50 -10 -60 -1
-32 27 -5 69 45 69 26 0 38 20 19 34 -26 20 -27 42 -2 70 27 28 44 27 44 -4 0
-13 5 -17 14 -14 20 8 16 87 -4 95 -19 8 -66 -15 -73 -36 -8 -20 -51 -1 -65
30 -14 30 -47 37 -67 15 -11 -12 -13 -20 -6 -25 16 -9 13 -35 -4 -35 -8 0 -22
17 -31 38 l-16 37 -18 -40 c-23 -50 -24 -59 -5 -52 8 4 17 2 21 -4 7 -12 -15
-71 -30 -81 -7 -5 -7 -11 2 -20 6 -6 12 -20 12 -31 0 -16 -5 -18 -32 -12 -27
6 -31 5 -20 -6 14 -15 16 -55 4 -63 -10 -6 -54 32 -49 42 13 25 22 54 25 81 1
8 10 11 20 9 15 -4 17 0 14 23 -3 22 -9 28 -25 26 -13 -1 -25 7 -34 23 -9 19
-21 25 -48 26 -31 1 -35 -2 -35 -23 0 -19 -4 -24 -22 -21 -18 2 -23 10 -24 35
-2 49 -9 60 -42 66 -35 7 -75 45 -68 64 10 24 -13 13 -34 -17 -12 -17 -26 -27
-32 -24 -6 4 -19 -3 -28 -16 -24 -31 -63 -21 -80 20 -8 20 -18 29 -27 26 -8
-3 -23 -1 -34 4 -13 8 -19 7 -19 0 0 -7 -6 -10 -12 -8 -24 8 -37 -15 -21 -38
19 -30 7 -57 -24 -49 -16 4 -25 1 -29 -10 -4 -8 -17 -15 -30 -15 -13 0 -24 -4
-24 -10 0 -5 -12 -21 -27 -35 -16 -14 -35 -32 -45 -41 -9 -9 -19 -27 -23 -42
-3 -14 -16 -38 -28 -52 -12 -15 -26 -35 -32 -44 -12 -21 -45 -12 -45 13 0 20
-27 61 -41 61 -13 0 -12 -47 2 -55 6 -4 24 -25 40 -47 16 -23 29 -38 29 -33 0
4 7 2 15 -5 19 -16 20 -50 1 -50 -8 0 -17 7 -20 16 -3 9 -12 14 -20 11 -8 -3
-23 1 -34 9 -12 8 -41 17 -66 20 -44 5 -45 5 -48 -28 -2 -28 -8 -34 -30 -36
-16 -2 -28 -9 -28 -18 0 -10 -12 -14 -46 -12 -34 1 -50 -3 -60 -16 -6 -10 -28
-19 -48 -21 -39 -3 -40 -2 -51 78 -6 44 -5 48 19 57 33 12 34 30 1 30 -52 0
-73 83 -26 106 40 21 33 84 -10 84 -5 0 -9 -15 -9 -32 0 -18 -5 -40 -10 -48
-8 -13 -10 -13 -10 2 0 9 -9 20 -21 23 -29 10 -22 49 11 54 14 1 28 8 32 15
10 14 -33 26 -49 13 -9 -6 -13 -6 -13 2 0 18 -24 13 -43 -9 -23 -28 -22 -37
13 -77 34 -39 36 -46 14 -67 -21 -22 -27 -20 -62 15 -23 24 -42 32 -79 36 -50
5 -76 25 -66 49 3 8 0 21 -6 28 -17 20 11 84 41 95 20 8 21 10 6 16 -25 10
-22 27 13 71 l31 39 -26 3 c-27 3 -37 34 -15 47 10 7 53 -35 82 -78 12 -19 14
-19 45 -3 35 18 42 36 14 36 -11 0 -27 9 -37 20 -10 11 -27 20 -37 20 -11 0
-22 8 -25 19 -6 24 -53 26 -53 2 0 -9 -18 -40 -39 -69 -34 -45 -38 -57 -34
-91 4 -32 2 -40 -13 -45 -11 -3 -25 -16 -33 -28 -12 -20 -12 -24 8 -36 24 -16
29 -52 7 -52 -8 0 -22 10 -30 21 l-15 22 -24 -27 c-27 -29 -43 -32 -71 -11
-22 17 -56 20 -56 5 0 -5 16 -16 35 -24 43 -18 50 -62 13 -71 -35 -8 -68 -2
-68 12 0 7 -9 18 -20 25 -11 7 -20 21 -20 30 0 12 -8 18 -24 18 -13 0 -49 11
-80 25 -43 19 -60 33 -73 60 -18 37 -21 39 -41 27 -9 -6 -7 -18 9 -51 24 -50
19 -71 -16 -71 -31 0 -43 -25 -26 -53 21 -33 -18 -44 -56 -15 -7 6 -19 5 -31
-1 -14 -7 -25 -6 -42 6 -22 16 -24 15 -45 -12 -28 -34 -39 -28 -54 29 -16 66
-14 92 12 119 18 20 24 22 35 11 6 -7 12 -26 12 -42 0 -57 53 -69 66 -15 4 15
14 39 23 53 34 51 43 79 37 105 -6 23 -11 26 -33 20 -40 -10 -72 -38 -73 -62
0 -23 -24 -32 -35 -13 -4 6 -12 10 -18 9 -26 -3 -37 2 -37 16 0 23 -16 18 -28
-11 -7 -14 -16 -23 -20 -20 -4 2 -8 -8 -7 -22 0 -23 -4 -27 -28 -27 -21 1 -26
-3 -21 -17 6 -21 -14 -25 -22 -4 -3 8 1 37 10 64 12 43 12 51 0 56 -8 3 -14
15 -14 26 0 11 -5 20 -11 20 -8 0 -9 -14 -5 -44 l7 -44 -41 -7 c-23 -4 -44 -4
-48 0 -4 3 -14 27 -23 53 l-15 46 -23 -23 c-14 -14 -22 -33 -21 -49 3 -43 1
-52 -14 -52 -7 0 -20 7 -27 16 -12 15 -11 19 9 32 23 15 30 46 12 57 -5 3 -17
-10 -27 -29 -16 -34 -45 -48 -57 -27 -3 5 -28 8 -56 7 -45 -2 -50 0 -50 19 0
12 12 35 28 50 l27 27 -22 15 c-25 17 -31 51 -10 59 10 3 12 20 9 62 -5 66
-18 79 -43 49 l-19 -22 -6 23 c-6 21 -8 22 -25 6 -13 -11 -16 -25 -12 -45 3
-16 0 -42 -7 -58 -10 -24 -9 -33 4 -53 20 -30 23 -96 7 -127 -11 -19 -10 -25
5 -36 29 -20 97 -27 107 -9 6 11 13 12 29 3 11 -6 33 -8 49 -5 24 4 31 1 42
-21 13 -24 12 -28 -24 -64 -22 -22 -39 -47 -39 -58 0 -29 -28 -48 -48 -33 -10
7 -27 16 -39 21 -11 6 -24 15 -28 20 -18 30 -81 -12 -68 -45 3 -9 -2 -14 -15
-14 -12 0 -25 -7 -29 -15 -7 -12 -14 -13 -40 -3 -32 12 -53 43 -53 78 0 14 -7
20 -21 20 -16 0 -20 -5 -16 -20 5 -21 -1 -24 -27 -14 -28 11 -18 47 20 72 20
12 40 22 45 22 5 0 18 6 29 13 17 10 22 9 29 -2 6 -10 12 -5 24 17 25 52 -7
58 -59 12 -28 -24 -41 -29 -67 -24 -17 3 -50 6 -72 7 -33 2 -40 6 -40 22 0 16
-53 65 -70 65 -9 0 -5 -39 7 -65 9 -21 9 -28 -2 -35 -7 -4 -10 -15 -7 -24 10
-25 -1 -42 -43 -70 -21 -14 -40 -36 -43 -48 -3 -18 -5 -16 -6 8 -1 21 7 40 25
59 l25 27 -23 12 c-31 15 -34 43 -8 64 20 17 20 17 1 29 -17 10 -24 8 -49 -18
-25 -26 -31 -28 -42 -14 -17 21 -40 19 -40 -4 0 -12 11 -23 30 -30 33 -11 36
-24 19 -86 l-11 -39 -23 26 c-25 29 -85 48 -85 26 0 -7 -11 -21 -24 -30 -23
-16 -25 -16 -41 2 -10 11 -24 20 -30 20 -17 0 -27 28 -14 36 5 3 16 3 24 0 7
-2 21 6 29 20 9 13 23 24 32 24 8 0 22 16 29 35 8 19 24 39 35 45 31 16 20 90
-13 90 -20 0 -127 -113 -127 -134 0 -12 -5 -16 -15 -13 -8 4 -17 2 -20 -3 -4
-6 -11 -10 -17 -10 -7 0 -6 5 2 15 22 27 -20 195 -50 195 -5 0 -10 11 -10 25
0 27 -24 35 -34 10 -3 -8 -15 -15 -26 -15 -17 0 -20 -6 -20 -43 0 -31 6 -49
20 -62 21 -19 27 -60 10 -70 -5 -3 -10 -19 -10 -35 0 -16 -5 -32 -11 -36 -6
-3 -8 -16 -5 -29 6 -23 -18 -51 -61 -74 -29 -15 -38 2 -12 25 16 14 19 26 14
51 -5 27 -1 36 20 55 38 33 33 52 -12 43 -21 -4 -44 -8 -51 -9 -7 -1 -18 -8
-24 -14 -17 -17 -21 -16 -63 24 -34 31 -36 38 -26 58 7 12 27 28 44 34 28 11
34 10 45 -5 12 -17 15 -16 38 12 37 44 43 65 26 98 -11 22 -19 27 -36 23 -11
-3 -27 -6 -33 -6 -7 0 -13 -8 -13 -19 0 -10 -12 -27 -27 -36 -37 -24 -63 -51
-56 -59 10 -9 -26 -44 -52 -50 -21 -5 -23 -10 -18 -41 5 -30 3 -34 -11 -29
-22 8 -22 -25 1 -41 10 -8 14 -19 10 -30 -6 -13 -10 -15 -21 -6 -14 12 -66 5
-66 -8 0 -17 25 -29 51 -24 21 4 30 1 35 -11 9 -23 -2 -32 -21 -16 -9 7 -19
10 -23 6 -4 -4 1 -12 11 -17 21 -12 23 -57 2 -65 -8 -4 -26 1 -39 9 -27 18
-36 13 -36 -20 0 -25 -31 -45 -38 -25 -6 20 -31 13 -48 -13 -9 -14 -22 -24
-28 -22 -6 2 -22 -1 -36 -6 -23 -10 -81 -16 -153 -17 -37 -1 -44 -23 -17 -60
18 -26 24 -29 37 -18 13 10 15 9 11 -7 -2 -11 -10 -20 -18 -21 -35 -1 -57 -15
-56 -36 1 -14 -6 -24 -18 -26 -14 -3 -17 0 -12 13 4 11 -2 26 -16 40 l-22 23
-34 -29 c-57 -50 -81 -31 -42 33 21 35 27 98 9 98 -6 0 -22 -9 -36 -20 -44
-35 -105 -22 -123 26 -7 16 -6 32 0 44 12 22 -15 90 -36 90 -6 0 -28 19 -49
43 -20 23 -48 55 -61 70 -31 36 -26 53 15 49 39 -3 39 2 1 22 -29 14 -31 14
-45 -14 -20 -39 -47 -53 -80 -40 -25 9 -25 11 -11 39 9 16 28 39 43 51 15 11
28 28 29 38 2 9 18 30 38 47 51 45 141 156 166 206 12 24 38 70 57 101 19 32
32 62 29 67 -3 5 1 35 9 68 l15 58 -39 90 c-37 84 -39 91 -23 105 14 12 17 30
16 85 -2 66 -4 71 -38 102 l-35 33 44 92 c25 51 50 97 55 102 5 5 18 3 32 -6
20 -13 28 -14 48 -3 14 8 46 12 75 9 59 -4 81 9 88 54 6 39 -7 47 -78 52 -60
4 -247 2 -252 -3 -2 -2 15 -17 37 -32 44 -31 51 -50 20 -60 -25 -8 -61 14 -91
54 -12 17 -35 35 -51 42 -28 11 -29 14 -24 58 3 25 9 73 12 106 4 33 15 79 25
103 21 49 25 107 8 118 -17 10 -1 152 19 178 5 6 13 21 16 34 7 20 4 22 -33
22 -23 0 -41 5 -41 11 0 7 15 10 39 7 l39 -3 6 44 c7 50 6 130 -1 93 -2 -12
-9 -20 -14 -17 -5 3 -7 0 -4 -7 2 -7 -2 -22 -11 -33 -13 -17 -16 -18 -24 -5
-7 10 -10 11 -10 3 0 -7 -3 -13 -7 -13 -15 0 23 426 39 447 6 7 6 24 0 45 -10
38 -8 129 8 315 8 85 8 129 0 142 -14 27 -13 104 2 119 17 17 53 15 68 -3z
m926 -170 c8 -13 13 -29 9 -35 -3 -5 0 -10 7 -10 8 0 6 -5 -5 -11 -10 -6 -25
-8 -33 -5 -21 8 -33 48 -20 68 15 24 23 23 42 -7z m239 5 c7 -22 -11 -53 -26
-44 -14 8 -11 26 4 18 10 -6 10 -4 0 7 -7 7 -13 19 -13 26 0 21 28 15 35 -7z
m-843 -120 c1 -19 9 -40 17 -46 11 -9 12 -12 1 -19 -9 -6 -11 -4 -5 5 5 8 3
11 -6 8 -8 -3 -25 3 -38 14 -17 13 -33 17 -57 12 -18 -3 -37 -3 -42 0 -15 9
-1 56 17 56 9 0 29 8 46 18 27 17 31 17 47 2 10 -9 18 -31 20 -50z m2203 -11
c4 -13 2 -27 -7 -35 -17 -17 -49 -8 -42 12 2 8 6 21 9 29 7 22 33 18 40 -6z
m543 -47 c-7 -15 -19 -33 -27 -40 -23 -18 -53 22 -40 55 5 13 5 23 1 24 -4 0
2 4 13 8 13 5 28 3 42 -6 19 -13 20 -18 11 -41z m-2100 18 c-8 -13 -15 -15
-19 -8 -8 12 12 38 23 31 4 -2 2 -13 -4 -23z m993 15 c1 -8 2 -25 3 -37 2 -31
-32 -62 -51 -46 -17 14 -14 83 4 83 6 0 15 3 19 8 12 12 24 8 25 -8z m-2073
-905 c4 -64 -9 -83 -33 -47 -14 21 -14 32 -5 67 15 56 34 46 38 -20z m-1963
-530 c3 -5 1 -10 -4 -10 -6 0 -11 5 -11 10 0 6 2 10 4 10 3 0 8 -4 11 -10z
m-35 -30 c11 -11 27 -20 36 -20 11 0 14 -5 10 -16 -4 -11 -2 -15 8 -11 15 6
34 -29 22 -40 -3 -4 -6 1 -6 10 0 10 -7 17 -15 17 -8 0 -15 -4 -15 -10 0 -5
-6 -10 -13 -10 -8 0 -14 -6 -15 -12 0 -7 -2 -22 -4 -33 -2 -13 2 -19 12 -17
13 2 13 1 0 -10 -8 -7 -16 -32 -17 -57 -1 -24 -5 -47 -10 -51 -4 -4 -28 -4
-53 0 -25 4 -38 8 -30 9 10 2 8 5 -6 11 -15 6 -24 21 -29 52 -4 23 -7 49 -6
57 1 7 -2 10 -8 6 -6 -3 -11 1 -11 9 0 9 4 16 8 16 4 0 8 10 9 22 4 48 24 76
61 86 52 14 50 14 72 -8z m-280 -89 c-5 -11 -10 -29 -10 -41 0 -11 -7 -23 -15
-26 -10 -4 -12 -10 -6 -18 6 -8 2 -15 -15 -23 -15 -7 -26 -8 -30 -1 -7 10 -34
-36 -34 -57 0 -8 -12 -28 -27 -45 -26 -31 -28 -32 -82 -25 -31 4 -59 12 -63
19 -14 21 -9 121 8 144 12 18 25 22 69 22 78 0 146 17 180 45 37 30 38 30 25
6z m330 -11 c0 -5 -5 -10 -11 -10 -5 0 -7 5 -4 10 3 6 8 10 11 10 2 0 4 -4 4
-10z m5801 -67 c13 -16 12 -17 -3 -4 -10 7 -18 15 -18 17 0 8 8 3 21 -13z
m-4243 -72 c3 -8 -1 -12 -9 -9 -7 2 -15 10 -17 17 -3 8 1 12 9 9 7 -2 15 -10
17 -17z m4219 -5 c0 -15 -21 -16 -34 -1 -4 4 -3 5 4 1 6 -3 14 -2 18 4 8 14
12 13 12 -4z m-4513 -52 c18 -18 21 -85 5 -101 -15 -15 -47 -5 -60 18 -8 16
-6 45 7 87 5 17 29 15 48 -4z m4556 -31 c0 -2 -8 1 -19 6 -10 6 -21 7 -25 4
-3 -3 -6 3 -6 15 l0 22 25 -22 c14 -12 25 -23 25 -25z m5 37 c3 -5 2 -10 -4
-10 -5 0 -13 5 -16 10 -3 6 -2 10 4 10 5 0 13 -4 16 -10z m51 -76 c-7 -19 -26
-9 -26 14 0 15 2 15 10 2 8 -12 10 -12 11 5 0 11 3 14 6 7 3 -7 2 -20 -1 -28z
m-4966 -55 c0 -5 -4 -9 -10 -9 -5 0 -10 7 -10 16 0 8 5 12 10 9 6 -3 10 -10
10 -16z m4900 11 c0 -5 -4 -10 -10 -10 -5 0 -10 5 -10 10 0 6 5 10 10 10 6 0
10 -4 10 -10z m55 -15 c14 -16 26 -22 30 -15 11 18 23 11 21 -15 -1 -23 -2
-24 -13 -8 -15 19 -15 18 -17 -19 -2 -24 0 -26 33 -20 29 4 33 3 28 -11 -4
-11 -1 -17 7 -17 8 0 17 6 19 13 3 7 6 5 6 -5 1 -10 -3 -18 -9 -18 -5 0 -10
-9 -10 -19 0 -11 -6 -21 -12 -24 -8 -2 -9 -8 -4 -13 5 -5 11 -4 13 4 6 15 20
15 37 0 10 -10 11 -15 1 -23 -9 -8 -9 -15 1 -35 8 -14 14 -19 14 -12 0 7 5 10
10 7 6 -3 10 -1 10 4 0 6 -7 11 -15 11 -8 0 -15 5 -15 10 0 6 5 10 11 10 17 0
49 -20 49 -31 0 -6 -4 -7 -10 -4 -5 3 -10 -3 -10 -15 0 -12 5 -18 10 -15 13 8
13 -8 -2 -40 -6 -14 -17 -25 -24 -25 -17 0 -44 28 -44 46 0 8 -4 14 -9 14 -5
0 -15 16 -21 35 -10 30 -14 33 -29 23 -11 -7 -26 -8 -37 -3 -11 5 -22 8 -26 7
-4 -1 -5 5 -1 14 5 13 7 13 22 0 15 -14 17 -13 18 7 2 17 0 19 -7 7 -8 -13
-10 -12 -10 3 0 19 -10 22 -28 7 -9 -7 -9 -7 -2 2 15 18 12 32 -4 19 -11 -9
-13 -6 -11 14 2 16 -2 25 -10 25 -21 0 -29 21 -14 32 10 7 8 8 -9 5 -19 -5
-21 -3 -11 9 6 7 15 12 19 9 5 -3 11 -1 15 5 3 5 -1 10 -9 10 -17 0 -17 20 -1
32 5 4 13 0 17 -10 5 -14 7 -13 7 5 1 12 -5 24 -11 26 -10 4 -10 6 0 6 7 1 24
-10 37 -24z m889 -137 c29 -36 31 -44 14 -54 -6 -4 -20 4 -33 19 -11 15 -28
27 -38 27 -16 0 -16 1 0 20 23 26 25 26 57 -12z m-754 4 c0 -5 -7 -9 -15 -9
-8 0 -15 4 -15 9 0 4 7 8 15 8 8 0 15 -4 15 -8z m-54 -109 c4 -16 7 -31 6 -35
-1 -5 3 -8 8 -8 6 0 10 -7 10 -16 0 -8 -4 -13 -9 -10 -5 3 -12 -1 -15 -10 -5
-13 -9 -14 -22 -4 -8 7 -12 20 -9 28 6 17 -23 54 -36 46 -5 -3 -9 0 -9 7 0 7
10 9 25 7 13 -3 24 -2 23 1 -3 32 18 27 28 -6z m-6306 -22 c0 -6 -4 -13 -10
-16 -5 -3 -10 1 -10 9 0 9 5 16 10 16 6 0 10 -4 10 -9z m6517 -106 c0 -8 -4
-12 -9 -9 -5 3 -6 10 -3 15 9 13 12 11 12 -6z m1380 -161 c5 -15 -57 -54 -84
-54 -27 0 -50 27 -36 41 25 25 113 34 120 13z m-1016 -46 c-4 -32 -5 -32 -11
-8 -5 19 2 37 16 40 0 0 -2 -15 -5 -32z m912 -38 c-4 -4 -22 -12 -40 -19 -26
-11 -38 -11 -63 0 -16 8 -30 17 -30 20 0 3 19 10 43 16 42 9 107 -2 90 -17z
m-7863 -294 c0 -5 -7 -3 -15 4 -8 7 -12 17 -9 22 7 10 24 -9 24 -26z m7110 13
c0 -5 -7 -9 -15 -9 -15 0 -20 12 -9 23 8 8 24 -1 24 -14z m-122 -11 c-4 -27
-28 -36 -28 -10 0 20 8 32 22 32 5 0 8 -10 6 -22z m-3400 -56 c-5 -24 -52 -23
-56 2 -2 10 2 22 9 27 18 11 51 -9 47 -29z m3272 13 c0 -8 -5 -25 -12 -38 -6
-12 -14 -29 -18 -37 -11 -23 -45 -18 -48 7 -2 14 3 23 17 28 12 3 21 14 21 24
0 10 3 21 7 24 12 13 33 7 33 -8z m-6826 -11 c9 -3 14 -10 11 -15 -7 -10 -35
0 -35 12 0 11 3 11 24 3z m7326 -24 c0 -5 -5 -10 -11 -10 -5 0 -7 5 -4 10 3 6
8 10 11 10 2 0 4 -4 4 -10z m220 2 c0 -5 -9 -17 -20 -27 -19 -18 -20 -17 -20
2 0 11 3 23 7 26 9 10 33 9 33 -1z m-4270 -56 c0 -26 -23 -51 -39 -42 -13 8
10 66 26 66 7 0 13 -11 13 -24z m-1050 4 c0 -5 -4 -10 -10 -10 -5 0 -10 5 -10
10 0 6 5 10 10 10 6 0 10 -4 10 -10z m4734 2 c2 -4 0 -14 -5 -22 -8 -13 -10
-13 -19 0 -5 8 -10 18 -10 23 0 10 28 9 34 -1z m-1625 -32 c19 0 61 -31 61
-45 0 -20 -28 -26 -53 -12 -42 23 -57 40 -57 65 0 24 1 24 18 9 10 -10 24 -17
31 -17z m51 20 c0 -5 -5 -10 -11 -10 -5 0 -7 5 -4 10 3 6 8 10 11 10 2 0 4 -4
4 -10z m-494 -86 c-12 -11 -20 -12 -33 -5 -17 10 -17 10 0 11 10 0 17 8 17 21
0 11 6 30 13 42 11 21 12 20 15 -16 2 -24 -2 -43 -12 -53z m-110 19 c-7 -17
-8 -17 -17 0 -12 21 -2 44 13 29 6 -6 8 -19 4 -29z m-2652 5 c11 -13 34 -40
53 -61 32 -36 45 -87 22 -87 -16 0 -79 40 -79 50 0 4 -11 11 -24 14 -22 5 -25
11 -24 56 0 40 3 50 17 50 9 0 25 -10 35 -22z m3791 -18 c0 -19 -50 -23 -65
-5 -7 8 -9 18 -6 23 9 15 71 -2 71 -18z m-2395 -6 c13 -13 13 -16 0 -24 -19
-12 -52 -13 -84 0 -17 6 -26 6 -26 0 0 -6 0 -13 -1 -17 0 -11 -50 -36 -56 -29
-10 10 7 36 29 45 13 5 34 19 48 30 26 24 63 22 90 -5z m340 7 c0 -6 -4 -13
-10 -16 -5 -3 -10 1 -10 9 0 9 5 16 10 16 6 0 10 -4 10 -9z m1598 -34 c2 -20
-1 -37 -6 -37 -14 0 -35 47 -28 65 10 28 31 11 34 -28z m1240 15 c3 -19 8 -23
25 -18 82 24 93 18 56 -28 -14 -18 -30 -26 -52 -26 -27 0 -29 -2 -14 -12 21
-16 10 -33 -25 -41 -35 -9 -41 3 -22 42 20 40 11 53 -30 46 -46 -9 -66 15 -36
45 30 30 94 25 98 -8z m-2933 -17 c0 -11 -8 -21 -17 -23 -14 -3 -18 3 -18 23
0 20 4 26 18 23 9 -2 17 -12 17 -23z m348 19 c7 -8 -10 -44 -21 -44 -4 0 -13
4 -21 9 -12 8 -12 12 -2 25 14 17 33 21 44 10z m887 -47 c0 -18 -2 -19 -10 -7
-13 20 -13 43 0 35 6 -3 10 -16 10 -28z m2280 18 c0 -8 -6 -15 -14 -15 -17 0
-28 14 -19 24 12 12 33 6 33 -9z m-3060 -39 c-13 -13 -35 7 -25 24 5 8 11 8
21 -1 10 -8 12 -15 4 -23z m-1904 9 c8 -21 -8 -38 -51 -54 -51 -18 -56 -5 -13
35 41 37 56 42 64 19z m2484 -41 c0 -18 -46 -19 -53 -1 -2 6 0 23 5 37 l9 25
20 -24 c10 -13 19 -29 19 -37z m1038 39 c-4 -22 -22 -20 -26 1 -2 10 3 16 13
16 10 0 15 -7 13 -17z m1512 -3 c12 -23 6 -40 -16 -40 -17 0 -28 24 -20 45 8
21 23 19 36 -5z m-2490 -15 c0 -8 -4 -17 -10 -20 -6 -4 -10 5 -10 20 0 15 4
24 10 20 6 -3 10 -12 10 -20z m3280 -10 c0 -16 -6 -25 -15 -25 -9 0 -15 9 -15
25 0 16 6 25 15 25 9 0 15 -9 15 -25z m-2097 -35 c-6 -23 -31 -27 -39 -6 -3 8
0 25 7 37 11 21 13 21 24 5 7 -9 11 -26 8 -36z m-2719 25 c-9 -22 -44 -40 -44
-22 0 17 20 37 37 37 7 0 10 -7 7 -15z m-2445 -4 c19 -12 6 -41 -19 -41 -15 0
-20 7 -20 25 0 26 14 31 39 16z m3153 -13 c-7 -7 -12 -8 -12 -2 0 6 3 14 7 17
3 4 9 5 12 2 2 -3 -1 -11 -7 -17z m3374 -15 c-10 -10 -19 5 -10 18 6 11 8 11
12 0 2 -7 1 -15 -2 -18z m381 5 c-3 -8 -6 -5 -6 6 -1 11 2 17 5 13 3 -3 4 -12
1 -19z m-4897 3 c0 -5 -7 -14 -15 -21 -18 -15 -42 1 -31 19 8 13 46 15 46 2z
m-1655 -11 c3 -5 2 -10 -4 -10 -5 0 -13 5 -16 10 -3 6 -2 10 4 10 5 0 13 -4
16 -10z m5403 -21 c3 -16 -52 -44 -68 -34 -18 11 -6 40 20 46 33 8 44 5 48
-12z m-5827 1 c28 -15 23 -30 -10 -30 -21 0 -30 -6 -34 -21 -4 -16 -10 -19
-29 -14 -37 12 -43 23 -15 30 15 4 29 16 32 26 7 21 27 24 56 9z m3029 -14 c0
-8 -4 -18 -10 -21 -5 -3 -10 3 -10 14 0 12 5 21 10 21 6 0 10 -6 10 -14z m846
-74 c-25 -26 -32 13 -10 56 l19 37 3 -39 c2 -25 -2 -44 -12 -54z m569 58 c0
-23 -49 -20 -53 3 -3 15 2 18 25 15 17 -2 28 -9 28 -18z m637 -12 c-9 -9 -12
-7 -12 12 0 19 3 21 12 12 9 -9 9 -15 0 -24z m-4727 -9 c0 -7 -9 -15 -20 -18
-11 -2 -35 -17 -53 -33 -36 -31 -58 -33 -76 -6 -18 29 17 57 63 51 26 -4 41
-1 50 11 16 19 36 16 36 -5z m2313 5 c36 -10 25 -24 -18 -24 -38 0 -49 8 -33
23 8 8 21 9 51 1z m2906 -10 c3 -9 2 -23 -3 -31 -7 -13 -11 -12 -30 8 -16 17
-18 25 -9 31 20 12 35 9 42 -8z m380 -9 c-4 -8 -1 -15 5 -15 17 0 13 -40 -4
-46 -8 -4 -15 -17 -15 -31 0 -20 -4 -24 -22 -21 -16 2 -23 10 -23 25 0 12 -4
25 -8 29 -15 16 -6 32 23 38 18 3 30 12 30 21 0 8 4 15 10 15 5 0 7 -7 4 -15z
m-6224 -31 c0 -8 -7 -14 -15 -14 -15 0 -21 21 -9 33 10 9 24 -2 24 -19z m1817
20 c-3 -3 -12 -4 -19 -1 -8 3 -5 6 6 6 11 1 17 -2 13 -5z m-2327 -62 c46 -61
47 -64 14 -47 -34 17 -80 96 -56 95 4 -1 23 -22 42 -48z m2215 34 c26 -19 7
-41 -41 -50 -69 -13 -100 19 -46 48 34 19 63 20 87 2z m5895 -19 c0 -21 -8
-41 -20 -52 -23 -21 -35 -14 -45 26 -7 30 15 59 46 59 15 0 19 -7 19 -33z
m-1920 -2 c0 -8 -7 -15 -15 -15 -16 0 -20 12 -8 23 11 12 23 8 23 -8z m-5744
-16 c10 -17 -13 -36 -27 -22 -12 12 -4 33 11 33 5 0 12 -5 16 -11z m5814 2 c0
-6 -4 -13 -10 -16 -5 -3 -10 1 -10 9 0 9 5 16 10 16 6 0 10 -4 10 -9z m318 -3
c15 -15 16 -38 2 -38 -6 0 -22 7 -36 17 -19 12 -22 18 -12 24 18 12 32 11 46
-3z m-2643 -23 c0 -13 -8 -21 -22 -23 -17 -3 -23 2 -23 16 0 10 3 22 7 26 13
13 38 1 38 -19z m2301 -9 c14 -11 16 -18 8 -26 -19 -19 -59 -8 -62 18 -4 26
23 30 54 8z m-5818 -146 c69 -107 113 -160 131 -160 10 0 25 -8 32 -17 12 -15
12 -16 -6 -9 -11 4 -37 13 -57 19 -21 7 -38 16 -38 22 0 5 -29 46 -65 90 -35
44 -65 86 -65 93 0 6 -4 12 -8 12 -12 0 -42 56 -42 77 1 23 67 -48 118 -127z
m3462 120 c0 -26 -38 -47 -46 -25 -7 18 12 45 32 45 8 0 14 -9 14 -20z m-3441
-14 c9 -10 8 -16 -4 -26 -19 -16 -41 1 -32 24 8 20 21 20 36 2z m-395 -33 c9
-18 14 -33 12 -33 -6 0 -36 55 -36 66 0 11 5 3 24 -33z m2577 21 c15 -14 22
-14 54 -3 53 19 94 -11 60 -44 -19 -19 -19 -27 -2 -27 8 0 22 -9 33 -21 18
-20 18 -21 -1 -35 -23 -17 -87 -18 -103 -2 -15 15 -16 58 -1 58 5 0 7 5 4 10
-3 6 -14 10 -24 10 -10 0 -26 11 -35 25 -27 42 -18 59 15 29z m3759 -13 c0
-23 -16 -36 -25 -21 -9 14 1 40 15 40 5 0 10 -9 10 -19z m710 -20 c0 -23 -16
-36 -25 -21 -9 14 1 40 15 40 5 0 10 -9 10 -19z m-7386 -16 c-4 -8 -12 -11
-22 -7 -16 6 -15 7 1 10 9 2 14 8 11 14 -4 7 -2 8 4 4 6 -4 9 -13 6 -21z
m4213 9 c2 -7 -7 -24 -20 -39 -21 -25 -27 -27 -53 -18 -16 5 -30 17 -32 26 -6
32 95 62 105 31z m4031 -37 c4 -30 -5 -34 -33 -13 -11 8 -16 19 -12 30 10 27
42 15 45 -17z m-7734 -166 c47 -52 86 -97 86 -101 0 -4 -12 -5 -26 -2 -25 4
-26 3 -20 -22 3 -14 2 -26 -3 -26 -12 0 -32 33 -106 175 -62 118 -61 118 69
-24z m7904 63 c-4 -25 -32 -24 -36 0 -4 21 18 40 31 27 5 -5 7 -17 5 -27z
m-7868 -14 c0 -15 -5 -12 -26 11 -19 22 -19 22 4 10 12 -6 22 -16 22 -21z
m-102 -125 c-3 -3 -9 2 -12 12 -6 14 -5 15 5 6 7 -7 10 -15 7 -18z m479 -50
c38 -49 41 -69 6 -47 -16 10 -73 83 -73 93 0 24 29 3 67 -46z m7490 33 c-3 -8
-6 -5 -6 6 -1 11 2 17 5 13 3 -3 4 -12 1 -19z m-8387 -8 c0 -5 7 -10 15 -10
18 0 20 -17 4 -22 -15 -5 13 -62 49 -100 19 -21 22 -28 10 -28 -8 0 -22 8 -30
18 -31 34 -79 125 -74 138 6 16 26 19 26 4z m1044 -196 c47 -48 86 -92 86 -98
0 -6 -43 30 -95 81 -52 51 -95 95 -95 98 0 17 28 -5 104 -81z m-909 -81 c28
-42 52 -81 55 -87 7 -17 72 -109 87 -124 7 -7 13 -18 13 -23 0 -19 -16 -8 -35
24 -10 17 -29 43 -42 57 -13 14 -23 30 -23 37 0 6 -3 13 -7 15 -15 6 -113 159
-113 175 0 16 23 -10 65 -74z m7930 -173 c23 -6 17 -7 -30 -8 -34 0 -97 -2
-140 -6 -88 -6 -83 -1 10 13 74 11 121 11 160 1z m85 -20 c11 -8 7 -9 -15 -4
-37 8 -45 14 -19 14 10 0 26 -5 34 -10z m83 -17 c-7 -2 -19 -2 -25 0 -7 3 -2
5 12 5 14 0 19 -2 13 -5z m-1336 -65 c-3 -8 -6 -5 -6 6 -1 11 2 17 5 13 3 -3
4 -12 1 -19z m213 -3 c0 -26 -14 -33 -25 -15 -9 14 1 40 15 40 5 0 10 -11 10
-25z m1252 -577 c-14 -14 -44 -20 -36 -7 3 5 10 7 15 4 5 -4 9 -1 9 4 0 6 5
11 12 11 9 0 9 -3 0 -12z m86 -8 c4 -12 3 -13 -10 -2 -9 7 -24 10 -34 6 -16
-5 -16 -4 -4 5 19 14 42 10 48 -9z m-1083 -109 c-3 -6 -11 -8 -17 -5 -6 4 -5
9 3 15 16 10 23 4 14 -10z m1032 -93 c-3 -7 -5 -2 -5 12 0 14 2 19 5 13 2 -7
2 -19 0 -25z m-7062 -37 c7 -13 -33 -34 -51 -27 -8 3 -14 12 -14 21 0 17 55
22 65 6z m1300 -27 c0 -10 -8 -20 -17 -22 -18 -3 -26 27 -11 42 12 11 28 0 28
-20z m875 0 c0 -9 -9 -18 -19 -21 -12 -3 -21 -17 -25 -39 -9 -45 -35 -58 -75
-38 -31 16 -43 51 -18 58 6 2 31 9 55 15 25 7 42 18 42 26 0 8 9 15 20 15 12
0 20 -7 20 -16z m-1889 -64 c15 -9 17 -15 9 -30 -13 -25 -46 -26 -58 -2 -19
36 8 54 49 32z m1253 -56 c19 -18 19 -20 6 -45 -19 -35 -70 -20 -70 21 0 11
29 40 40 40 5 0 16 -7 24 -16z m-238 -29 c7 -17 -12 -45 -31 -45 -22 0 -28 33
-9 47 23 17 33 16 40 -2z m5065 -56 c14 -7 18 -16 14 -30 -5 -14 -3 -17 9 -13
37 14 59 -42 35 -87 -8 -16 -17 -19 -38 -14 -26 6 -29 3 -35 -30 -7 -34 -9
-36 -34 -30 -34 8 -82 53 -82 77 0 9 11 25 26 34 14 10 23 23 20 31 -8 20 11
52 37 63 29 11 26 12 48 -1z m336 -179 c2 -8 -1 -22 -7 -30 -8 -13 -11 -13
-25 1 -9 9 -13 23 -9 33 8 20 38 17 41 -4z m326 -119 c19 -17 23 -46 6 -57
-10 -6 -79 52 -79 67 0 4 8 15 17 25 16 16 18 16 28 -1 5 -10 18 -25 28 -34z
m-812 -14 c-13 -13 -26 -3 -16 12 3 6 11 8 17 5 6 -4 6 -10 -1 -17z m326 -153
c9 -24 -8 -46 -49 -67 -44 -22 -68 -14 -68 24 0 21 7 32 28 43 37 20 81 20 89
0z m-4743 -29 c20 -30 12 -78 -12 -73 -8 2 -24 15 -34 29 -16 22 -18 30 -9 48
15 28 35 27 55 -4z m-2584 1 c0 -8 -7 -16 -15 -20 -17 -6 -18 -4 -9 18 8 20
24 21 24 2z m7674 -1 c-6 -16 -34 -21 -34 -7 0 13 11 22 26 22 8 0 11 -6 8
-15z m-96 -63 c2 -13 -3 -31 -11 -40 -7 -9 -19 -32 -27 -49 -14 -36 -30 -42
-51 -17 -11 14 -10 21 4 46 9 16 14 35 10 41 -4 6 -8 21 -9 32 -2 19 2 21 39
16 34 -5 43 -10 45 -29z m-2548 -17 c0 -8 -4 -15 -10 -15 -5 0 -7 7 -4 15 4 8
8 15 10 15 2 0 4 -7 4 -15z m2364 -71 c19 -7 21 -45 4 -62 -18 -18 -56 -14
-78 8 -39 39 13 77 74 54z m-4330 -60 c25 -10 19 -34 -9 -34 -18 0 -25 5 -25
20 0 21 8 24 34 14z m4556 -28 c0 -7 -9 -25 -20 -39 -11 -14 -23 -40 -26 -59
-13 -68 -37 -82 -99 -58 -47 18 -40 69 8 54 25 -8 47 13 47 46 0 19 9 36 26
49 30 24 64 28 64 7z m-7430 -67 c0 -3 -11 -4 -25 -1 -14 2 -25 10 -25 17 0
10 5 11 25 2 14 -7 25 -15 25 -18z"/>
<path d="M3512 7548 c6 -18 28 -21 28 -4 0 9 -7 16 -16 16 -9 0 -14 -5 -12
-12z"/>
<path d="M4708 6583 c-18 -4 -26 -32 -10 -34 54 -8 63 -7 58 7 -3 9 -6 20 -6
25 0 9 -12 10 -42 2z"/>
<path d="M3525 6170 c3 -5 8 -10 11 -10 2 0 4 5 4 10 0 6 -5 10 -11 10 -5 0
-7 -4 -4 -10z"/>
<path d="M2748 6078 c-4 -10 -17 -18 -28 -18 -13 0 -18 -4 -15 -11 4 -6 13 -8
21 -5 9 4 14 -2 14 -16 0 -16 3 -19 11 -11 6 6 9 26 7 44 -2 25 -5 29 -10 17z"/>
<path d="M3390 5326 c0 -2 11 -6 25 -8 14 -3 25 -1 25 3 0 5 -11 9 -25 9 -14
0 -25 -2 -25 -4z"/>
<path d="M4450 5260 c0 -5 5 -10 10 -10 6 0 10 5 10 10 0 6 -4 10 -10 10 -5 0
-10 -4 -10 -10z"/>
<path d="M4451 5223 c1 -10 0 -25 -4 -33 -13 -36 -15 -78 -4 -89 9 -10 9 -11
-3 -6 -12 4 -15 -6 -17 -57 -1 -35 -2 -63 -3 -63 -1 0 -3 -9 -5 -20 -3 -12 7
-28 26 -44 16 -13 29 -30 29 -38 0 -8 8 -13 17 -11 10 2 19 -5 22 -17 5 -16
16 -21 48 -24 39 -2 44 1 63 31 11 18 20 29 20 24 0 -5 6 -4 13 2 7 6 25 9 40
6 16 -2 27 0 27 7 0 6 7 8 17 5 9 -4 20 -1 25 6 14 23 8 30 -21 26 -17 -2 -28
-1 -25 3 2 4 -5 10 -16 14 -11 3 -20 11 -20 16 0 5 -5 9 -11 9 -6 0 -17 6 -25
14 -7 8 -23 12 -34 9 -12 -3 -20 -2 -19 3 2 5 -3 35 -11 66 -11 49 -11 60 1
75 8 9 9 14 2 10 -6 -4 -14 -3 -18 3 -3 5 -19 7 -34 4 -22 -5 -32 -1 -45 17
-9 13 -16 34 -16 46 0 13 -5 23 -11 23 -5 0 -9 -8 -8 -17z"/>
<path d="M5160 5146 c0 -8 5 -18 10 -21 6 -4 8 -11 5 -16 -3 -5 1 -6 9 -3 13
5 16 -1 16 -28 0 -59 -34 -74 -92 -38 -18 11 -36 20 -39 20 -12 0 -17 -40 -9
-68 7 -21 9 -23 10 -7 1 11 4 14 7 8 8 -21 23 -15 23 9 0 27 5 21 14 -15 4
-17 3 -26 -3 -23 -5 3 -11 -1 -15 -9 -3 -8 -12 -12 -21 -9 -8 3 -15 1 -15 -6
0 -6 -5 -8 -10 -5 -6 4 -8 12 -4 18 3 7 0 5 -8 -3 -7 -9 -21 -14 -32 -12 -21
4 -16 -9 18 -45 23 -25 51 -31 43 -9 -8 21 30 59 61 61 18 1 36 -8 53 -27 24
-25 28 -26 45 -12 14 11 15 17 7 20 -7 3 -13 12 -13 20 0 8 -7 17 -15 20 -8 4
-13 10 -10 14 3 5 1 12 -5 15 -8 5 -6 15 4 31 20 30 20 63 0 102 -16 33 -34
42 -34 18z m-70 -120 c0 -3 -4 -8 -10 -11 -5 -3 -10 -1 -10 4 0 6 5 11 10 11
6 0 10 -2 10 -4z"/>
<path d="M4250 5080 c0 -6 -4 -8 -10 -5 -5 3 -10 0 -10 -8 0 -8 -11 -22 -24
-30 -20 -13 -26 -14 -35 -3 -6 7 -7 17 -3 22 4 4 0 3 -9 -4 -9 -6 -19 -9 -22
-5 -4 3 -7 -2 -7 -13 0 -14 -3 -15 -9 -6 -10 17 -30 -5 -26 -30 2 -10 -1 -18
-6 -18 -5 0 -9 -15 -7 -34 2 -31 4 -33 32 -29 22 3 41 -3 64 -20 29 -22 37
-24 65 -13 18 6 36 17 40 24 10 15 53 16 63 1 5 -8 10 -6 16 5 5 9 7 20 4 24
-3 5 -6 30 -7 58 -3 68 -7 75 -35 68 -15 -4 -34 0 -49 10 -15 10 -25 12 -25 6z"/>
<path d="M5040 5061 c0 -25 6 -27 13 -6 4 8 2 17 -3 20 -6 4 -10 -3 -10 -14z"/>
<path d="M4893 4923 c11 -24 37 -32 37 -10 0 19 -14 34 -32 34 -13 0 -14 -4
-5 -24z"/>
<path d="M3743 4841 c-12 -19 -6 -68 9 -77 15 -10 55 5 62 22 10 27 -3 52 -33
62 -22 8 -30 6 -38 -7z"/>
<path d="M4149 4754 c-12 -15 -130 -74 -147 -74 -6 0 -21 -6 -36 -13 l-26 -14
24 -22 c13 -12 33 -20 47 -19 18 2 25 -2 27 -20 2 -13 -3 -31 -11 -40 -32 -38
-31 -44 7 -37 22 5 42 3 49 -4 8 -6 28 -9 45 -8 43 3 44 36 2 60 -21 13 -30
26 -30 44 0 24 2 25 44 19 29 -5 52 -3 65 6 16 10 23 9 38 -4 10 -9 27 -15 38
-13 11 2 26 4 33 4 12 1 42 58 42 81 0 13 -26 0 -56 -29 l-22 -20 -19 22 c-10
12 -31 39 -47 60 -29 40 -46 46 -67 21z"/>
<path d="M3090 4731 c-18 -35 -9 -91 15 -91 7 0 15 -4 17 -8 2 -5 63 -38 135
-74 l133 -66 6 24 c5 17 13 24 31 24 l26 0 -27 26 c-18 18 -26 37 -26 60 0 19
-4 34 -9 34 -5 0 -13 9 -16 20 -9 28 -56 70 -77 70 -10 0 -34 -9 -53 -19 -38
-20 -67 -18 -86 5 -17 20 -57 17 -69 -5z"/>
<path d="M4689 4727 c-22 -17 -2 -35 29 -27 23 5 23 6 5 22 -14 13 -21 14 -34
5z"/>
<path d="M3920 4653 c0 -6 -11 -8 -23 -6 -37 7 -80 -35 -79 -77 1 -38 26 -70
42 -54 7 7 6 19 -4 38 -19 37 -11 64 21 64 26 0 62 27 50 38 -4 4 -7 3 -7 -3z"/>
<path d="M6043 4490 c19 -25 20 -26 14 -8 -3 9 -1 19 6 21 7 3 2 4 -10 4 -18
-1 -20 -4 -10 -17z"/>
<path d="M6002 4474 c-7 -8 -10 -19 -7 -24 8 -13 -1 -13 -25 0 -13 7 -21 7
-25 0 -3 -5 0 -10 8 -10 8 0 17 -9 20 -21 3 -12 10 -18 16 -14 6 3 11 0 11 -7
0 -8 5 -6 11 5 9 15 12 16 25 2 17 -17 40 -20 49 -6 9 15 -16 59 -36 64 -11 3
-17 1 -13 -4 3 -5 0 -9 -7 -9 -6 0 -9 8 -6 20 6 23 -3 25 -21 4z"/>
<path d="M6230 4480 c0 -5 7 -10 15 -10 8 0 15 5 15 10 0 6 -7 10 -15 10 -8 0
-15 -4 -15 -10z"/>
<path d="M5370 4460 c0 -5 5 -10 11 -10 5 0 7 5 4 10 -3 6 -8 10 -11 10 -2 0
-4 -4 -4 -10z"/>
<path d="M6280 4451 c0 -6 4 -13 10 -16 6 -3 7 1 4 9 -7 18 -14 21 -14 7z"/>
<path d="M3824 4159 c-15 -24 -15 -49 1 -80 20 -37 35 -29 35 20 0 45 -22 82
-36 60z"/>
<path d="M3551 4065 c-28 -32 -41 -65 -25 -65 15 0 84 67 84 83 0 28 -25 20
-59 -18z"/>
<path d="M3185 4080 c-3 -6 1 -7 9 -4 18 7 21 14 7 14 -6 0 -13 -4 -16 -10z"/>
<path d="M3360 4072 c0 -14 39 -46 47 -39 3 4 -2 16 -12 27 -19 21 -35 26 -35
12z"/>
<path d="M2996 4020 c-16 -17 -24 -30 -17 -30 19 0 61 31 61 46 0 21 -12 17
-44 -16z"/>
<path d="M4066 4014 c-8 -22 -8 -24 8 -24 15 0 28 24 19 34 -11 10 -21 7 -27
-10z"/>
<path d="M6690 4021 c0 -10 19 -25 25 -20 1 2 -3 10 -11 17 -8 7 -14 8 -14 3z"/>
<path d="M3446 3995 c4 -9 15 -15 28 -13 29 4 23 22 -9 26 -19 3 -24 0 -19
-13z"/>
<path d="M4695 3979 c-9 -28 1 -36 14 -10 7 12 7 22 2 26 -5 3 -13 -4 -16 -16z"/>
<path d="M6775 3980 c-3 -5 -1 -10 5 -10 6 0 8 -5 4 -12 -4 -7 -3 -8 4 -4 6 4
9 13 5 21 -6 18 -10 19 -18 5z"/>
<path d="M3063 3937 c-16 -17 -19 -27 -12 -40 16 -27 36 -20 42 16 7 43 -3 51
-30 24z"/>
<path d="M3440 3945 c0 -8 7 -15 16 -15 14 0 14 3 4 15 -7 8 -14 15 -16 15 -2
0 -4 -7 -4 -15z"/>
<path d="M6845 3920 c-3 -6 1 -7 9 -4 18 7 21 14 7 14 -6 0 -13 -4 -16 -10z"/>
<path d="M3140 3890 c0 -5 5 -10 11 -10 5 0 7 5 4 10 -3 6 -8 10 -11 10 -2 0
-4 -4 -4 -10z"/>
<path d="M2986 3861 c-19 -21 -8 -35 18 -25 18 7 19 13 8 32 -7 10 -13 8 -26
-7z"/>
<path d="M4349 3868 c-18 -15 -49 -59 -49 -70 0 -16 30 -7 57 16 22 19 25 27
18 45 -9 18 -13 20 -26 9z"/>
<path d="M6887 3869 c7 -7 15 -10 18 -7 3 3 -2 9 -12 12 -14 6 -15 5 -6 -5z"/>
<path d="M7355 3870 c3 -5 8 -10 11 -10 2 0 4 5 4 10 0 6 -5 10 -11 10 -5 0
-7 -4 -4 -10z"/>
<path d="M3830 3848 l-25 -11 24 -5 c13 -2 31 3 39 12 14 13 14 16 2 15 -8 0
-26 -5 -40 -11z"/>
<path d="M6103 3849 c-15 -15 1 -49 22 -49 23 0 26 17 7 39 -13 17 -20 19 -29
10z"/>
<path d="M3476 3803 c9 -49 11 -51 35 -26 l21 21 -21 21 c-32 32 -43 27 -35
-16z"/>
<path d="M5850 3820 c0 -20 21 -51 31 -45 16 10 10 34 -11 45 -14 8 -20 8 -20
0z"/>
<path d="M4220 3788 c1 -31 1 -32 15 -13 17 21 15 37 -3 43 -8 2 -12 -8 -12
-30z"/>
<path d="M7025 3789 c-4 -6 -5 -12 -2 -15 2 -3 7 2 10 11 7 17 1 20 -8 4z"/>
<path d="M3878 3763 c-10 -2 -18 -9 -18 -14 0 -14 16 -11 30 6 7 8 11 14 9 14
-2 -1 -12 -3 -21 -6z"/>
<path d="M5042 3740 c-48 -34 -51 -35 -66 -15 -10 12 -14 12 -30 0 -15 -12
-17 -17 -7 -29 10 -11 17 -12 30 -5 21 14 91 -13 91 -34 0 -8 11 -22 25 -31
30 -20 58 -21 32 -1 -16 11 -18 25 -15 79 2 43 -1 66 -8 66 -6 0 -30 -13 -52
-30z"/>
<path d="M5436 3735 c-16 -15 -35 -24 -43 -21 -7 3 -16 -1 -19 -9 -8 -21 -24
-19 -52 8 l-24 22 22 -37 c16 -28 20 -45 14 -72 -5 -28 -3 -36 8 -36 21 0 48
33 48 58 0 26 25 29 54 7 16 -12 21 -12 28 -2 6 9 11 9 28 -1 29 -18 26 2 -8
61 l-29 47 -27 -25z"/>
<path d="M6067 3741 c3 -11 11 -26 19 -32 23 -19 18 15 -5 35 -19 17 -19 17
-14 -3z"/>
<path d="M6285 3741 c-29 -15 -30 -16 -6 -19 13 -2 30 3 38 11 22 21 3 26 -32
8z"/>
<path d="M3445 3720 c3 -5 8 -10 11 -10 2 0 4 5 4 10 0 6 -5 10 -11 10 -5 0
-7 -4 -4 -10z"/>
<path d="M4140 3715 c-8 -9 -8 -15 -2 -15 12 0 26 19 19 26 -2 2 -10 -2 -17
-11z"/>
<path d="M4382 3697 c-12 -13 -22 -30 -22 -39 0 -9 -7 -21 -15 -28 -24 -20 -3
-33 29 -19 21 10 27 18 23 36 -2 14 3 29 14 39 11 10 19 21 19 26 0 16 -27 8
-48 -15z"/>
<path d="M5800 3716 c0 -2 7 -9 15 -16 12 -10 15 -10 15 4 0 9 -7 16 -15 16
-8 0 -15 -2 -15 -4z"/>
<path d="M3340 3685 c0 -15 67 -85 82 -85 13 0 10 10 -19 56 -27 42 -63 59
-63 29z"/>
<path d="M4224 3665 c-10 -8 -17 -15 -14 -15 35 -8 40 -7 40 11 0 23 -1 23
-26 4z"/>
<path d="M6368 3669 c-17 -9 -17 -12 -2 -34 21 -32 30 -31 42 4 14 41 -2 53
-40 30z"/>
<path d="M6520 3670 c0 -5 7 -10 15 -10 8 0 15 5 15 10 0 6 -7 10 -15 10 -8 0
-15 -4 -15 -10z"/>
<path d="M2596 3661 c-3 -5 1 -11 9 -15 8 -3 15 -1 15 4 0 13 -18 22 -24 11z"/>
<path d="M2660 3660 c0 -5 5 -10 11 -10 5 0 7 5 4 10 -3 6 -8 10 -11 10 -2 0
-4 -4 -4 -10z"/>
<path d="M2910 3659 c0 -5 5 -7 10 -4 6 3 10 8 10 11 0 2 -4 4 -10 4 -5 0 -10
-5 -10 -11z"/>
<path d="M5916 3641 c-16 -31 -16 -31 9 -31 31 0 43 26 22 47 -14 14 -17 12
-31 -16z"/>
<path d="M6960 3660 c0 -5 5 -10 10 -10 6 0 10 5 10 10 0 6 -4 10 -10 10 -5 0
-10 -4 -10 -10z"/>
<path d="M6990 3659 c0 -7 3 -9 7 -6 3 4 13 1 21 -6 13 -10 14 -9 10 3 -6 19
-38 26 -38 9z"/>
<path d="M7650 3635 c0 -14 5 -25 10 -25 6 0 10 11 10 25 0 14 -4 25 -10 25
-5 0 -10 -11 -10 -25z"/>
<path d="M4880 3620 c0 -13 7 -20 20 -20 22 0 18 25 -6 34 -9 3 -14 -1 -14
-14z"/>
<path d="M8060 3631 c0 -5 9 -19 20 -32 l19 -24 -12 33 c-10 30 -27 44 -27 23z"/>
<path d="M4240 3616 c0 -25 12 -46 26 -46 19 0 18 46 -2 54 -22 8 -24 8 -24
-8z"/>
<path d="M5227 3623 c-15 -15 -7 -43 13 -43 15 0 20 7 20 25 0 24 -18 34 -33
18z"/>
<path d="M3298 3612 c-14 -2 -32 -10 -38 -18 -7 -8 -21 -14 -32 -14 -31 0 -15
-25 18 -28 22 -2 37 5 58 27 33 34 32 38 -6 33z"/>
<path d="M5850 3597 c-11 -8 -14 -22 -10 -42 7 -38 22 -36 34 5 11 36 -1 55
-24 37z"/>
<path d="M4215 3589 c-4 -6 -5 -12 -2 -15 2 -3 7 2 10 11 7 17 1 20 -8 4z"/>
<path d="M2810 3535 c0 -14 21 -45 31 -45 18 0 5 45 -13 48 -10 2 -18 1 -18
-3z"/>
<path d="M2986 3533 c-12 -12 -6 -33 9 -33 8 0 15 6 15 14 0 17 -14 28 -24 19z"/>
<path d="M5880 3526 c0 -9 7 -16 16 -16 9 0 14 5 12 12 -6 18 -28 21 -28 4z"/>
<path d="M6970 3531 c0 -5 7 -12 16 -15 14 -5 15 -4 4 9 -14 17 -20 19 -20 6z"/>
<path d="M3115 3499 c-4 -6 7 -24 24 -41 20 -19 31 -40 31 -58 0 -27 -26 -60
-48 -60 -7 0 -12 -11 -12 -24 0 -36 -16 -40 -56 -16 -34 22 -36 22 -49 4 -7
-10 -11 -22 -9 -26 6 -9 95 -5 111 5 7 4 24 0 38 -9 25 -16 25 -16 25 10 0 30
2 31 41 11 22 -12 34 -13 49 -5 11 6 24 9 28 6 11 -7 62 49 62 67 0 8 7 20 15
27 15 13 11 35 -5 25 -5 -3 -23 1 -41 10 -21 12 -30 22 -26 34 2 10 0 25 -4
34 -8 14 -12 14 -37 1 -35 -18 -76 -18 -92 1 -15 18 -36 20 -45 4z"/>
<path d="M2896 3417 c-41 -38 -52 -61 -47 -91 1 -4 -9 -6 -23 -2 -19 5 -28 1
-36 -15 -11 -20 -10 -21 44 -16 60 6 88 18 124 50 26 24 28 42 6 51 -11 4 -15
14 -11 31 7 40 -7 38 -57 -8z"/>
<path d="M8226 3444 c-17 -12 -17 -14 -4 -14 9 0 20 5 23 11 11 17 2 18 -19 3z"/>
<path d="M6582 3425 c-7 -14 -23 -27 -39 -31 -58 -12 -60 -14 -33 -34 24 -18
25 -18 46 1 24 23 40 24 48 4 8 -21 33 -19 46 5 13 24 37 26 42 5 3 -14 6 -14
26 1 31 21 27 68 -5 72 -13 2 -23 -2 -23 -9 0 -7 -3 -9 -7 -6 -3 4 -12 -1 -19
-11 -12 -16 -14 -16 -36 6 -30 28 -32 28 -46 -3z"/>
<path d="M4580 3426 c0 -8 15 -23 32 -34 34 -22 48 -16 48 21 0 14 -5 17 -20
12 -11 -4 -20 -2 -20 4 0 6 -9 11 -20 11 -11 0 -20 -6 -20 -14z"/>
<path d="M8014 3414 c4 -16 12 -34 17 -40 10 -12 59 -16 59 -5 -1 12 -36 48
-59 61 -23 12 -23 11 -17 -16z"/>
<path d="M6840 3385 c0 -14 5 -25 10 -25 6 0 10 11 10 25 0 14 -4 25 -10 25
-5 0 -10 -11 -10 -25z"/>
<path d="M3380 3375 c0 -17 2 -18 24 -9 18 7 12 24 -10 24 -8 0 -14 -7 -14
-15z"/>
<path d="M8100 3380 c0 -5 5 -10 10 -10 6 0 10 5 10 10 0 6 -4 10 -10 10 -5 0
-10 -4 -10 -10z"/>
<path d="M6540 3311 c0 -12 5 -21 10 -21 6 0 10 6 10 14 0 8 -4 18 -10 21 -5
3 -10 -3 -10 -14z"/>
<path d="M6640 3220 c0 -5 6 -10 14 -10 8 0 18 5 21 10 3 6 -3 10 -14 10 -12
0 -21 -4 -21 -10z"/>
<path d="M660 4836 c0 -2 7 -7 16 -10 8 -3 12 -2 9 4 -6 10 -25 14 -25 6z"/>
<path d="M6556 4384 c-7 -17 19 -54 37 -54 6 0 0 9 -12 19 -13 12 -18 22 -11
26 12 8 13 25 1 25 -5 0 -12 -7 -15 -16z"/>
<path d="M6626 4333 c-6 -14 -5 -15 5 -6 7 7 10 15 7 18 -3 3 -9 -2 -12 -12z"/>
<path d="M6720 4171 c0 -5 5 -13 10 -16 6 -3 10 -2 10 4 0 5 -4 13 -10 16 -5
3 -10 2 -10 -4z"/>
<path d="M585 2590 c3 -5 8 -10 11 -10 2 0 4 5 4 10 0 6 -5 10 -11 10 -5 0 -7
-4 -4 -10z"/>
<path d="M6560 8930 c0 -5 5 -10 11 -10 5 0 7 5 4 10 -3 6 -8 10 -11 10 -2 0
-4 -4 -4 -10z"/>
<path d="M6531 8744 c0 -11 3 -14 6 -6 3 7 2 16 -1 19 -3 4 -6 -2 -5 -13z"/>
<path d="M7060 7738 c0 -53 4 -99 9 -102 15 -10 19 15 13 99 -7 116 -22 117
-22 3z"/>
<path d="M6693 7705 c0 -8 7 -15 15 -15 7 0 12 5 10 12 -6 18 -25 21 -25 3z"/>
<path d="M6784 7277 c-3 -8 2 -32 11 -53 16 -37 18 -38 27 -17 7 13 7 31 1 49
-11 32 -30 43 -39 21z"/>
<path d="M1570 5381 c0 -6 5 -13 10 -16 6 -3 10 1 10 9 0 9 -4 16 -10 16 -5 0
-10 -4 -10 -9z"/>
<path d="M755 4250 c3 -5 8 -10 11 -10 2 0 4 5 4 10 0 6 -5 10 -11 10 -5 0 -7
-4 -4 -10z"/>
<path d="M290 4190 c0 -5 5 -10 11 -10 5 0 7 5 4 10 -3 6 -8 10 -11 10 -2 0
-4 -4 -4 -10z"/>
<path d="M2006 4193 c-9 -9 -39 -13 -113 -15 -53 -2 -63 -5 -63 -20 0 -10 10
-20 24 -24 14 -3 27 -12 30 -20 4 -10 23 -14 64 -14 53 0 60 2 70 25 15 32 15
55 1 55 -5 0 -7 5 -4 10 7 11 2 13 -9 3z"/>
<path d="M1223 4183 c-7 -3 -13 -9 -13 -14 0 -6 -9 -19 -19 -31 -29 -31 -16
-50 33 -46 39 3 41 5 42 35 1 34 -22 64 -43 56z"/>
<path d="M1472 4173 c-15 -13 -19 -25 -16 -45 5 -22 13 -27 50 -33 31 -4 50
-2 65 8 13 9 16 17 10 22 -6 3 -11 14 -11 25 0 21 -15 28 -53 24 -15 -1 -25 2
-22 7 9 14 -1 11 -23 -8z"/>
<path d="M1649 4168 c-8 -11 -19 -26 -25 -32 -9 -8 -6 -15 9 -28 24 -22 41
-23 56 -4 13 16 6 60 -13 75 -9 7 -16 4 -27 -11z"/>
<path d="M281 4144 c0 -11 3 -14 6 -6 3 7 2 16 -1 19 -3 4 -6 -2 -5 -13z"/>
<path d="M1410 4151 c0 -5 -12 -8 -26 -5 -22 4 -25 1 -22 -18 3 -24 48 -40 48
-18 0 7 7 10 15 7 20 -8 29 11 15 28 -14 17 -30 20 -30 6z"/>
<path d="M455 4130 c3 -5 -1 -10 -9 -10 -8 0 -18 -5 -22 -12 -4 -7 -3 -8 4 -4
7 4 12 2 12 -3 0 -6 11 -11 24 -11 22 0 23 2 13 25 -7 14 -16 25 -20 25 -5 0
-5 -4 -2 -10z"/>
<path d="M393 4115 c0 -8 4 -12 9 -9 4 3 8 9 8 15 0 5 -4 9 -8 9 -5 0 -9 -7
-9 -15z"/>
<path d="M260 4110 c0 -5 5 -10 11 -10 5 0 7 5 4 10 -3 6 -8 10 -11 10 -2 0
-4 -4 -4 -10z"/>
<path d="M1915 3939 c-11 -17 1 -21 15 -4 8 9 8 15 2 15 -6 0 -14 -5 -17 -11z"/>
<path d="M390 3735 c-11 -13 -8 -15 20 -15 21 0 30 4 28 13 -7 18 -33 20 -48
2z"/>
<path d="M1410 3663 c0 -5 5 -14 11 -20 13 -13 51 -5 46 11 -4 13 -57 21 -57
9z"/>
<path d="M1651 3574 c0 -11 3 -14 6 -6 3 7 2 16 -1 19 -3 4 -6 -2 -5 -13z"/>
<path d="M1574 3518 c-8 -12 26 -37 49 -38 10 0 17 7 17 19 0 13 -9 20 -30 23
-17 3 -33 1 -36 -4z"/>
<path d="M1241 3470 c21 -37 46 -57 57 -45 9 8 -50 85 -65 85 -11 0 -9 -9 8
-40z"/>
<path d="M1147 3465 c-9 -13 -13 -26 -9 -29 13 -8 52 23 52 40 0 22 -23 16
-43 -11z"/>
<path d="M590 3463 c5 -10 21 -31 35 -48 19 -23 27 -27 37 -17 9 9 3 19 -28
46 -43 39 -60 46 -44 19z"/>
<path d="M995 3448 c-8 -21 24 -73 37 -60 6 6 1 22 -11 43 -16 26 -21 29 -26
17z"/>
<path d="M1318 3453 c7 -3 16 -2 19 1 4 3 -2 6 -13 5 -11 0 -14 -3 -6 -6z"/>
<path d="M850 3410 c0 -11 5 -20 10 -20 20 0 10 -39 -12 -46 -21 -6 -21 -7 -3
-20 20 -15 65 -19 65 -6 0 15 -45 112 -52 112 -5 0 -8 -9 -8 -20z"/>
<path d="M7 2799 c7 -7 15 -10 18 -7 3 3 -2 9 -12 12 -14 6 -15 5 -6 -5z"/>
<path d="M697 514 c-11 -11 3 -24 18 -18 8 4 12 10 9 15 -6 11 -18 12 -27 3z"/>
<path d="M690 450 c0 -5 5 -10 11 -10 5 0 7 5 4 10 -3 6 -8 10 -11 10 -2 0 -4
-4 -4 -10z"/>
<path d="M910 337 c0 -7 -13 -20 -29 -30 -34 -20 -45 -22 -35 -4 4 6 -2 3 -14
-7 -18 -15 -20 -22 -10 -34 8 -9 14 -10 16 -3 6 19 21 12 17 -9 -2 -11 2 -26
10 -34 8 -7 11 -16 8 -20 -12 -12 13 -6 26 7 11 10 12 9 6 -3 -7 -13 -6 -13 6
-1 11 10 11 15 1 18 -6 3 -10 9 -6 14 3 5 0 9 -5 9 -6 0 -11 5 -11 11 0 5 5 7
10 4 6 -3 10 -1 10 4 0 6 3 10 8 10 19 -3 22 2 9 15 -8 9 -12 26 -10 40 3 14
3 26 -1 26 -3 0 -6 -6 -6 -13z"/>
</g>
</svg>
